<?xml version="1.0" encoding="UTF-8" standalone="no"?>
<!-- Created with Inkscape (http://www.inkscape.org/) -->

<svg
   xmlns:dc="http://purl.org/dc/elements/1.1/"
   xmlns:cc="http://creativecommons.org/ns#"
   xmlns:rdf="http://www.w3.org/1999/02/22-rdf-syntax-ns#"
   xmlns:svg="http://www.w3.org/2000/svg"
   xmlns="http://www.w3.org/2000/svg"
   xmlns:sodipodi="http://sodipodi.sourceforge.net/DTD/sodipodi-0.dtd"
   xmlns:inkscape="http://www.inkscape.org/namespaces/inkscape"
   width="297mm"
   height="297mm"
   viewBox="0 0 297 297"
   version="1.1"
   id="svg8"
   inkscape:version="0.92.3 (2405546, 2018-03-11)"
   sodipodi:docname="logo_proto.svg"
   inkscape:export-filename="/home/chriswachira/Documents/G-Designs/express-messenger/logo_proto.png"
   inkscape:export-xdpi="96"
   inkscape:export-ydpi="96">
  <defs
     id="defs2" />
  <sodipodi:namedview
     id="base"
     pagecolor="#ffffff"
     bordercolor="#666666"
     borderopacity="1.0"
     inkscape:pageopacity="1"
     inkscape:pageshadow="2"
     inkscape:zoom="0.24748737"
     inkscape:cx="119.93564"
     inkscape:cy="408.95194"
     inkscape:document-units="mm"
     inkscape:current-layer="layer1"
     showgrid="false"
     showguides="true"
     inkscape:guide-bbox="true"
     inkscape:window-width="1280"
     inkscape:window-height="750"
     inkscape:window-x="0"
     inkscape:window-y="0"
     inkscape:window-maximized="1"
     inkscape:pagecheckerboard="false">
    <sodipodi:guide
       position="14.56619,139.94481"
       orientation="1,0"
       id="guide883"
       inkscape:locked="false" />
    <sodipodi:guide
       position="292.92741,298.2728"
       orientation="1,0"
       id="guide885"
       inkscape:locked="false" />
  </sodipodi:namedview>
  <metadata
     id="metadata5">
    <rdf:RDF>
      <cc:Work
         rdf:about="">
        <dc:format>image/svg+xml</dc:format>
        <dc:type
           rdf:resource="http://purl.org/dc/dcmitype/StillImage" />
        <dc:title></dc:title>
      </cc:Work>
    </rdf:RDF>
  </metadata>
  <g
     inkscape:label="Layer 1"
     inkscape:groupmode="layer"
     id="layer1">
    <flowRoot
       xml:space="preserve"
       id="flowRoot815"
       style="font-style:normal;font-weight:normal;font-size:37.5px;line-height:1000%;font-family:sans-serif;letter-spacing:32.34000015px;word-spacing:0px;fill:#000000;fill-opacity:1;stroke:none;stroke-width:1px;stroke-linecap:butt;stroke-linejoin:miter;stroke-opacity:1"
       transform="scale(0.26458333)"><flowRegion
         id="flowRegion817"><rect
           id="rect819"
           width="771.42859"
           height="180"
           x="180"
           y="425.3768" /></flowRegion><flowPara
         id="flowPara821">eEXSADASD</flowPara></flowRoot>    <g
       id="g1024"
       transform="translate(2.9275475e-7,-1.0546283e-6)">
      <g
         transform="matrix(1.4323403,0,0,1.4323403,-2.3126805,-30.113905)"
         id="text825"
         style="font-style:normal;font-weight:normal;font-size:33.22536087px;line-height:1000%;font-family:sans-serif;letter-spacing:28.65355301px;word-spacing:0px;fill:#0000ff;fill-opacity:1;stroke:none;stroke-width:0.88600963px;stroke-linecap:butt;stroke-linejoin:miter;stroke-opacity:1"
         aria-label="EXPRESS">
        <path
           inkscape:connector-curvature="0"
           id="path848"
           style="font-style:normal;font-variant:normal;font-weight:normal;font-stretch:normal;line-height:0%;font-family:'Gotham Black';-inkscape-font-specification:'Gotham Black, ';letter-spacing:0px;fill:#0000ff;fill-opacity:1;stroke-width:0.88600963px"
           d="m 15.749293,107.29938 h 18.705878 v 5.48218 H 22.128562 v 3.52189 h 11.163721 v 5.08348 H 22.128562 v 3.68801 h 12.492736 v 5.48219 H 15.749293 Z" />
        <path
           inkscape:connector-curvature="0"
           id="path850"
           style="font-style:normal;font-variant:normal;font-weight:normal;font-stretch:normal;line-height:0%;font-family:'Gotham Black';-inkscape-font-specification:'Gotham Black, ';letter-spacing:0px;fill:#0000ff;fill-opacity:1;stroke-width:0.88600963px"
           d="m 68.114294,118.7289 -7.641833,-11.42952 h 7.409256 l 4.119945,6.54539 4.15317,-6.54539 h 7.243128 l -7.641833,11.36307 7.974087,11.89468 h -7.409256 l -4.452198,-7.01055 -4.485424,7.01055 h -7.243128 z" />
        <path
           inkscape:connector-curvature="0"
           id="path852"
           style="font-style:normal;font-variant:normal;font-weight:normal;font-stretch:normal;line-height:0%;font-family:'Gotham Black';-inkscape-font-specification:'Gotham Black, ';letter-spacing:0px;fill:#0000ff;fill-opacity:1;stroke-width:0.88600963px"
           d="m 95.672136,118.8618 q 1.727719,0 2.691255,-0.79741 0.99676,-0.83063 0.99676,-2.2261 v -0.0665 q 0,-1.49514 -0.99676,-2.25932 -0.963536,-0.79741 -2.72448,-0.79741 h -3.023508 v 6.14669 z m -9.502453,-11.56242 h 9.967608 q 2.192874,0 3.987039,0.56483 1.79417,0.5316 3.05674,1.59481 1.26256,1.02999 1.92707,2.55836 0.69773,1.52836 0.69773,3.45544 v 0.0665 q 0,2.05997 -0.76418,3.62156 -0.73096,1.56159 -2.05997,2.6248 -1.32902,1.06322 -3.189639,1.59482 -1.827395,0.53161 -3.987043,0.53161 h -3.189635 v 6.64507 h -6.44572 z" />
        <path
           inkscape:connector-curvature="0"
           id="path854"
           style="font-style:normal;font-variant:normal;font-weight:normal;font-stretch:normal;line-height:0%;font-family:'Gotham Black';-inkscape-font-specification:'Gotham Black, ';letter-spacing:0px;fill:#0000ff;fill-opacity:1;stroke-width:0.88600963px"
           d="m 119.25643,118.4631 q 1.66127,0 2.55835,-0.73096 0.89709,-0.76418 0.89709,-2.02675 v -0.0664 q 0,-1.39546 -0.93031,-2.05997 -0.93031,-0.69773 -2.55836,-0.69773 h -4.21962 v 5.58186 z m -10.69857,-11.16372 h 10.9976 q 2.69125,0 4.55187,0.6645 1.86062,0.66451 3.02351,1.86062 2.05997,1.99353 2.05997,5.41574 v 0.0665 q 0,2.69125 -1.29579,4.4522 -1.29579,1.76094 -3.48866,2.69125 l 5.54864,8.10699 h -7.44249 l -4.68477,-7.04378 h -0.0665 -2.75771 v 7.04378 h -6.44572 z" />
        <path
           inkscape:connector-curvature="0"
           id="path856"
           style="font-style:normal;font-variant:normal;font-weight:normal;font-stretch:normal;line-height:0%;font-family:'Gotham Black';-inkscape-font-specification:'Gotham Black, ';letter-spacing:0px;fill:#0000ff;fill-opacity:1;stroke-width:0.88600963px"
           d="m 132.43859,107.29938 h 18.70588 v 5.48218 h -12.32661 v 3.52189 h 11.16372 v 5.08348 h -11.16372 v 3.68801 h 12.49274 v 5.48219 h -18.87201 z" />
        <path
           inkscape:connector-curvature="0"
           id="path858"
           style="font-style:normal;font-variant:normal;font-weight:normal;font-stretch:normal;line-height:0%;font-family:'Gotham Black';-inkscape-font-specification:'Gotham Black, ';letter-spacing:0px;fill:#0000ff;fill-opacity:1;stroke-width:0.88600963px"
           d="m 163.76907,130.95583 q -3.12318,0 -5.94734,-0.96353 -2.79093,-0.96354 -4.95058,-2.89061 l 3.58834,-4.28607 q 3.48866,2.79093 7.54216,2.79093 1.29579,0 1.96029,-0.3987 0.69774,-0.43193 0.69774,-1.19612 v -0.0665 q 0,-0.36548 -0.16613,-0.63128 -0.16613,-0.29903 -0.63128,-0.56483 -0.43193,-0.2658 -1.19611,-0.49838 -0.73096,-0.2658 -1.92708,-0.53161 -1.86062,-0.43193 -3.45543,-0.93031 -1.59482,-0.5316 -2.79093,-1.32901 -1.16289,-0.83064 -1.86062,-2.02675 -0.66451,-1.22934 -0.66451,-3.02351 v -0.0665 q 0,-1.62804 0.59806,-2.99028 0.63128,-1.36224 1.79417,-2.359 1.19611,-0.99676 2.85738,-1.52837 1.66126,-0.56483 3.75446,-0.56483 2.99028,0 5.31606,0.79741 2.359,0.76418 4.25285,2.29255 l -3.22286,4.55187 q -1.59482,-1.12966 -3.28931,-1.69449 -1.66127,-0.59805 -3.22286,-0.59805 -1.16289,0 -1.76095,0.43192 -0.56483,0.43193 -0.56483,1.06322 v 0.0665 q 0,0.3987 0.16613,0.69773 0.19935,0.29903 0.63128,0.56483 0.46515,0.23258 1.22934,0.49838 0.79741,0.23258 1.99352,0.49838 1.99352,0.43193 3.58834,1.02999 1.62804,0.56483 2.7577,1.39546 1.12967,0.83064 1.72772,2.02675 0.59806,1.16289 0.59806,2.79093 v 0.0665 q 0,1.79417 -0.69773,3.18964 -0.66451,1.39546 -1.89385,2.39222 -1.22934,0.96354 -2.95706,1.49514 -1.72772,0.49838 -3.85414,0.49838 z" />
        <path
           inkscape:connector-curvature="0"
           id="path860"
           style="font-style:normal;font-variant:normal;font-weight:normal;font-stretch:normal;line-height:0%;font-family:'Gotham Black';-inkscape-font-specification:'Gotham Black, ';letter-spacing:0px;fill:#0000ff;fill-opacity:1;stroke-width:0.88600963px"
           d="m 185.44343,130.95583 q -3.12319,0 -5.94734,-0.96353 -2.79093,-0.96354 -4.95058,-2.89061 l 3.58834,-4.28607 q 3.48866,2.79093 7.54215,2.79093 1.29579,0 1.9603,-0.3987 0.69773,-0.43193 0.69773,-1.19612 v -0.0665 q 0,-0.36548 -0.16612,-0.63128 -0.16613,-0.29903 -0.63129,-0.56483 -0.43193,-0.2658 -1.19611,-0.49838 -0.73096,-0.2658 -1.92707,-0.53161 -1.86062,-0.43193 -3.45544,-0.93031 -1.59482,-0.5316 -2.79093,-1.32901 -1.16289,-0.83064 -1.86062,-2.02675 -0.66451,-1.22934 -0.66451,-3.02351 v -0.0665 q 0,-1.62804 0.59806,-2.99028 0.63128,-1.36224 1.79417,-2.359 1.19611,-0.99676 2.85738,-1.52837 1.66127,-0.56483 3.75447,-0.56483 2.99028,0 5.31605,0.79741 2.35901,0.76418 4.25285,2.29255 l -3.22286,4.55187 q -1.59482,-1.12966 -3.28931,-1.69449 -1.66127,-0.59805 -3.22286,-0.59805 -1.16289,0 -1.76094,0.43192 -0.56484,0.43193 -0.56484,1.06322 v 0.0665 q 0,0.3987 0.16613,0.69773 0.19935,0.29903 0.63128,0.56483 0.46516,0.23258 1.22934,0.49838 0.79741,0.23258 1.99352,0.49838 1.99353,0.43193 3.58834,1.02999 1.62805,0.56483 2.75771,1.39546 1.12966,0.83064 1.72772,2.02675 0.59805,1.16289 0.59805,2.79093 v 0.0665 q 0,1.79417 -0.69773,3.18964 -0.66451,1.39546 -1.89385,2.39222 -1.22933,0.96354 -2.95705,1.49514 -1.72772,0.49838 -3.85414,0.49838 z" />
      </g>
      <text
         id="text881"
         y="173.87141"
         x="19.292877"
         style="font-style:normal;font-weight:normal;font-size:12.86598778px;line-height:1000%;font-family:sans-serif;letter-spacing:11.09562874px;word-spacing:0px;fill:#000000;fill-opacity:1;stroke:none;stroke-width:0.34309301px;stroke-linecap:butt;stroke-linejoin:miter;stroke-opacity:1"
         xml:space="preserve"><tspan
           style="font-style:normal;font-variant:normal;font-weight:normal;font-stretch:normal;font-size:10.37486839px;font-family:'Gotham Medium';-inkscape-font-specification:'Gotham Medium, ';letter-spacing:12.24882889px;stroke-width:0.34309301px"
           y="173.87141"
           x="19.292877"
           id="tspan879"
           sodipodi:role="line">MESSENGERS LTD</tspan></text>
      <path
         sodipodi:nodetypes="ccccccc"
         inkscape:connector-curvature="0"
         id="path910"
         d="M 72.087503,123.57531 H 83.03081 L 93.978916,139.8511 82.505945,156.88833 H 71.611606 l 11.421605,-16.94205 z"
         style="fill:#ff0000;fill-opacity:1;fill-rule:evenodd;stroke:none;stroke-width:0.3098104px;stroke-linecap:butt;stroke-linejoin:miter;stroke-opacity:1" />
      <path
         style="fill:#ff0000;fill-opacity:1;fill-rule:evenodd;stroke:none;stroke-width:0.3098104px;stroke-linecap:butt;stroke-linejoin:miter;stroke-opacity:1"
         d="M 60.081138,123.57531 H 71.024445 L 81.972551,139.8511 70.49958,156.88833 H 59.605241 l 11.421605,-16.94205 z"
         id="path956"
         inkscape:connector-curvature="0"
         sodipodi:nodetypes="ccccccc" />
      <path
         sodipodi:nodetypes="ccccccc"
         inkscape:connector-curvature="0"
         id="path958"
         d="m 47.80345,123.52806 h 10.943307 l 10.948106,16.27579 -11.472971,17.03723 H 47.327553 l 11.421605,-16.94205 z"
         style="fill:#800000;fill-opacity:1;fill-rule:evenodd;stroke:none;stroke-width:0.3098104px;stroke-linecap:butt;stroke-linejoin:miter;stroke-opacity:1" />
    </g>
    <text
       xml:space="preserve"
       style="font-style:normal;font-weight:normal;font-size:36.84148026px;line-height:1000%;font-family:sans-serif;letter-spacing:13.16469193px;word-spacing:0px;opacity:0.356;fill:#ff0000;fill-opacity:1;stroke:none;stroke-width:0.98243946px;stroke-linecap:butt;stroke-linejoin:miter;stroke-opacity:1"
       x="-31.075701"
       y="204.87883"
       id="text996"
       transform="rotate(-21.003787)"><tspan
         sodipodi:role="line"
         id="tspan994"
         x="-31.075701"
         y="204.87883"
         style="font-style:normal;font-variant:normal;font-weight:normal;font-stretch:normal;font-family:'Arial Black';-inkscape-font-specification:'Arial Black, ';letter-spacing:13.16469193px;fill:#ff0000;stroke-width:0.98243946px">SAMPLE</tspan></text>
  </g>
</svg>
