<?xml version="1.0" encoding="UTF-8" standalone="no"?>
<!-- Created with Inkscape (http://www.inkscape.org/) -->

<svg
   xmlns:dc="http://purl.org/dc/elements/1.1/"
   xmlns:cc="http://creativecommons.org/ns#"
   xmlns:rdf="http://www.w3.org/1999/02/22-rdf-syntax-ns#"
   xmlns:svg="http://www.w3.org/2000/svg"
   xmlns="http://www.w3.org/2000/svg"
   xmlns:xlink="http://www.w3.org/1999/xlink"
   xmlns:sodipodi="http://sodipodi.sourceforge.net/DTD/sodipodi-0.dtd"
   xmlns:inkscape="http://www.inkscape.org/namespaces/inkscape"
   width="297mm"
   height="297mm"
   viewBox="0 0 297 297"
   version="1.1"
   id="svg8"
   inkscape:version="0.92.3 (2405546, 2018-03-11)"
   sodipodi:docname="logo_proto.svg"
   inkscape:export-filename="/home/chriswachira/Documents/G-Designs/express-messenger/logo_proto.png"
   inkscape:export-xdpi="96"
   inkscape:export-ydpi="96">
  <defs
     id="defs2">
    <linearGradient
       inkscape:collect="always"
       id="linearGradient874">
      <stop
         style="stop-color:#ff6600;stop-opacity:1;"
         offset="0"
         id="stop870" />
      <stop
         style="stop-color:#0000ff;stop-opacity:1"
         offset="1"
         id="stop872" />
    </linearGradient>
    <linearGradient
       inkscape:collect="always"
       id="linearGradient852">
      <stop
         style="stop-color:#ff6600;stop-opacity:1"
         offset="0"
         id="stop848" />
      <stop
         style="stop-color:#800080;stop-opacity:1"
         offset="1"
         id="stop850" />
    </linearGradient>
    <linearGradient
       inkscape:collect="always"
       id="linearGradient844">
      <stop
         style="stop-color:#000000;stop-opacity:1;"
         offset="0"
         id="stop840" />
      <stop
         style="stop-color:#000000;stop-opacity:0;"
         offset="1"
         id="stop842" />
    </linearGradient>
    <linearGradient
       inkscape:collect="always"
       id="linearGradient1307">
      <stop
         style="stop-color:#0000ff;stop-opacity:1"
         offset="0"
         id="stop1303" />
      <stop
         style="stop-color:#800080;stop-opacity:1"
         offset="1"
         id="stop1305" />
    </linearGradient>
    <linearGradient
       inkscape:collect="always"
       xlink:href="#linearGradient1307"
       id="linearGradient1309"
       x1="96.217033"
       y1="148.08961"
       x2="96.217033"
       y2="184.73566"
       gradientUnits="userSpaceOnUse"
       gradientTransform="translate(9.0157985,-20.937252)" />
    <linearGradient
       inkscape:collect="always"
       xlink:href="#linearGradient844"
       id="linearGradient846"
       x1="60.107708"
       y1="171.7009"
       x2="72.548508"
       y2="171.7009"
       gradientUnits="userSpaceOnUse"
       gradientTransform="translate(9.0157985,-20.937252)" />
    <radialGradient
       inkscape:collect="always"
       xlink:href="#linearGradient852"
       id="radialGradient854"
       cx="61.786381"
       cy="148.13731"
       fx="61.786381"
       fy="148.13731"
       r="19.120784"
       gradientTransform="matrix(0.57130936,-2.3208481e-8,1.3387551e-8,0.32955337,35.503041,74.726932)"
       gradientUnits="userSpaceOnUse" />
    <linearGradient
       inkscape:collect="always"
       xlink:href="#linearGradient874"
       id="linearGradient876"
       x1="75.696465"
       y1="172.83315"
       x2="45.999607"
       y2="172.83315"
       gradientUnits="userSpaceOnUse"
       gradientTransform="translate(9.0157985,-20.937252)" />
  </defs>
  <sodipodi:namedview
     id="base"
     pagecolor="#ffffff"
     bordercolor="#666666"
     borderopacity="1.0"
     inkscape:pageopacity="1"
     inkscape:pageshadow="2"
     inkscape:zoom="0.35"
     inkscape:cx="405.61748"
     inkscape:cy="439.33863"
     inkscape:document-units="mm"
     inkscape:current-layer="layer2"
     showgrid="false"
     showguides="true"
     inkscape:guide-bbox="true"
     inkscape:window-width="1280"
     inkscape:window-height="750"
     inkscape:window-x="0"
     inkscape:window-y="0"
     inkscape:window-maximized="1"
     inkscape:pagecheckerboard="false">
    <sodipodi:guide
       position="7.7367005,129.7049"
       orientation="1,0"
       id="guide883"
       inkscape:locked="false" />
    <sodipodi:guide
       position="270.87768,125.61668"
       orientation="1,0"
       id="guide885"
       inkscape:locked="false" />
    <sodipodi:guide
       position="306.05442,57.842172"
       orientation="0,1"
       id="guide1219"
       inkscape:locked="false" />
  </sodipodi:namedview>
  <metadata
     id="metadata5">
    <rdf:RDF>
      <cc:Work
         rdf:about="">
        <dc:format>image/svg+xml</dc:format>
        <dc:type
           rdf:resource="http://purl.org/dc/dcmitype/StillImage" />
        <dc:title />
      </cc:Work>
    </rdf:RDF>
  </metadata>
  <g
     inkscape:label="Layer 1"
     inkscape:groupmode="layer"
     id="layer1">
    <flowRoot
       xml:space="preserve"
       id="flowRoot815"
       style="font-style:normal;font-weight:normal;font-size:37.5px;line-height:1000%;font-family:sans-serif;letter-spacing:32.34000015px;word-spacing:0px;fill:#000000;fill-opacity:1;stroke:none;stroke-width:1px;stroke-linecap:butt;stroke-linejoin:miter;stroke-opacity:1"
       transform="scale(0.26458333)"><flowRegion
         id="flowRegion817"><rect
           id="rect819"
           width="771.42859"
           height="180"
           x="180"
           y="425.3768" /></flowRegion><flowPara
         id="flowPara821">eEXSADASD</flowPara></flowRoot>    <path
       sodipodi:nodetypes="ccccccc"
       inkscape:connector-curvature="0"
       id="path956"
       d="m -47.361213,48.73984 h 10.943307 L -25.4698,65.01563 -36.942771,82.05286 H -47.83711 l 11.421605,-16.94205 z"
       style="fill:#ff0000;fill-opacity:1;fill-rule:evenodd;stroke:none;stroke-width:0.3098104px;stroke-linecap:butt;stroke-linejoin:miter;stroke-opacity:1" />
    <path
       style="fill:#800000;fill-opacity:1;fill-rule:evenodd;stroke:none;stroke-width:0.3098104px;stroke-linecap:butt;stroke-linejoin:miter;stroke-opacity:1"
       d="m -59.638901,48.69259 h 10.943307 l 10.948106,16.27579 -11.472971,17.03723 h -10.894339 l 11.421605,-16.94205 z"
       id="path958"
       inkscape:connector-curvature="0"
       sodipodi:nodetypes="ccccccc" />
    <path
       style="fill:#ff6600;stroke-width:0.02626541"
       d="m 338.22987,60.162928 c -0.56505,-0.007 -0.66321,-0.0137 -0.66321,-0.0468 0,-0.0339 -0.16774,-0.0393 -1.28043,-0.042 -0.70425,-0.002 -1.25976,-0.008 -1.23448,-0.015 0.074,-0.0194 0.0531,-0.0535 -0.0441,-0.0717 -0.0727,-0.0137 -0.0933,-0.0319 -0.10715,-0.0949 -0.009,-0.0428 -0.0339,-0.078 -0.0544,-0.078 -0.026,0 -0.0373,-0.0317 -0.0373,-0.10506 0,-0.0719 -0.0115,-0.10506 -0.0363,-0.10506 -0.0399,0 -0.0678,-0.078 -0.0684,-0.19125 -2e-4,-0.0405 -0.0179,-0.0798 -0.0397,-0.0882 -0.0276,-0.0106 -0.0394,-0.0536 -0.0394,-0.14362 0,-0.0967 -0.01,-0.12852 -0.0394,-0.12852 -0.0217,0 -0.0401,-0.003 -0.041,-0.007 -9.4e-4,-0.004 -0.007,-0.0657 -0.0147,-0.1379 -0.0167,-0.1669 -0.0293,-0.20433 -0.0622,-0.18397 -0.0159,0.01 -0.0278,-0.0261 -0.0297,-0.0903 -0.002,-0.0586 -0.006,-0.11842 -0.01,-0.13287 -0.004,-0.0144 -0.008,-0.0498 -0.01,-0.0788 -0.002,-0.0289 -0.021,-0.0525 -0.0427,-0.0525 -0.0303,0 -0.0394,-0.0339 -0.0394,-0.14726 0,-0.12012 -0.007,-0.14449 -0.0394,-0.13216 -0.028,0.0107 -0.0403,-0.003 -0.0427,-0.0497 -0.002,-0.0356 -0.006,-0.0767 -0.01,-0.0911 -0.004,-0.0144 -0.008,-0.0512 -0.01,-0.0816 -0.002,-0.0377 -0.0158,-0.0505 -0.0427,-0.0402 -0.0323,0.0125 -0.0394,-0.0131 -0.0394,-0.14164 0,-0.11597 -0.01,-0.15678 -0.0363,-0.15678 -0.0414,0 -0.0678,-0.0788 -0.0684,-0.20355 -2e-4,-0.0583 -0.0129,-0.0854 -0.0398,-0.0854 -0.0269,0 -0.0395,-0.0272 -0.0398,-0.0854 -4.9e-4,-0.12478 -0.027,-0.20356 -0.0684,-0.20356 -0.0265,0 -0.0363,-0.039 -0.0363,-0.14446 0,-0.10549 -0.01,-0.14446 -0.0363,-0.14446 -0.0398,0 -0.0678,-0.078 -0.0684,-0.19042 -2e-4,-0.0466 -0.0144,-0.0722 -0.0398,-0.0722 -0.0293,0 -0.0394,-0.031 -0.0394,-0.12101 0,-0.10048 -0.007,-0.11825 -0.0423,-0.10476 -0.0303,0.0116 -0.038,0.005 -0.0271,-0.0235 0.008,-0.0219 0.004,-0.0397 -0.0102,-0.0397 -0.014,0 -0.0254,-0.0485 -0.0254,-0.10787 0,-0.0851 -0.008,-0.10468 -0.0394,-0.0928 -0.03,0.0115 -0.0395,-0.005 -0.0398,-0.0694 -5e-4,-0.12399 -0.0271,-0.20273 -0.0684,-0.20273 -0.024,0 -0.0363,-0.0312 -0.0363,-0.0919 0,-0.0617 -0.0122,-0.0919 -0.0371,-0.0919 -0.0227,0 -0.0439,-0.0401 -0.0545,-0.103 -0.01,-0.0567 -0.0342,-0.10947 -0.0548,-0.11737 -0.0248,-0.01 -0.0374,-0.0547 -0.0374,-0.13339 0,-0.0842 -0.0107,-0.11902 -0.0366,-0.11902 -0.0423,0 -0.0685,-0.0559 -0.0685,-0.14661 0,-0.0389 -0.0152,-0.0635 -0.0394,-0.0635 -0.0254,0 -0.0395,-0.0257 -0.0398,-0.0722 -5.9e-4,-0.11246 -0.0285,-0.19042 -0.0684,-0.19042 -0.024,0 -0.0363,-0.0312 -0.0363,-0.0919 0,-0.0617 -0.0122,-0.0919 -0.0371,-0.0919 -0.0228,0 -0.0439,-0.0405 -0.0548,-0.10506 -0.0109,-0.0646 -0.032,-0.10506 -0.0548,-0.10506 -0.0249,0 -0.0371,-0.0303 -0.0371,-0.0919 0,-0.0629 -0.012,-0.0919 -0.0382,-0.0919 -0.0229,0 -0.0451,-0.0369 -0.0554,-0.0919 -0.01,-0.0505 -0.033,-0.0919 -0.0521,-0.0919 -0.0214,0 -0.038,-0.0382 -0.043,-0.0985 -0.005,-0.0541 -0.0187,-0.0945 -0.0315,-0.0897 -0.0347,0.0132 -0.0677,-0.0517 -0.0682,-0.13357 -3e-4,-0.0455 -0.0145,-0.0722 -0.0386,-0.0722 -0.0229,0 -0.0451,-0.0369 -0.0555,-0.0919 -0.01,-0.0527 -0.0328,-0.0919 -0.0537,-0.0919 -0.0242,0 -0.0365,-0.031 -0.0365,-0.0919 0,-0.0744 -0.01,-0.0919 -0.0525,-0.0919 -0.0428,0 -0.0525,-0.0175 -0.0525,-0.0947 0,-0.0734 -0.009,-0.0913 -0.0394,-0.0796 -0.0281,0.0107 -0.0394,-0.002 -0.0394,-0.0467 0,-0.0397 -0.0188,-0.0667 -0.0525,-0.0755 -0.0383,-0.01 -0.0525,-0.0359 -0.0525,-0.095 0,-0.0536 -0.013,-0.0813 -0.0382,-0.0813 -0.023,0 -0.0452,-0.0372 -0.0557,-0.0935 -0.0121,-0.0645 -0.0288,-0.0892 -0.0537,-0.0796 -0.0244,0.009 -0.0362,-0.005 -0.0362,-0.048 0,-0.0398 -0.0188,-0.0667 -0.0525,-0.0755 -0.0289,-0.007 -0.0525,-0.0326 -0.0525,-0.0556 0,-0.0231 -0.0177,-0.0419 -0.0394,-0.0419 -0.0341,0 -0.0523,-0.0474 -0.0428,-0.11084 0.002,-0.0104 -0.0207,-0.0315 -0.0494,-0.0469 -0.0288,-0.0153 -0.0523,-0.0453 -0.0523,-0.0664 0,-0.0211 -0.0164,-0.0385 -0.0365,-0.0385 -0.0209,0 -0.0438,-0.0392 -0.0537,-0.0919 -0.0103,-0.055 -0.0326,-0.0919 -0.0555,-0.0919 -0.021,0 -0.0382,-0.0237 -0.0382,-0.0525 0,-0.035 -0.0175,-0.0525 -0.0525,-0.0525 -0.035,0 -0.0525,-0.0175 -0.0525,-0.0525 0,-0.0291 -0.0175,-0.0525 -0.0394,-0.0525 -0.0265,0 -0.0394,-0.0265 -0.0394,-0.0813 0,-0.0591 -0.0143,-0.085 -0.0525,-0.095 -0.0289,-0.007 -0.0525,-0.0305 -0.0525,-0.0508 0,-0.0204 -0.017,-0.0437 -0.0378,-0.0517 -0.0208,-0.008 -0.0454,-0.049 -0.0546,-0.0911 -0.009,-0.0421 -0.0336,-0.0766 -0.0541,-0.0766 -0.0205,0 -0.0373,-0.0237 -0.0373,-0.0525 0,-0.035 -0.0175,-0.0525 -0.0525,-0.0525 -0.0346,0 -0.0525,-0.0175 -0.0525,-0.0513 0,-0.0281 -0.0183,-0.0615 -0.0407,-0.074 -0.0224,-0.0125 -0.0427,-0.0504 -0.0453,-0.0841 -0.002,-0.034 -0.0254,-0.0668 -0.0513,-0.0735 -0.0257,-0.007 -0.0466,-0.0345 -0.0466,-0.0617 0,-0.0272 -0.0177,-0.0495 -0.0394,-0.0495 -0.0217,0 -0.0394,-0.0177 -0.0394,-0.0394 0,-0.0325 -0.0517,-0.04 -0.29548,-0.0426 -0.16252,-0.002 -0.304,-0.002 -0.3144,-3e-4 -0.0104,10e-4 -0.0315,-0.0207 -0.0469,-0.0495 -0.0222,-0.0414 -0.0551,-0.0522 -0.15838,-0.0522 -0.0937,0 -0.1304,-0.0102 -0.1304,-0.0365 0,-0.0207 -0.0387,-0.0437 -0.0894,-0.0533 -0.0492,-0.009 -0.0961,-0.0342 -0.10424,-0.0555 -0.008,-0.0212 -0.0389,-0.0387 -0.0682,-0.0387 -0.0299,0 -0.0534,-0.0173 -0.0534,-0.0394 0,-0.0217 -0.0177,-0.0394 -0.0394,-0.0394 -0.0217,0 -0.061,-0.0216 -0.0874,-0.048 -0.0264,-0.0264 -0.0677,-0.0555 -0.0919,-0.0649 -0.0242,-0.009 -0.044,-0.035 -0.044,-0.0571 0,-0.0221 -0.0172,-0.0402 -0.0382,-0.0402 -0.023,0 -0.0452,-0.0372 -0.0557,-0.0935 -0.0121,-0.0645 -0.0288,-0.0892 -0.0537,-0.0796 -0.0227,0.009 -0.0362,-0.004 -0.0362,-0.0348 0,-0.0268 -0.0236,-0.0548 -0.0525,-0.0624 -0.0314,-0.008 -0.0525,-0.0358 -0.0525,-0.0687 0,-0.0306 -0.0169,-0.055 -0.0382,-0.055 -0.0228,0 -0.0451,-0.0369 -0.0555,-0.0919 -0.01,-0.0526 -0.0328,-0.0919 -0.0537,-0.0919 -0.0267,0 -0.0365,-0.0387 -0.0365,-0.14446 0,-0.10549 -0.01,-0.14446 -0.0364,-0.14446 -0.049,0 -0.0679,-0.0829 -0.0684,-0.29829 -2.9e-4,-0.14921 -0.007,-0.17751 -0.0398,-0.16499 -0.0341,0.0131 -0.0391,-0.041 -0.0374,-0.39773 0.001,-0.22707 0.008,-0.39809 0.0153,-0.38003 0.034,0.0843 0.0614,0.0158 0.0614,-0.15348 0,-0.16423 0.006,-0.18795 0.0525,-0.20006 0.0443,-0.0115 0.0525,-0.0358 0.0525,-0.15431 0,-0.1086 0.008,-0.13741 0.0362,-0.12669 0.0249,0.01 0.0416,-0.0152 0.0537,-0.0796 0.0106,-0.0562 0.0328,-0.0935 0.0557,-0.0935 0.021,0 0.0382,-0.0236 0.0382,-0.0525 0,-0.0289 0.0172,-0.0525 0.0382,-0.0525 0.0228,0 0.0451,-0.0369 0.0555,-0.0919 0.01,-0.0506 0.0323,-0.0919 0.0507,-0.0919 0.0184,0 0.0396,-0.0236 0.0471,-0.0525 0.007,-0.0289 0.0326,-0.0525 0.0556,-0.0525 0.023,0 0.0419,-0.0177 0.0419,-0.0394 0,-0.0217 0.0188,-0.0394 0.0419,-0.0394 0.023,0 0.048,-0.0236 0.0556,-0.0525 0.0104,-0.0397 0.0358,-0.0525 0.10375,-0.0525 0.0712,0 0.0884,-0.01 0.0823,-0.0459 -0.005,-0.0307 0.012,-0.0488 0.0514,-0.0544 0.0325,-0.005 0.0591,-0.0253 0.0591,-0.046 0,-0.0234 0.0272,-0.0377 0.0722,-0.0379 0.11247,-5.9e-4 0.19043,-0.0286 0.19043,-0.0684 0,-0.0288 0.0605,-0.0364 0.28892,-0.0364 0.24785,0 0.28892,0.006 0.28892,0.0422 0,0.0263 0.0145,0.0366 0.0385,0.0274 0.0212,-0.008 0.0456,-0.003 0.0541,0.0103 0.009,0.0139 0.0739,0.0251 0.1453,0.0251 0.0978,0 0.12977,0.01 0.12977,0.0394 0,0.0219 0.0233,0.0394 0.0525,0.0394 0.035,0 0.0525,0.0175 0.0525,0.0525 0,0.0425 0.0175,0.0525 0.0919,0.0525 0.0642,0 0.0919,0.0119 0.0919,0.0394 0,0.0217 0.0188,0.0394 0.0419,0.0394 0.023,0 0.048,0.0236 0.0556,0.0525 0.008,0.0289 0.0287,0.0525 0.047,0.0525 0.0183,0 0.0394,0.0236 0.047,0.0525 0.008,0.0289 0.0326,0.0525 0.0556,0.0525 0.023,0 0.0419,0.0177 0.0419,0.0394 0,0.0217 0.0177,0.0394 0.0394,0.0394 0.0219,0 0.0394,0.0234 0.0394,0.0525 0,0.035 0.0175,0.0525 0.0525,0.0525 0.0425,0 0.0525,0.0175 0.0525,0.0919 0,0.0744 0.01,0.0919 0.0525,0.0919 0.0425,0 0.0525,0.0175 0.0525,0.0919 0,0.0642 0.0119,0.0919 0.0394,0.0919 0.0277,0 0.0394,0.028 0.0394,0.0944 0,0.0723 0.0123,0.0976 0.0525,0.10813 0.0461,0.0121 0.0525,0.0358 0.0525,0.19453 0,0.12725 0.009,0.17885 0.0317,0.17423 0.0446,-0.009 0.0692,0.17442 0.0712,0.53187 0.002,0.42468 -0.0224,0.66292 -0.0674,0.64564 -0.0275,-0.0106 -0.0355,0.0242 -0.0355,0.15498 0,0.12749 -0.0103,0.17435 -0.0422,0.1922 -0.0251,0.014 -0.0476,0.0717 -0.0555,0.14192 -0.0117,0.10413 -0.007,0.12006 0.0422,0.13283 0.0305,0.008 0.0555,0.0333 0.0555,0.0564 0,0.023 0.0177,0.0419 0.0394,0.0419 0.0217,0 0.0394,0.0188 0.0394,0.0419 0,0.023 0.023,0.0479 0.051,0.0552 0.0312,0.008 0.0542,0.0404 0.0591,0.0829 0.004,0.0383 0.0143,0.0637 0.0218,0.0564 0.0237,-0.0226 0.0985,0.0637 0.0852,0.0984 -0.007,0.0181 0.006,0.033 0.0296,0.033 0.0247,0 0.0422,0.0218 0.0422,0.0525 0,0.035 0.0175,0.0525 0.0525,0.0525 0.0289,0 0.0525,0.0163 0.0525,0.0364 0,0.0199 0.0236,0.0426 0.0525,0.0501 0.0289,0.007 0.0525,0.0326 0.0525,0.0556 0,0.023 0.0177,0.0419 0.0394,0.0419 0.0219,0 0.0394,0.0233 0.0394,0.0525 0,0.035 0.0175,0.0525 0.0525,0.0525 0.0292,0 0.0525,0.0175 0.0525,0.0394 0,0.0217 0.0177,0.0394 0.0394,0.0394 0.0219,0 0.0394,0.0234 0.0394,0.0525 0,0.035 0.0175,0.0525 0.0525,0.0525 0.0339,0 0.0525,0.0175 0.0525,0.0495 0,0.0281 0.0238,0.0556 0.0552,0.0639 0.0304,0.008 0.0474,0.0271 0.0378,0.0425 -0.0101,0.0164 0.005,0.028 0.0368,0.028 0.0366,0 0.0541,0.017 0.0541,0.0525 0,0.035 0.0175,0.0525 0.0525,0.0525 0.0292,0 0.0525,0.0175 0.0525,0.0394 0,0.0216 0.0177,0.0393 0.0394,0.0393 0.0219,0 0.0394,0.0233 0.0394,0.0525 0,0.035 0.0175,0.0525 0.0525,0.0525 0.0289,0 0.0525,0.0169 0.0525,0.0376 0,0.0207 0.0245,0.0454 0.0544,0.0549 0.0327,0.0104 0.0488,0.032 0.0402,0.0543 -0.009,0.0242 0.004,0.037 0.0375,0.037 0.0339,0 0.0517,0.0177 0.0517,0.0517 0,0.036 0.0124,0.0469 0.041,0.036 0.0269,-0.0103 0.0457,0.002 0.0548,0.0372 0.008,0.0304 0.049,0.0634 0.0969,0.0778 0.0457,0.0138 0.0802,0.0388 0.0766,0.0556 -0.004,0.0169 0.0157,0.0307 0.0429,0.0307 0.0274,0 0.0556,0.0234 0.0632,0.0525 0.008,0.0289 0.0326,0.0525 0.0556,0.0525 0.023,0 0.0419,0.0177 0.0419,0.0394 0,0.0219 0.0233,0.0394 0.0525,0.0394 0.035,0 0.0525,0.0175 0.0525,0.0525 0,0.035 0.0175,0.0525 0.0525,0.0525 0.0289,0 0.0525,0.0168 0.0525,0.0373 0,0.0206 0.0355,0.0451 0.0788,0.0546 0.0433,0.01 0.0788,0.0341 0.0788,0.0547 0,0.0206 0.0236,0.0373 0.0525,0.0373 0.0347,0 0.0525,0.0175 0.0525,0.0517 0,0.036 0.0124,0.0469 0.041,0.036 0.0274,-0.0105 0.0458,0.002 0.0556,0.0402 0.0108,0.0413 0.0351,0.056 0.0928,0.056 0.0561,0 0.0821,0.0149 0.0919,0.0525 0.01,0.0378 0.0358,0.0525 0.0927,0.0525 0.0692,0 0.0747,0.005 0.0443,0.0417 -0.029,0.0349 -0.0284,0.0409 0.003,0.0363 0.10455,-0.015 0.15618,0.002 0.15618,0.0532 0,0.0425 0.0175,0.0525 0.0919,0.0525 0.0609,0 0.0919,0.0123 0.0919,0.0365 0,0.0209 0.0393,0.0438 0.0919,0.0537 0.055,0.0103 0.0919,0.0326 0.0919,0.0554 0,0.0265 0.0294,0.0382 0.0956,0.0382 0.0559,0 0.10792,0.0169 0.12527,0.0406 0.0163,0.0223 0.0578,0.0427 0.0923,0.0453 0.0352,0.002 0.0679,0.0251 0.0748,0.0514 0.01,0.0368 0.0398,0.0466 0.14292,0.0466 0.10863,0 0.13305,0.009 0.14446,0.0526 0.0122,0.0465 0.0358,0.0525 0.20684,0.0525 0.16086,0 0.19058,0.007 0.17799,0.0394 -0.0129,0.0337 0.0299,0.0394 0.29295,0.0394 0.27088,0 0.30413,-0.004 0.27539,-0.0394 -0.0282,-0.034 -0.0177,-0.0394 0.0756,-0.0394 0.076,0 0.10827,-0.011 0.10827,-0.0373 0,-0.0206 0.0343,-0.0448 0.0761,-0.054 0.0443,-0.01 0.0817,-0.038 0.0895,-0.0679 0.009,-0.0339 0.0275,-0.0456 0.0552,-0.0351 0.0301,0.0116 0.0418,5e-4 0.0418,-0.0392 0,-0.0309 0.0169,-0.0553 0.0382,-0.0553 0.0229,0 0.0451,-0.0369 0.0555,-0.0919 0.01,-0.0505 0.0323,-0.0919 0.0508,-0.0919 0.0185,0 0.0413,-0.0413 0.0508,-0.0919 0.0103,-0.055 0.0326,-0.0919 0.0555,-0.0919 0.0259,0 0.0382,-0.0286 0.0382,-0.0889 0,-0.0672 0.013,-0.0923 0.0533,-0.10279 0.0293,-0.008 0.0515,-0.0238 0.0494,-0.036 -0.0142,-0.081 0.007,-0.16642 0.0418,-0.16642 0.0313,0 0.0394,-0.0379 0.0394,-0.18386 0,-0.15136 0.007,-0.18387 0.0422,-0.18387 0.0263,0 0.0366,-0.0144 0.0274,-0.0385 -0.008,-0.0212 -0.003,-0.0455 0.0103,-0.0541 0.0138,-0.009 0.0251,-0.12675 0.0251,-0.26267 0,-0.2089 0.006,-0.24481 0.0394,-0.23203 0.0323,0.0125 0.0399,-0.015 0.0422,-0.15185 0.003,-0.16578 0.0384,-0.51362 0.0458,-0.44778 0.002,0.0189 0.0157,0.0271 0.0301,0.0181 0.0144,-0.009 0.0263,-0.0687 0.0263,-0.13287 v -0.11618 h -0.13241 c -0.0922,0 -0.13664,-0.0117 -0.14699,-0.0387 -0.008,-0.0213 -0.0551,-0.0462 -0.10424,-0.0555 -0.0507,-0.01 -0.0894,-0.0326 -0.0894,-0.0532 0,-0.0242 -0.031,-0.0365 -0.0919,-0.0365 -0.0744,0 -0.0919,-0.01 -0.0919,-0.0525 0,-0.035 -0.0175,-0.0525 -0.0525,-0.0525 -0.0307,0 -0.0525,-0.0175 -0.0525,-0.0422 0,-0.0257 -0.0146,-0.0366 -0.0373,-0.0279 -0.0205,0.008 -0.0684,-0.0145 -0.10641,-0.0497 -0.038,-0.0353 -0.0803,-0.0641 -0.094,-0.0641 -0.0137,0 -0.023,-0.009 -0.0207,-0.0197 0.009,-0.0432 -0.0583,-0.16629 -0.083,-0.15106 -0.0145,0.009 -0.0263,-0.009 -0.0263,-0.0402 0,-0.0345 -0.0205,-0.0619 -0.0525,-0.0703 -0.0291,-0.008 -0.0525,-0.0358 -0.0525,-0.0632 0,-0.0272 -0.0172,-0.0495 -0.0382,-0.0495 -0.0229,0 -0.0451,-0.0369 -0.0555,-0.0919 -0.01,-0.0526 -0.0328,-0.0919 -0.0537,-0.0919 -0.0262,0 -0.0365,-0.0364 -0.0365,-0.12827 0,-0.10617 -0.009,-0.13062 -0.0525,-0.14199 -0.0463,-0.0121 -0.0525,-0.0358 -0.0525,-0.20006 0,-0.14811 -0.008,-0.18632 -0.0394,-0.18632 -0.0334,0 -0.0394,-0.0642 -0.0394,-0.42025 0,-0.35604 0.006,-0.42024 0.0394,-0.42024 0.0313,0 0.0394,-0.0382 0.0394,-0.18631 0,-0.16423 0.006,-0.18795 0.0525,-0.20006 0.0435,-0.0114 0.0525,-0.0358 0.0525,-0.142 0,-0.0919 0.0103,-0.12827 0.0365,-0.12827 0.0209,0 0.0438,-0.0392 0.0537,-0.0919 0.0103,-0.055 0.0326,-0.0919 0.0555,-0.0919 0.021,0 0.0382,-0.024 0.0382,-0.0534 0,-0.0293 0.017,-0.0599 0.0378,-0.0679 0.0208,-0.008 0.0454,-0.049 0.0546,-0.0911 0.009,-0.0421 0.0336,-0.0766 0.0541,-0.0766 0.0205,0 0.0373,-0.0236 0.0373,-0.0525 0,-0.035 0.0175,-0.0525 0.0525,-0.0525 0.035,0 0.0525,-0.0175 0.0525,-0.0525 0,-0.035 0.0175,-0.0525 0.0525,-0.0525 0.0292,0 0.0525,-0.0175 0.0525,-0.0394 0,-0.0217 0.0118,-0.0394 0.0263,-0.0394 0.0144,0 0.0499,-0.0236 0.0788,-0.0525 0.0289,-0.0289 0.0762,-0.0525 0.10506,-0.0525 0.0289,0 0.0525,-0.0163 0.0525,-0.0361 0,-0.036 0.10821,-0.0689 0.22654,-0.0689 0.0379,0 0.0624,-0.0154 0.0624,-0.0394 0,-0.0332 0.0598,-0.0394 0.38085,-0.0394 0.32102,0 0.38084,0.006 0.38084,0.0394 0,0.024 0.0244,0.0394 0.0624,0.0394 0.11833,0 0.22654,0.033 0.22654,0.0689 0,0.0199 0.0227,0.0361 0.0504,0.0361 0.0783,0 0.13348,0.0283 0.13348,0.0685 0,0.0202 0.0236,0.0366 0.0525,0.0366 0.0292,0 0.0525,0.0175 0.0525,0.0394 0,0.0217 0.0177,0.0394 0.0394,0.0394 0.0219,0 0.0394,0.0234 0.0394,0.0525 0,0.035 0.0175,0.0525 0.0525,0.0525 0.0292,0 0.0525,0.0175 0.0525,0.0394 0,0.0217 0.0188,0.0394 0.0419,0.0394 0.023,0 0.048,0.0236 0.0556,0.0525 0.008,0.0289 0.0301,0.0525 0.0501,0.0525 0.024,0 0.0363,0.0312 0.0363,0.0919 0,0.065 0.0118,0.0919 0.0402,0.0919 0.0221,0 0.0479,0.0207 0.0572,0.0459 0.009,0.0253 0.0296,0.0546 0.0452,0.0653 0.0189,0.013 0.0174,0.0194 -0.005,0.0197 -0.0181,2e-4 -0.0328,0.0122 -0.0328,0.0267 0,0.0144 0.0177,0.0263 0.0394,0.0263 0.0242,0 0.0394,0.0246 0.0394,0.0635 0,0.0907 0.0261,0.14661 0.0685,0.14661 0.0264,0 0.0366,0.0366 0.0366,0.13133 0,0.0933 0.0104,0.13133 0.0357,0.13133 0.0374,0 0.0687,0.17507 0.0691,0.38741 2e-4,0.0816 0.0108,0.11163 0.0396,0.11163 0.0321,0 0.0394,0.0441 0.0394,0.2392 0,0.20183 -0.006,0.23684 -0.0394,0.22408 -0.0322,-0.0123 -0.0394,0.0124 -0.0396,0.13508 -4e-4,0.24792 -0.0293,0.42599 -0.0691,0.42599 -0.0234,0 -0.0357,0.032 -0.0357,0.0928 0,0.0574 -0.0147,0.0984 -0.0387,0.1076 -0.0213,0.008 -0.0462,0.0551 -0.0555,0.10423 -0.01,0.0507 -0.0326,0.0894 -0.0533,0.0894 -0.0201,0 -0.0365,0.0151 -0.0365,0.0335 0,0.0184 -0.0236,0.0538 -0.0525,0.0785 -0.0289,0.0247 -0.0525,0.0674 -0.0525,0.0947 0,0.0276 -0.0233,0.0558 -0.0525,0.0635 -0.0289,0.007 -0.0525,0.0326 -0.0525,0.0556 0,0.023 -0.0177,0.0419 -0.0394,0.0419 -0.0217,0 -0.0394,0.0188 -0.0394,0.0419 0,0.023 -0.0236,0.0481 -0.0525,0.0556 -0.0291,0.008 -0.0525,0.0358 -0.0525,0.0632 0,0.0272 -0.0118,0.0495 -0.0263,0.0495 -0.0145,0 -0.0263,0.0125 -0.0263,0.0278 0,0.0153 0.0118,0.0205 0.0263,0.0116 0.0149,-0.009 0.0263,0.0129 0.0263,0.051 0,0.0497 0.0137,0.0672 0.0525,0.0672 0.035,0 0.0525,0.0175 0.0525,0.0525 0,0.0292 0.0175,0.0525 0.0394,0.0525 0.0217,0 0.0394,0.0188 0.0394,0.0419 0,0.023 0.0236,0.0481 0.0525,0.0556 0.0366,0.01 0.0525,0.0358 0.0525,0.0864 0,0.0506 0.016,0.0769 0.0525,0.0864 0.0289,0.008 0.0525,0.0298 0.0525,0.0494 0,0.0196 0.0266,0.0477 0.0591,0.0625 0.0325,0.0148 0.0561,0.0412 0.0525,0.0587 -0.004,0.0191 0.0237,0.0319 0.0692,0.0319 0.0537,0 0.0797,0.0153 0.0895,0.0525 0.008,0.0289 0.0326,0.0525 0.0556,0.0525 0.023,0 0.0419,0.0177 0.0419,0.0394 0,0.0217 0.0223,0.0394 0.0495,0.0394 0.0276,0 0.0556,0.0236 0.0634,0.0533 0.008,0.0294 0.0238,0.0516 0.0359,0.0494 0.0672,-0.0118 0.14016,0.007 0.14016,0.0355 0,0.0182 0.0266,0.0452 0.0591,0.0601 0.0325,0.0148 0.0561,0.0412 0.0525,0.0587 -0.004,0.0209 0.0308,0.0318 0.10216,0.0318 0.0669,0 0.11995,0.0153 0.13789,0.0399 0.0162,0.0221 0.0906,0.0471 0.16706,0.0562 0.0908,0.0107 0.13789,0.0285 0.13789,0.052 0,0.0279 0.0608,0.0357 0.27661,0.0357 0.22165,0 0.27962,0.008 0.29173,0.0394 0.008,0.0216 0.0323,0.0394 0.0533,0.0394 0.021,0 0.032,-0.01 0.0245,-0.0221 -0.007,-0.0122 0.0568,-0.02 0.14291,-0.0175 0.0861,0.002 0.15658,-0.005 0.15658,-0.0173 0,-0.012 0.0236,-0.0219 0.0525,-0.0219 0.0324,0 0.0527,0.0176 0.0529,0.046 3e-4,0.0392 0.004,0.0402 0.0259,0.007 0.017,-0.0263 0.0256,-0.0284 0.0259,-0.007 2e-4,0.018 0.03,0.0328 0.0661,0.0328 0.0409,0 0.0657,-0.0149 0.0657,-0.0394 0,-0.0313 0.0379,-0.0394 0.18386,-0.0394 0.13849,0 0.18386,-0.009 0.18386,-0.0361 0,-0.0359 0.10814,-0.069 0.22571,-0.069 0.0439,0 0.0572,-0.0113 0.0464,-0.0394 -0.0111,-0.0288 0.003,-0.0394 0.0534,-0.0394 0.0424,0 0.0685,-0.0144 0.0685,-0.0382 0,-0.0228 0.0369,-0.0451 0.0919,-0.0554 0.0527,-0.01 0.0919,-0.0329 0.0919,-0.0537 0,-0.0201 0.0151,-0.0365 0.0336,-0.0365 0.0185,0 0.0538,-0.0237 0.0785,-0.0525 0.0247,-0.0289 0.07,-0.0526 0.10058,-0.0526 0.0385,0 0.051,-0.0121 0.0406,-0.0391 -0.0101,-0.0262 0.006,-0.0445 0.0497,-0.0554 0.0356,-0.009 0.0647,-0.0327 0.0647,-0.0528 0,-0.0201 0.0249,-0.0365 0.0554,-0.0365 0.0398,0 0.0508,-0.0118 0.0393,-0.0418 -0.0107,-0.0279 10e-4,-0.0464 0.0366,-0.0556 0.029,-0.007 0.0526,-0.0288 0.0526,-0.047 0,-0.0183 0.0236,-0.0395 0.0525,-0.047 0.0289,-0.007 0.0525,-0.0313 0.0525,-0.0528 0,-0.0215 0.0185,-0.0462 0.0411,-0.0548 0.0226,-0.009 0.0337,-0.0276 0.0247,-0.0422 -0.009,-0.0145 -0.004,-0.0264 0.0115,-0.0264 0.0153,0 0.0278,-0.0181 0.0278,-0.0402 0,-0.0221 0.0177,-0.047 0.0394,-0.0553 0.0217,-0.008 0.0394,-0.0375 0.0394,-0.0649 0,-0.0316 0.0185,-0.0497 0.0509,-0.0497 0.0382,0 0.0529,-0.0213 0.0591,-0.0854 0.005,-0.0469 0.0216,-0.0829 0.038,-0.0798 0.0164,0.003 0.0367,-0.0292 0.0452,-0.0717 0.0114,-0.0572 0.0264,-0.073 0.0576,-0.061 0.0271,0.0104 0.0403,0.003 0.037,-0.0202 -0.0125,-0.0894 0.004,-0.15459 0.0394,-0.15459 0.0229,0 0.0451,-0.0369 0.0555,-0.0919 0.01,-0.0526 0.0328,-0.0919 0.0537,-0.0919 0.0242,0 0.0365,-0.031 0.0365,-0.0919 0,-0.0625 0.0121,-0.0919 0.0378,-0.0919 0.0247,0 0.044,-0.0414 0.0557,-0.11949 0.01,-0.0657 0.0342,-0.1358 0.0541,-0.15572 0.0199,-0.0199 0.0362,-0.0725 0.0362,-0.11689 0,-0.0631 0.0114,-0.0807 0.0525,-0.0807 0.0467,0 0.0525,-0.0175 0.0525,-0.15677 0,-0.12856 0.007,-0.15405 0.0394,-0.14165 0.0318,0.0122 0.0394,-0.0104 0.0394,-0.11783 0,-0.13115 -10e-4,-0.13318 -0.0919,-0.15019 -0.0527,-0.01 -0.0919,-0.0328 -0.0919,-0.0537 0,-0.0232 -0.0294,-0.0365 -0.0813,-0.0365 -0.0592,0 -0.085,-0.0143 -0.095,-0.0525 -0.008,-0.0291 -0.0358,-0.0525 -0.0632,-0.0525 -0.0272,0 -0.0495,-0.0177 -0.0495,-0.0394 0,-0.0217 -0.0177,-0.0394 -0.0394,-0.0394 -0.0217,0 -0.063,-0.0236 -0.0919,-0.0525 -0.0289,-0.0289 -0.0703,-0.0525 -0.0919,-0.0525 -0.0217,0 -0.0394,-0.0188 -0.0394,-0.0419 0,-0.023 -0.0236,-0.0481 -0.0525,-0.0556 -0.0289,-0.008 -0.0525,-0.0301 -0.0525,-0.0501 0,-0.02 -0.0177,-0.0364 -0.0394,-0.0364 -0.0219,0 -0.0394,-0.0234 -0.0394,-0.0525 0,-0.035 -0.0175,-0.0525 -0.0525,-0.0525 -0.035,0 -0.0525,-0.0175 -0.0525,-0.0525 0,-0.0289 -0.0125,-0.0525 -0.0278,-0.0525 -0.0153,0 -0.0205,-0.0119 -0.0115,-0.0264 0.009,-0.0146 -0.002,-0.0335 -0.0247,-0.0422 -0.0226,-0.009 -0.0411,-0.0322 -0.0411,-0.0524 0,-0.0201 -0.0177,-0.0366 -0.0394,-0.0366 -0.0219,0 -0.0394,-0.0234 -0.0394,-0.0525 0,-0.035 -0.0175,-0.0525 -0.0525,-0.0525 -0.0428,0 -0.0525,-0.0175 -0.0525,-0.0947 0,-0.0731 -0.009,-0.0913 -0.0391,-0.0797 -0.0263,0.01 -0.0445,-0.007 -0.0554,-0.0497 -0.009,-0.0356 -0.0327,-0.0647 -0.0528,-0.0647 -0.0243,0 -0.0365,-0.0309 -0.0365,-0.0919 0,-0.0611 -0.0123,-0.0919 -0.0366,-0.0919 -0.0472,0 -0.0685,-0.0577 -0.0685,-0.18601 0,-0.074 -0.0111,-0.10291 -0.0394,-0.10291 -0.0275,0 -0.0394,-0.0277 -0.0394,-0.0919 0,-0.0608 -0.0123,-0.0919 -0.0363,-0.0919 -0.0462,0 -0.0679,-0.0814 -0.0684,-0.25609 -3e-4,-0.0986 -0.0105,-0.13789 -0.0361,-0.13789 -0.0518,0 -0.0689,-0.19469 -0.0689,-0.78796 -5e-5,-0.6339 0.0189,-0.86777 0.0688,-0.84862 0.0282,0.0108 0.0359,-0.0272 0.0362,-0.1795 4e-4,-0.18825 0.0207,-0.26602 0.0682,-0.26084 0.0128,10e-4 0.0269,-0.062 0.0312,-0.1409 0.006,-0.11264 0.016,-0.14031 0.046,-0.12882 0.0291,0.0112 0.0381,-0.008 0.0381,-0.0826 0,-0.0751 0.0119,-0.10032 0.0525,-0.11093 0.0395,-0.0103 0.0525,-0.0358 0.0525,-0.10261 0,-0.0583 0.0125,-0.0889 0.0365,-0.0889 0.0209,0 0.0438,-0.0392 0.0537,-0.0919 0.0103,-0.055 0.0326,-0.0919 0.0555,-0.0919 0.021,0 0.0382,-0.0236 0.0382,-0.0525 0,-0.0351 0.0175,-0.0525 0.0525,-0.0525 0.0383,0 0.0525,-0.0175 0.0525,-0.0649 0,-0.0469 0.0109,-0.0607 0.0394,-0.0497 0.0217,0.008 0.0394,0.003 0.0394,-0.0117 0,-0.0148 -0.0148,-0.0328 -0.0328,-0.0401 -0.0196,-0.008 -0.0143,-0.0141 0.0131,-0.0153 0.0253,-0.001 0.046,-0.0198 0.046,-0.0415 0,-0.0217 0.0177,-0.0394 0.0394,-0.0394 0.0219,0 0.0394,-0.0234 0.0394,-0.0525 0,-0.0351 0.0175,-0.0525 0.0525,-0.0525 0.035,0 0.0525,-0.0175 0.0525,-0.0525 0,-0.0291 0.0175,-0.0525 0.0394,-0.0525 0.0217,0 0.0394,-0.0177 0.0394,-0.0394 0,-0.0217 0.0223,-0.0394 0.0495,-0.0394 0.0274,0 0.0556,-0.0234 0.0632,-0.0525 0.01,-0.0383 0.0358,-0.0525 0.095,-0.0525 0.0638,0 0.0813,-0.0114 0.0813,-0.0525 0,-0.0289 0.009,-0.0511 0.0197,-0.0494 0.0778,0.0123 0.16416,-0.008 0.16416,-0.0396 0,-0.0209 0.0392,-0.0439 0.0916,-0.0536 0.0506,-0.01 0.0888,-0.0314 0.0854,-0.0489 -0.004,-0.0198 0.0357,-0.0347 0.10543,-0.0398 0.084,-0.006 0.11173,-0.0191 0.11203,-0.0525 3e-4,-0.0351 0.005,-0.037 0.0231,-0.009 0.0144,0.0228 0.0262,0.0254 0.0324,0.007 0.0255,-0.0747 1.09541,-0.058 1.08006,0.0168 -0.005,0.0219 0.0355,0.032 0.12559,0.032 0.0922,0 0.13664,0.0117 0.14699,0.0387 0.008,0.0213 0.0551,0.0462 0.10424,0.0555 0.0507,0.01 0.0894,0.0326 0.0894,0.0532 0,0.0201 0.0227,0.0365 0.0504,0.0365 0.0783,0 0.13348,0.0283 0.13348,0.0685 0,0.0202 0.0236,0.0366 0.0525,0.0366 0.0289,0 0.0525,0.0172 0.0525,0.0382 0,0.0228 0.0369,0.0451 0.0919,0.0555 0.0527,0.01 0.0919,0.0328 0.0919,0.0537 0,0.0201 0.0164,0.0365 0.0363,0.0365 0.02,0 0.0425,0.0236 0.0501,0.0525 0.008,0.0289 0.0326,0.0525 0.0556,0.0525 0.023,0 0.0419,0.0134 0.0419,0.0298 0,0.0351 0.12276,0.15404 0.15894,0.15404 0.0137,0 0.0249,0.0236 0.0249,0.0525 0,0.0295 0.0175,0.0525 0.04,0.0525 0.0235,0 0.0466,0.0326 0.0558,0.0788 0.009,0.0446 0.0325,0.0788 0.0543,0.0788 0.0212,0 0.0447,0.0236 0.0523,0.0525 0.008,0.0289 0.0301,0.0525 0.0501,0.0525 0.0238,0 0.0363,0.0307 0.0363,0.0889 0,0.0668 0.0131,0.0923 0.0525,0.10261 0.0406,0.0106 0.0525,0.0358 0.0525,0.11094 0,0.072 0.009,0.0936 0.0364,0.0832 0.0258,-0.01 0.0412,0.0161 0.0528,0.0891 0.0106,0.0664 0.0304,0.10307 0.0556,0.10307 0.0272,0 0.0391,0.028 0.0391,0.0919 0,0.0605 0.0124,0.0919 0.0361,0.0919 0.036,0 0.0689,0.10821 0.0689,0.22654 0,0.0379 0.0154,0.0624 0.0394,0.0624 0.0313,0 0.0394,0.0379 0.0394,0.18386 0,0.13849 0.009,0.18386 0.0361,0.18386 0.059,0 0.069,0.12781 0.0686,0.87661 -4e-4,0.74063 -0.008,0.83064 -0.0684,0.83064 -0.0267,0 -0.0371,0.0434 -0.0394,0.16416 -0.002,0.0903 -0.002,0.17302 0,0.18386 0.002,0.0108 -0.0136,0.0197 -0.034,0.0197 -0.0228,0 -0.0439,0.0405 -0.0548,0.10506 -0.0109,0.0646 -0.032,0.10507 -0.0548,0.10507 -0.0249,0 -0.0371,0.0303 -0.0371,0.0919 0,0.0726 -0.0104,0.0919 -0.0496,0.0919 -0.0273,0 -0.0491,0.0148 -0.0484,0.0328 0.004,0.0996 -0.0111,0.15102 -0.0435,0.15102 -0.0209,0 -0.0438,0.0393 -0.0537,0.0919 -0.0103,0.055 -0.0326,0.0919 -0.0555,0.0919 -0.021,0 -0.0382,0.0236 -0.0382,0.0525 0,0.0292 -0.0175,0.0525 -0.0394,0.0525 -0.0217,0 -0.0394,0.0188 -0.0394,0.0419 0,0.023 -0.0236,0.0481 -0.0525,0.0556 -0.0292,0.008 -0.0525,0.0358 -0.0525,0.0635 0,0.0274 -0.0236,0.07 -0.0525,0.0947 -0.0289,0.0247 -0.0525,0.0601 -0.0525,0.0785 0,0.0184 -0.0177,0.0335 -0.0394,0.0335 -0.0219,0 -0.0394,0.0234 -0.0394,0.0525 0,0.0351 -0.0175,0.0525 -0.0525,0.0525 -0.0289,0 -0.0525,0.0163 -0.0525,0.0363 0,0.02 -0.0236,0.0425 -0.0525,0.0501 -0.0289,0.008 -0.0525,0.0312 -0.0525,0.0525 0,0.0347 -0.0869,0.0814 -0.13789,0.074 -0.0108,-10e-4 -0.0197,0.0149 -0.0197,0.0366 0,0.0219 -0.0233,0.0394 -0.0525,0.0394 -0.0306,0 -0.0525,0.0175 -0.0525,0.0419 0,0.023 -0.0236,0.0481 -0.0525,0.0556 -0.0289,0.008 -0.0525,0.0301 -0.0525,0.0501 0,0.02 0.0236,0.0364 0.0525,0.0364 0.0425,0 0.0525,0.0175 0.0525,0.0919 0,0.0642 0.0119,0.0919 0.0394,0.0919 0.0269,0 0.0395,0.0272 0.0398,0.0854 4.9e-4,0.12477 0.027,0.20355 0.0684,0.20355 0.024,0 0.0363,0.0312 0.0363,0.0919 0,0.0642 0.0119,0.0919 0.0394,0.0919 0.0346,0 0.056,0.0855 0.0418,0.16642 -0.002,0.0121 0.0201,0.0282 0.0494,0.0359 0.0403,0.0106 0.0533,0.0356 0.0533,0.10281 0,0.0603 0.0123,0.0889 0.0382,0.0889 0.0229,0 0.0451,0.0369 0.0554,0.0919 0.01,0.0506 0.0324,0.0919 0.0508,0.0919 0.0185,0 0.0413,0.0414 0.0508,0.0919 0.0103,0.055 0.0326,0.0919 0.0555,0.0919 0.021,0 0.0382,0.0236 0.0382,0.0525 0,0.0289 0.016,0.0525 0.0356,0.0525 0.0196,0 0.0462,0.0364 0.0591,0.0808 0.0129,0.0444 0.0353,0.0792 0.0498,0.0772 0.0145,-0.002 0.0332,0.0238 0.0417,0.0571 0.009,0.0333 0.0292,0.0577 0.046,0.0541 0.0168,-0.004 0.0305,0.0157 0.0305,0.0429 0,0.0272 0.0224,0.0553 0.0497,0.0625 0.0294,0.008 0.0571,0.0465 0.0677,0.095 0.01,0.0451 0.0348,0.082 0.0553,0.082 0.0205,0 0.0373,0.0163 0.0373,0.0364 0,0.02 0.0236,0.0426 0.0525,0.0501 0.0289,0.007 0.0525,0.0316 0.0525,0.0535 0,0.0228 0.0336,0.0471 0.0788,0.0571 0.0433,0.009 0.0788,0.0341 0.0788,0.0546 0,0.0206 0.0236,0.0373 0.0525,0.0373 0.035,0 0.0525,0.0175 0.0525,0.0525 0,0.035 0.0175,0.0525 0.0525,0.0525 0.0292,0 0.0525,0.0175 0.0525,0.0394 0,0.022 0.0233,0.0394 0.0525,0.0394 0.0289,0 0.0525,0.0168 0.0525,0.0373 0,0.0206 0.0355,0.0451 0.0788,0.0546 0.0433,0.01 0.0788,0.0342 0.0788,0.0547 0,0.0206 0.0228,0.0373 0.0508,0.0373 0.0279,0 0.0583,0.0237 0.0674,0.0525 0.0124,0.0391 0.0397,0.0525 0.10683,0.0525 0.0626,0 0.0902,0.012 0.0902,0.0394 0,0.0217 0.009,0.0401 0.0197,0.041 0.16753,0.0139 0.25962,0.0349 0.27518,0.0625 0.013,0.0232 0.12023,0.0401 0.33488,0.0529 0.17369,0.0104 0.31579,0.0296 0.31579,0.0428 0,0.0132 0.065,0.0239 0.14446,0.0239 0.0795,0 0.14446,-0.009 0.14446,-0.0206 0,-0.0221 0.0633,-0.0281 0.50559,-0.0485 0.24628,-0.0113 0.28587,-0.0196 0.30999,-0.0647 0.0152,-0.0284 0.0418,-0.0499 0.0591,-0.0478 0.0881,0.011 0.14966,-0.005 0.14966,-0.0417 0,-0.0275 0.0277,-0.0394 0.0919,-0.0394 0.0744,0 0.0919,-0.01 0.0919,-0.0525 0,-0.035 0.0175,-0.0525 0.0525,-0.0525 0.0289,0 0.0525,-0.0168 0.0525,-0.0373 0,-0.0206 0.0355,-0.0451 0.0788,-0.0547 0.0433,-0.01 0.0788,-0.0341 0.0788,-0.0546 0,-0.0206 0.0223,-0.0373 0.0495,-0.0373 0.0274,0 0.0556,-0.0235 0.0632,-0.0526 0.008,-0.0289 0.0326,-0.0525 0.0556,-0.0525 0.023,0 0.0419,-0.0164 0.0419,-0.0364 0,-0.0199 0.0248,-0.0428 0.0552,-0.0507 0.0326,-0.008 0.0476,-0.0266 0.0367,-0.0443 -0.0109,-0.0176 0.004,-0.0357 0.0368,-0.0443 0.0303,-0.008 0.0552,-0.0294 0.0552,-0.0477 0,-0.0183 0.0236,-0.0395 0.0525,-0.047 0.0289,-0.008 0.0525,-0.0326 0.0525,-0.0556 0,-0.023 0.0164,-0.0419 0.0363,-0.0419 0.02,0 0.0425,-0.0237 0.0501,-0.0525 0.008,-0.0289 0.0331,-0.0525 0.0567,-0.0525 0.0236,0 0.0411,-0.0147 0.0387,-0.0328 -0.0106,-0.0812 0.006,-0.11968 0.0571,-0.13306 0.0326,-0.008 0.0476,-0.0267 0.0367,-0.0443 -0.0109,-0.0176 0.004,-0.0357 0.0368,-0.0442 0.0772,-0.0202 0.0793,-0.17971 0.003,-0.19977 -0.0289,-0.007 -0.0525,-0.0326 -0.0525,-0.0556 0,-0.023 -0.0177,-0.0419 -0.0394,-0.0419 -0.0217,0 -0.0394,-0.0163 -0.0394,-0.0364 0,-0.02 -0.0236,-0.0425 -0.0525,-0.0501 -0.0289,-0.008 -0.0525,-0.0326 -0.0525,-0.0556 0,-0.023 -0.0177,-0.0419 -0.0394,-0.0419 -0.0217,0 -0.0394,-0.0222 -0.0394,-0.0494 0,-0.0274 -0.0235,-0.0556 -0.0525,-0.0632 -0.0382,-0.01 -0.0525,-0.0358 -0.0525,-0.095 0,-0.0544 -0.0129,-0.0813 -0.0391,-0.0813 -0.0254,0 -0.0451,-0.0374 -0.0561,-0.10649 -0.012,-0.0749 -0.0276,-0.10242 -0.0528,-0.0928 -0.0276,0.0106 -0.0358,-0.0194 -0.0358,-0.12989 0,-0.10436 -0.01,-0.14364 -0.0361,-0.14364 -0.04,0 -0.069,-0.11094 -0.069,-0.26439 0,-0.10072 -0.0365,-0.15845 -0.0613,-0.0969 -0.007,0.0181 -0.0142,-0.15316 -0.0154,-0.38068 -0.002,-0.3251 0.005,-0.41368 0.0324,-0.41368 0.0229,0 0.0362,-0.0418 0.0396,-0.12476 0.009,-0.21398 0.0331,-0.32176 0.0727,-0.32176 0.0258,0 0.0371,-0.0321 0.0371,-0.10506 0,-0.0759 0.0109,-0.10506 0.0394,-0.10506 0.0369,0 0.0518,-0.0461 0.0409,-0.12679 -0.003,-0.0192 0.0196,-0.0412 0.0494,-0.049 0.0412,-0.0108 0.0541,-0.0354 0.0541,-0.10303 0,-0.0714 0.0104,-0.0889 0.0525,-0.0889 0.035,0 0.0525,-0.0175 0.0525,-0.0525 0,-0.0292 0.0175,-0.0525 0.0394,-0.0525 0.0217,0 0.0394,-0.0177 0.0394,-0.0394 0,-0.0219 0.0233,-0.0394 0.0525,-0.0394 0.035,0 0.0525,-0.0175 0.0525,-0.0525 0,-0.0292 0.0175,-0.0525 0.0394,-0.0525 0.0217,0 0.0394,-0.0177 0.0394,-0.0394 0,-0.0217 0.0223,-0.0394 0.0495,-0.0394 0.0274,0 0.0556,-0.0234 0.0632,-0.0525 0.01,-0.0383 0.0358,-0.0525 0.095,-0.0525 0.0525,0 0.0813,-0.0131 0.0813,-0.0371 0,-0.0228 0.0405,-0.0439 0.10506,-0.0548 0.0646,-0.0109 0.10506,-0.032 0.10506,-0.0548 0,-0.0304 0.0758,-0.0371 0.42025,-0.0371 0.35604,0 0.42025,0.006 0.42025,0.0394 0,0.0275 0.0277,0.0394 0.0919,0.0394 0.0569,0 0.11194,0.02 0.14446,0.0525 0.0289,0.0289 0.0714,0.0525 0.0944,0.0525 0.023,0 0.048,0.0236 0.0556,0.0525 0.008,0.0298 0.0358,0.0525 0.0648,0.0525 0.0295,0 0.0437,0.0118 0.0337,0.028 -0.01,0.0154 0.006,0.0343 0.0354,0.0418 0.029,0.008 0.0589,0.0376 0.0665,0.0665 0.008,0.0309 0.0261,0.0451 0.0436,0.0343 0.0176,-0.0109 0.0357,0.004 0.0442,0.0368 0.008,0.0303 0.0308,0.0551 0.0508,0.0551 0.02,0 0.0363,0.0236 0.0363,0.0525 0,0.0351 0.0175,0.0525 0.0525,0.0525 0.035,0 0.0525,0.0175 0.0525,0.0525 0,0.0291 0.0175,0.0525 0.0394,0.0525 0.0275,0 0.0394,0.0277 0.0394,0.0919 0,0.0734 0.0102,0.0919 0.0509,0.0919 0.0382,0 0.0529,0.0213 0.0591,0.0854 0.004,0.0469 0.0216,0.0829 0.0379,0.0799 0.0163,-0.003 0.0371,0.0413 0.0463,0.0985 0.0107,0.0671 0.0305,0.104 0.0557,0.104 0.0287,0 0.0399,0.0332 0.0422,0.12476 0.002,0.0686 0.002,0.13363 0,0.14446 -0.002,0.0108 0.0129,0.0197 0.0324,0.0197 0.0415,0 0.0693,0.28 0.0692,0.69604 0,0.34823 -0.024,0.53844 -0.0676,0.53844 -0.0229,0 -0.037,0.0459 -0.0423,0.13789 -0.005,0.0931 -0.0186,0.13576 -0.0408,0.13133 -0.0181,-0.004 -0.0343,0.005 -0.0361,0.0197 -0.002,0.0144 -0.006,0.0381 -0.01,0.0525 -0.004,0.0144 -0.008,0.0499 -0.01,0.0788 -0.002,0.0289 -0.021,0.0525 -0.0427,0.0525 -0.0358,0 -0.0529,0.0622 -0.0414,0.15102 0.002,0.0181 -0.0199,0.0328 -0.0494,0.0328 -0.0435,0 -0.0537,0.0169 -0.0537,0.0889 0,0.0668 -0.0131,0.0923 -0.0525,0.1026 -0.0289,0.008 -0.0525,0.0326 -0.0525,0.0556 0,0.023 -0.0177,0.0419 -0.0394,0.0419 -0.0217,0 -0.0394,0.0188 -0.0394,0.0419 0,0.023 -0.0236,0.0481 -0.0525,0.0556 -0.0289,0.008 -0.0525,0.0288 -0.0525,0.0472 0,0.0305 -0.11681,0.0801 -0.16416,0.0697 -0.0108,-0.003 -0.0197,0.0135 -0.0197,0.0351 0,0.0219 -0.0233,0.0394 -0.0525,0.0394 -0.0289,0 -0.0525,0.0172 -0.0525,0.0382 0,0.0228 -0.0369,0.0451 -0.0919,0.0555 -0.0506,0.01 -0.0919,0.033 -0.0919,0.0523 0,0.0232 -0.0423,0.0378 -0.12476,0.0431 -0.0898,0.006 -0.12476,0.019 -0.12476,0.0474 0,0.0217 -0.0266,0.0432 -0.0591,0.0478 -0.0492,0.007 -0.059,0.0247 -0.0587,0.10507 3e-4,0.0629 0.008,0.0844 0.0226,0.0617 0.0311,-0.0491 0.0462,-0.002 0.0694,0.21431 0.0131,0.12272 0.0297,0.17532 0.0551,0.17532 0.0277,0 0.0363,0.0467 0.0363,0.19699 0,0.15021 0.009,0.197 0.0363,0.197 0.0396,0 0.0678,0.0778 0.0684,0.18886 3.9e-4,0.0769 0.0403,0.12047 0.0617,0.0674 0.007,-0.0181 0.0144,0.0202 0.0158,0.0852 0.003,0.13643 0.0206,0.17268 0.0936,0.1909 0.0388,0.01 0.0327,0.0139 -0.023,0.0162 -0.0707,0.002 -0.0744,0.008 -0.0586,0.0876 0.009,0.0466 0.0344,0.0944 0.0558,0.10636 0.0226,0.0127 0.0389,0.0597 0.0389,0.11239 0,0.0618 0.0122,0.0906 0.0382,0.0906 0.0229,0 0.0451,0.0369 0.0555,0.0919 0.01,0.0526 0.0328,0.0919 0.0537,0.0919 0.0242,0 0.0365,0.031 0.0365,0.0919 0,0.0744 0.01,0.0919 0.0525,0.0919 0.0428,0 0.0525,0.0175 0.0525,0.0947 0,0.0719 0.009,0.0912 0.038,0.0801 0.0227,-0.009 0.0443,0.005 0.0535,0.0342 0.009,0.0269 0.0328,0.0554 0.0539,0.0635 0.0211,0.008 0.0384,0.0315 0.0384,0.052 0,0.0219 0.0381,0.0445 0.0919,0.0546 0.055,0.0103 0.0919,0.0326 0.0919,0.0554 0,0.0261 0.029,0.0382 0.0919,0.0382 0.0597,0 0.0919,0.0124 0.0919,0.0355 0,0.0466 0.33227,0.0732 0.64041,0.0515 0.16475,-0.0116 0.22634,-0.0256 0.22634,-0.0515 0,-0.0255 0.0406,-0.0355 0.14446,-0.0355 0.10549,0 0.14446,-0.01 0.14446,-0.0364 0,-0.0399 0.078,-0.0678 0.19043,-0.0684 0.0439,-2e-4 0.0722,-0.0147 0.0722,-0.0368 0,-0.0207 0.0387,-0.0437 0.0894,-0.0532 0.0492,-0.009 0.0961,-0.0342 0.10424,-0.0554 0.009,-0.0223 0.0486,-0.0386 0.0945,-0.0386 0.0533,0 0.0796,-0.0131 0.0796,-0.0394 0,-0.0224 0.0236,-0.0394 0.055,-0.0394 0.0324,0 0.0605,-0.021 0.0683,-0.0511 0.009,-0.0344 0.0404,-0.0537 0.096,-0.059 0.0455,-0.004 0.0787,-0.0185 0.0739,-0.0314 -0.0123,-0.0325 0.0499,-0.0677 0.12044,-0.0682 0.0348,-2e-4 0.0591,-0.0166 0.0591,-0.0397 0,-0.0217 0.0223,-0.0395 0.0495,-0.0395 0.0274,0 0.0556,-0.0235 0.0632,-0.0525 0.01,-0.0383 0.0358,-0.0525 0.095,-0.0525 0.0568,0 0.0813,-0.0126 0.0813,-0.0419 0,-0.0231 0.0236,-0.0481 0.0525,-0.0555 0.0289,-0.008 0.0525,-0.0301 0.0525,-0.0501 0,-0.02 0.0236,-0.0363 0.0525,-0.0363 0.0289,0 0.0525,-0.0163 0.0525,-0.0363 0,-0.02 0.0236,-0.0425 0.0525,-0.0501 0.0289,-0.007 0.0525,-0.0316 0.0525,-0.0536 0,-0.0228 0.0335,-0.0471 0.0788,-0.0572 0.0433,-0.01 0.0788,-0.0341 0.0788,-0.0547 0,-0.0206 0.0236,-0.0373 0.0525,-0.0373 0.035,0 0.0525,-0.0175 0.0525,-0.0525 0,-0.0293 0.0175,-0.0525 0.0394,-0.0525 0.0217,0 0.0394,-0.0177 0.0394,-0.0394 0,-0.0216 0.0223,-0.0394 0.0495,-0.0394 0.0274,0 0.0556,-0.0235 0.0632,-0.0525 0.008,-0.0289 0.0326,-0.0525 0.0556,-0.0525 0.023,0 0.0419,-0.0177 0.0419,-0.0394 0,-0.0216 0.0164,-0.0393 0.0363,-0.0393 0.02,0 0.0425,-0.0237 0.0501,-0.0525 0.008,-0.0289 0.0326,-0.0525 0.0556,-0.0525 0.023,0 0.0419,-0.0177 0.0419,-0.0394 0,-0.0216 0.0188,-0.0393 0.0419,-0.0393 0.023,0 0.048,-0.0237 0.0556,-0.0525 0.008,-0.0289 0.0287,-0.0525 0.047,-0.0525 0.0183,0 0.0394,-0.0237 0.047,-0.0525 0.008,-0.0289 0.0326,-0.0525 0.0556,-0.0525 0.023,0 0.0419,-0.0177 0.0419,-0.0393 0,-0.0217 0.0177,-0.0394 0.0394,-0.0394 0.0219,0 0.0394,-0.0234 0.0394,-0.0525 0,-0.035 0.0175,-0.0525 0.0525,-0.0525 0.035,0 0.0525,-0.0175 0.0525,-0.0526 0,-0.0292 0.0175,-0.0525 0.0394,-0.0525 0.0217,0 0.0394,-0.0177 0.0394,-0.0394 0,-0.0219 0.0233,-0.0394 0.0525,-0.0394 0.035,0 0.0525,-0.0175 0.0525,-0.0525 0,-0.0347 0.0175,-0.0525 0.0517,-0.0525 0.0361,0 0.0469,-0.0124 0.036,-0.041 -0.0104,-0.0272 0.003,-0.0458 0.0387,-0.0552 0.0332,-0.009 0.061,-0.044 0.0712,-0.0904 0.009,-0.0419 0.0289,-0.0761 0.0437,-0.0761 0.0149,0 0.0202,0.0177 0.0119,0.0394 -0.008,0.0217 -0.004,0.0394 0.0103,0.0394 0.014,0 0.0254,-0.0414 0.0254,-0.0919 0,-0.0744 0.01,-0.0919 0.0525,-0.0919 0.0292,0 0.0525,-0.0175 0.0525,-0.0394 0,-0.0217 0.0177,-0.0394 0.0394,-0.0394 0.0219,0 0.0394,-0.0234 0.0394,-0.0525 0,-0.035 0.0175,-0.0525 0.0525,-0.0525 0.035,0 0.0525,-0.0175 0.0525,-0.0525 0,-0.0292 0.0175,-0.0525 0.0394,-0.0525 0.0219,0 0.0394,-0.0234 0.0394,-0.0525 0,-0.035 0.0175,-0.0525 0.0525,-0.0525 0.0473,0 0.0525,-0.0175 0.0525,-0.1744 0,-0.12961 -0.0108,-0.18229 -0.0421,-0.20515 -0.0236,-0.0173 -0.0482,-0.0849 -0.0559,-0.15392 -0.009,-0.08 -0.0265,-0.12316 -0.0499,-0.12316 -0.0254,0 -0.0361,-0.0368 -0.0363,-0.12477 -5e-4,-0.16214 -0.0232,-0.24295 -0.0684,-0.24295 -0.0296,0 -0.0363,-0.0878 -0.0363,-0.47278 0,-0.38364 0.007,-0.47278 0.0361,-0.47278 0.0413,0 0.069,-0.11186 0.069,-0.27907 0,-0.0798 0.011,-0.11491 0.036,-0.11491 0.0235,0 0.0427,-0.048 0.0553,-0.13789 0.0147,-0.1048 0.0242,-0.12529 0.0396,-0.0854 0.017,0.0439 0.0235,0.0364 0.0395,-0.046 0.0106,-0.0541 0.0343,-0.0985 0.0528,-0.0985 0.0306,0 0.0803,-0.1167 0.0699,-0.16416 -0.002,-0.0108 0.012,-0.0197 0.032,-0.0197 0.02,0 0.0425,-0.0236 0.0501,-0.0525 0.008,-0.0289 0.0326,-0.0525 0.0556,-0.0525 0.023,0 0.0419,-0.0177 0.0419,-0.0394 0,-0.0217 0.0163,-0.0394 0.0363,-0.0394 0.02,0 0.0425,-0.0236 0.0501,-0.0525 0.008,-0.0289 0.0326,-0.0525 0.0556,-0.0525 0.023,0 0.0419,-0.0164 0.0419,-0.0365 0,-0.0209 0.0393,-0.0438 0.0919,-0.0537 0.055,-0.0103 0.0919,-0.0326 0.0919,-0.0555 0,-0.021 0.0194,-0.0382 0.0431,-0.0382 0.0237,0 0.0569,-0.0189 0.0738,-0.0421 0.0172,-0.0236 0.0849,-0.0482 0.15392,-0.0559 0.08,-0.009 0.12316,-0.0264 0.12316,-0.0499 0,-0.0285 0.0658,-0.036 0.31519,-0.036 0.26265,0 0.31518,0.007 0.31518,0.0394 0,0.0284 0.0292,0.0394 0.10506,0.0394 0.0876,0 0.10507,0.009 0.10507,0.0525 0,0.0425 0.0175,0.0525 0.0919,0.0525 0.0609,0 0.0919,0.0123 0.0919,0.0365 0,0.0209 0.0393,0.0439 0.0919,0.0537 0.055,0.0103 0.0919,0.0326 0.0919,0.0555 0,0.021 0.0236,0.0382 0.0525,0.0382 0.035,0 0.0525,0.0175 0.0525,0.0525 0,0.035 0.0175,0.0525 0.0525,0.0525 0.0292,0 0.0525,0.0175 0.0525,0.0394 0,0.0217 0.0177,0.0394 0.0394,0.0394 0.0219,0 0.0394,0.0234 0.0394,0.0525 0,0.035 0.0175,0.0525 0.0525,0.0525 0.035,0 0.0525,0.0175 0.0525,0.0525 0,0.0289 0.0172,0.0525 0.0382,0.0525 0.0229,0 0.0451,0.0369 0.0555,0.0919 0.01,0.0526 0.0328,0.0919 0.0537,0.0919 0.0242,0 0.0365,0.031 0.0365,0.0919 0,0.0744 0.01,0.0919 0.0525,0.0919 0.0425,0 0.0525,0.0175 0.0525,0.0919 0,0.0642 0.0119,0.0919 0.0394,0.0919 0.0277,0 0.04,0.0293 0.0414,0.0985 0.003,0.14253 0.0163,0.19552 0.0553,0.21963 0.0536,0.033 0.066,1.20527 0.0128,1.20527 -0.0427,0 -0.0692,0.0775 -0.0698,0.20356 -3e-4,0.0522 -0.0136,0.0854 -0.0344,0.0854 -0.0296,0 -0.0441,0.0642 -0.052,0.22982 -9.5e-4,0.018 -0.0232,0.0328 -0.0497,0.0328 -0.0388,0 -0.0482,0.0207 -0.0482,0.10661 0,0.0645 -0.0104,0.10019 -0.0263,0.0904 -0.0145,-0.009 -0.0377,0.0138 -0.0517,0.0505 -0.0158,0.0416 -0.0394,0.0614 -0.0624,0.0525 -0.026,-0.01 -0.0423,0.0136 -0.0546,0.0793 -0.0106,0.0562 -0.0328,0.0935 -0.0558,0.0935 -0.021,0 -0.0382,0.0236 -0.0382,0.0525 0,0.035 -0.0175,0.0525 -0.0525,0.0525 -0.0289,0 -0.0525,0.0168 -0.0525,0.0373 0,0.0206 -0.0355,0.0451 -0.0788,0.0546 -0.0433,0.01 -0.0788,0.0328 -0.0788,0.0517 0,0.0189 -0.0402,0.0419 -0.0894,0.0512 -0.0492,0.009 -0.0961,0.0342 -0.10424,0.0555 -0.0106,0.0276 -0.0564,0.0386 -0.16013,0.0386 -0.11163,0 -0.14529,0.009 -0.14529,0.0394 0,0.0272 -0.0304,0.0408 -0.0985,0.0438 -0.0542,0.002 -0.12804,0.007 -0.16415,0.009 -0.0361,0.002 -0.13363,0.007 -0.21669,0.009 -0.11478,0.003 -0.15103,0.0138 -0.15103,0.0438 0,0.0219 -0.0234,0.0394 -0.0525,0.0394 -0.0478,0 -0.0708,0.068 -0.0556,0.16415 0.002,0.0108 -0.0205,0.0197 -0.0494,0.0197 -0.035,0 -0.0525,0.0175 -0.0525,0.0525 0,0.0289 -0.0164,0.0526 -0.0365,0.0526 -0.0209,0 -0.0438,0.0392 -0.0537,0.0919 -0.0103,0.055 -0.0326,0.0919 -0.0555,0.0919 -0.021,0 -0.0382,0.0237 -0.0382,0.0525 0,0.0289 -0.0168,0.0525 -0.0374,0.0525 -0.0206,0 -0.0519,0.0442 -0.0697,0.0981 -0.028,0.0848 -0.0351,0.091 -0.0527,0.046 -0.0183,-0.0468 -0.0206,-0.0454 -0.0226,0.0135 -0.003,0.085 -0.0402,0.14293 -0.0773,0.12001 -0.0178,-0.011 -0.0292,0.003 -0.0292,0.036 0,0.0297 -0.0164,0.0541 -0.0365,0.0541 -0.0209,0 -0.0438,0.0392 -0.0537,0.0919 -0.0103,0.055 -0.0326,0.0919 -0.0555,0.0919 -0.021,0 -0.0382,0.0237 -0.0382,0.0525 0,0.0289 -0.0172,0.0525 -0.0382,0.0525 -0.0229,0 -0.0451,0.0369 -0.0554,0.0919 -0.01,0.0506 -0.0324,0.0919 -0.0508,0.0919 -0.0185,0 -0.0413,0.0414 -0.0508,0.0919 -0.0103,0.055 -0.0326,0.0919 -0.0555,0.0919 -0.0231,0 -0.0382,0.0256 -0.0382,0.0649 0,0.0443 -0.0115,0.0605 -0.0362,0.051 -0.0249,-0.01 -0.0416,0.0152 -0.0537,0.0796 -0.0106,0.0563 -0.0328,0.0935 -0.0557,0.0935 -0.0262,0 -0.0382,0.0291 -0.0382,0.0928 0,0.0574 -0.0147,0.0984 -0.0387,0.1076 -0.0213,0.008 -0.0462,0.0551 -0.0555,0.10423 -0.01,0.0507 -0.0326,0.0894 -0.0532,0.0894 -0.0233,0 -0.0365,0.0294 -0.0365,0.0813 0,0.0591 -0.0143,0.085 -0.0525,0.095 -0.0395,0.0103 -0.0525,0.0359 -0.0525,0.10262 0,0.0583 -0.0125,0.0889 -0.0365,0.0889 -0.0209,0 -0.0438,0.0392 -0.0537,0.0919 -0.0103,0.055 -0.0326,0.0919 -0.0555,0.0919 -0.0269,0 -0.0382,0.0304 -0.0382,0.10292 0,0.12832 -0.0212,0.186 -0.0685,0.186 -0.0243,0 -0.0366,0.0308 -0.0366,0.0919 0,0.0642 -0.0119,0.0919 -0.0394,0.0919 -0.0275,0 -0.0394,0.0277 -0.0394,0.0919 0,0.0835 -0.0196,0.10541 -0.0854,0.095 -0.0108,-0.002 -0.0197,0.0619 -0.0197,0.14135 0,0.10548 -0.01,0.14446 -0.0363,0.14446 -0.0399,0 -0.0667,0.075 -0.0704,0.197 -10e-4,0.0433 -0.008,0.064 -0.0157,0.0459 -0.0141,-0.035 -0.0635,-0.0461 -0.0583,-0.0131 0.0153,0.0967 -0.008,0.24296 -0.0392,0.24296 -0.036,0 -0.0689,0.10821 -0.0689,0.22654 0,0.0379 -0.0154,0.0623 -0.0394,0.0623 -0.024,0 -0.0394,0.0244 -0.0394,0.0624 0,0.11832 -0.0329,0.22654 -0.069,0.22654 -0.0263,0 -0.0361,0.0394 -0.0361,0.14446 0,0.10441 -0.01,0.14446 -0.0358,0.14446 -0.0237,0 -0.0414,0.0479 -0.0525,0.14222 -0.0194,0.16538 -0.0404,0.23022 -0.0688,0.2127 -0.0111,-0.007 -0.026,0.048 -0.0331,0.1219 -0.008,0.0868 -0.0281,0.1429 -0.0558,0.15841 -0.0315,0.0176 -0.0429,0.062 -0.0429,0.16717 0,0.10973 -0.009,0.14316 -0.0394,0.14316 -0.0275,0 -0.0403,0.0298 -0.0424,0.0985 -0.002,0.0541 -0.006,0.11031 -0.009,0.12476 -0.003,0.0144 -0.008,0.0528 -0.0101,0.0854 -0.002,0.0332 -0.0212,0.059 -0.0434,0.059 -0.0306,0 -0.0394,0.0349 -0.0394,0.15677 0,0.12314 -0.008,0.15376 -0.0366,0.14274 -0.0281,-0.0108 -0.0408,0.0287 -0.0552,0.17154 -0.0133,0.13259 -0.0291,0.18558 -0.0554,0.18558 -0.0259,0 -0.0367,0.0342 -0.0367,0.11632 0,0.0722 -0.0161,0.13246 -0.0425,0.15884 -0.0266,0.0266 -0.0476,0.10608 -0.0561,0.21199 -0.009,0.10914 -0.0251,0.16949 -0.0459,0.16949 -0.0213,0 -0.0369,0.0641 -0.0457,0.18757 -0.01,0.13566 -0.0252,0.19416 -0.0561,0.21142 -0.0324,0.018 -0.0426,0.0641 -0.0426,0.19114 0,0.092 -0.008,0.18806 -0.0177,0.21346 -0.0165,0.0428 -0.0192,0.0425 -0.0376,-0.004 -0.0131,-0.0333 -0.0216,10e-4 -0.025,0.10042 -0.003,0.0831 -0.008,0.16285 -0.0117,0.17729 -0.004,0.0144 -0.008,0.0558 -0.01,0.0919 -0.002,0.0393 -0.019,0.0657 -0.0427,0.0657 -0.0299,0 -0.0394,0.0324 -0.0394,0.1338 0,0.11169 -0.009,0.13604 -0.0525,0.14752 -0.0291,0.008 -0.0525,0.0359 -0.0525,0.0632 0,0.0272 -0.0177,0.0495 -0.0394,0.0495 -0.0217,0 -0.0394,0.0177 -0.0394,0.0394 0,0.0331 -0.0593,0.0394 -0.37428,0.0398 -0.24116,2.9e-4 -0.36054,0.009 -0.33565,0.0248 0.0213,0.0135 0.0291,0.034 0.0175,0.0455 -0.0194,0.0194 -16.50589,0.033 -18.02826,0.015 z m 5.74556,-17.99881 c 0,-0.0144 -0.0118,-0.0263 -0.0263,-0.0263 -0.0145,0 -0.0263,0.0118 -0.0263,0.0263 0,0.0144 0.0118,0.0263 0.0263,0.0263 0.0145,0 0.0263,-0.0118 0.0263,-0.0263 z m -15.56226,5.17429 c 0.009,-0.0144 0.0215,-0.0263 0.0278,-0.0263 0.007,0 0.0116,0.0118 0.0116,0.0263 0,0.0144 -0.0125,0.0263 -0.0278,0.0263 -0.0153,0 -0.0205,-0.0118 -0.0116,-0.0263 z"
       id="path1036"
       inkscape:connector-curvature="0" />
    <path
       style="fill:#ff6600;stroke-width:0.05915964"
       d="m 346.52456,88.831046 c -0.56655,-0.0621 -6.20423,-0.13167 -10.61915,-0.13119 -3.92764,4.5e-4 -3.89855,0.003 -4.10425,-0.3113 -0.0486,-0.0741 -0.10335,-0.26243 -0.12175,-0.41844 -0.035,-0.29829 -0.23187,-0.69068 -0.44155,-0.88044 -0.24211,-0.2191 -0.14143,-0.4617 0.44491,-1.07309 0.26961,-0.28109 0.37917,-0.62146 0.25009,-0.77698 -0.0483,-0.0582 -0.0837,-0.35221 -0.0995,-0.8259 -0.0197,-0.59304 -0.005,-0.7866 0.0761,-0.99896 0.0992,-0.2595 0.0984,-0.26827 -0.0501,-0.59255 -0.0829,-0.18102 -0.20477,-0.39789 -0.27086,-0.48191 -0.1623,-0.20634 -0.14958,-0.41346 0.0437,-0.71153 0.089,-0.13711 0.23746,-0.37091 0.33015,-0.51951 l 0.16853,-0.27017 -0.0763,-0.51578 c -0.0421,-0.28369 -0.0697,-0.54007 -0.0617,-0.56973 0.008,-0.0296 -0.0947,-0.49555 -0.22812,-1.0353 -0.52956,-2.14141 -0.82395,-3.35301 -0.84064,-3.45972 -0.01,-0.0616 -0.0697,-0.14143 -0.13343,-0.17747 -0.33647,-0.1901 -0.58768,-0.74225 -0.54987,-1.20869 0.0221,-0.27214 0.0576,-0.347 0.26137,-0.55079 0.19533,-0.19534 0.27706,-0.23641 0.4759,-0.23916 0.34322,-0.005 0.61924,0.10223 0.83137,0.32215 0.3318,0.344 0.39248,0.71348 0.19034,1.15896 -0.14815,0.32662 -0.14751,0.58123 0.003,1.16727 0.0662,0.25737 0.19808,0.84065 0.29282,1.29618 0.22512,1.08235 0.46457,2.11042 0.49974,2.14559 0.0766,0.0766 0.3389,-0.0638 0.39172,-0.20976 0.032,-0.0886 0.0854,-0.21451 0.11855,-0.27988 0.0331,-0.0653 0.0673,-0.23926 0.076,-0.38643 0.008,-0.14719 0.0339,-0.2971 0.0563,-0.33313 0.0222,-0.036 0.0568,-0.23484 0.0766,-0.44179 0.0448,-0.46626 0.11328,-1.01787 0.19377,-1.55947 0.0805,-0.54177 0.18529,-2.2767 0.18529,-3.06638 v -0.623038 l -0.17882,-0.12735 c -0.23743,-0.16907 -0.39702,-0.4965 -0.48104,-0.98698 -0.0947,-0.55294 -0.0347,-0.81611 0.25126,-1.10208 l 0.23233,-0.23235 0.46876,0.0272 c 0.38944,0.0225 0.50303,0.0533 0.6714,0.18171 0.33039,0.25199 0.42637,0.51695 0.42637,1.17704 0,0.51404 -0.0144,0.58666 -0.13487,0.71554 l -0.13487,0.14351 0.22184,0.55639 c 0.12207,0.306018 0.35184,0.809288 0.51074,1.118408 0.15887,0.30911 0.40538,0.86276 0.54773,1.23031 0.60671,1.56639 1.15191,2.43462 1.69257,2.69535 0.92945,0.44822 2.10875,0.12767 3.12418,-0.84918 0.25378,-0.24414 0.53463,-0.57697 0.62413,-0.73966 0.32677,-0.59397 0.60667,-1.1908 0.70748,-1.50859 0.0568,-0.17896 0.17725,-0.48511 0.26769,-0.68033 0.43742,-0.94408 1.12183,-2.499718 1.12183,-2.549888 0,-0.031 0.12207,-0.34848 0.27139,-0.70551 0.14926,-0.35703 0.38574,-0.92866 0.52552,-1.27031 0.13983,-0.34166 0.28665,-0.6911 0.32638,-0.77655 0.0592,-0.12719 0.0562,-0.180849 -0.0165,-0.2958 -0.15535,-0.246028 -0.29405,-0.937301 -0.25182,-1.255659 0.0608,-0.458556 0.51856,-1.221583 0.73282,-1.221583 0.0378,0 0.0686,-0.02272 0.0686,-0.05056 0,-0.07503 0.71032,-0.12767 0.9607,-0.0712 0.49243,0.111031 0.73962,0.519719 0.79764,1.318567 0.0338,0.463978 -0.0403,0.782897 -0.32412,1.395616 -0.0784,0.169234 -0.0806,0.255199 -0.0163,0.621179 0.14863,0.84552 0.31836,1.33247 0.85967,2.46577 0.30307,0.63448 0.56973,1.22016 0.59261,1.301508 0.0741,0.26342 0.39765,0.90934 0.60755,1.21277 0.11247,0.16269 0.35954,0.62235 0.54892,1.02146 0.38162,0.8043 1.10836,1.93746 1.45655,2.27113 0.12415,0.11887 0.35879,0.26177 0.52148,0.31738 0.57228,0.1956 1.93159,0.17232 2.37607,-0.0406 0.0918,-0.044 0.29615,-0.26615 0.45391,-0.49357 0.31572,-0.45512 1.05739,-1.94284 1.16172,-2.3303 0.0363,-0.13503 0.15455,-0.43783 0.26263,-0.67292 0.10815,-0.23509 0.21691,-0.49399 0.24184,-0.57533 0.025,-0.0813 0.21797,-0.49322 0.42896,-0.915268 l 0.38363,-0.76738 -0.10287,-0.28618 c -0.13311,-0.37034 -0.0965,-0.74399 0.11551,-1.17545 0.2104,-0.4282 0.48058,-0.57537 0.87379,-0.47597 0.13934,0.0352 0.31976,0.0789 0.4011,0.097 0.25775,0.0574 0.37458,0.29797 0.40219,0.82787 0.0304,0.5833 -0.0534,0.91804 -0.30197,1.20496 -0.18623,0.215 -0.18866,0.22555 -0.15247,0.66218 0.0202,0.244028 0.0405,0.776468 0.0451,1.183208 0.005,0.40671 0.0338,1.04564 0.0648,1.41982 0.031,0.37418 0.0699,1.08293 0.0862,1.57499 0.0309,0.93263 0.0907,1.32658 0.24895,1.64045 0.10224,0.20294 0.37057,0.5116 0.44461,0.5116 0.10655,0 0.77032,-2.34328 0.87972,-3.10588 0.0373,-0.2603 0.0909,-0.62639 0.11887,-0.81353 0.0426,-0.28361 0.032,-0.38213 -0.063,-0.5916 -0.15775,-0.34735 -0.15263,-0.82214 0.0128,-1.11494 0.31615,-0.56254 1.25696,-0.51272 1.56629,0.0829 0.24163,0.4653 0.12703,1.15122 -0.23889,1.43035 -0.20176,0.1539 -0.19277,0.12783 -0.68211,1.98294 -0.20509,0.77751 -0.35987,1.52502 -0.35987,1.73793 0,0.0801 -0.0666,0.4801 -0.14783,0.88892 -0.19944,1.00232 -0.19474,1.25889 0.0296,1.61259 0.0976,0.15391 0.17747,0.3062 0.17747,0.3384 0,0.0322 0.0502,0.11343 0.11151,0.18069 0.19007,0.20816 0.19906,0.35005 0.0373,0.58842 -0.0819,0.12063 -0.14878,0.23329 -0.14878,0.2504 0,0.0171 -0.0795,0.14654 -0.17657,0.2877 l -0.17656,0.25664 0.12943,0.28645 c 0.10943,0.2423 0.12991,0.39669 0.13215,1.00141 0.002,0.50201 -0.0218,0.76101 -0.0795,0.86964 -0.0626,0.11743 -0.0672,0.19459 -0.0195,0.32036 0.0346,0.091 0.0776,0.23429 0.0957,0.31817 0.0181,0.0838 0.0936,0.21795 0.16751,0.29796 0.36384,0.39337 0.40755,0.57232 0.22969,0.94045 -0.12767,0.26428 -0.22024,0.64825 -0.27287,1.13215 -0.0584,0.53684 -0.0333,0.52829 -1.63613,0.55755 -0.75943,0.0144 -1.55383,0.0453 -1.76531,0.0699 -0.21151,0.0246 -1.47604,0.0269 -2.8101,0.005 -2.4519,-0.0402 -6.59491,-0.023 -6.92167,0.0285 -0.0976,0.016 -0.36384,0.008 -0.5916,-0.0173 z m -13.22083,-1.65897 c 0.0621,-0.0333 0.12991,-0.15551 0.15215,-0.27461 0.0342,-0.18275 0.0192,-0.23087 -0.10096,-0.32333 -0.41539,-0.31941 -0.91957,0.2027 -0.5184,0.53685 0.15742,0.13103 0.30127,0.14991 0.46722,0.0611 z m 2.20003,-0.08 c 0.0557,-0.0422 0.12975,-0.15198 0.16461,-0.24367 0.0541,-0.14223 0.0442,-0.1873 -0.0672,-0.30577 -0.24104,-0.25657 -0.58058,-0.14271 -0.67247,0.22565 -0.0744,0.29791 0.31816,0.51893 0.57501,0.32379 z m 2.33912,-0.0934 c 0.2536,-0.21157 0.10304,-0.65411 -0.22241,-0.65411 -0.31695,0 -0.46072,0.10783 -0.46236,0.34698 -0.003,0.37289 0.39318,0.55038 0.68477,0.30713 z m 2.43579,-0.0382 c 0.18112,-0.15246 0.23656,-0.33859 0.12191,-0.40945 -0.0331,-0.0205 -0.0459,-0.0602 -0.0286,-0.0881 0.1,-0.16186 -0.5465,-0.17977 -0.66554,-0.0184 -0.11216,0.15198 -0.0888,0.37957 0.0547,0.53227 0.16613,0.17684 0.29285,0.17285 0.51757,-0.0161 z m 17.33081,-0.0579 c 0.11807,-0.13583 0.12415,-0.17015 0.0566,-0.32241 -0.14687,-0.33183 -0.54087,-0.38486 -0.69667,-0.0937 -0.21984,0.41078 0.33239,0.76992 0.63995,0.41619 z m 2.02108,0.0438 c 0.20242,-0.1639 0.20215,-0.39712 -6.7e-4,-0.54152 -0.21814,-0.15535 -0.38659,-0.15119 -0.50102,0.0128 -0.13407,0.19133 -0.11631,0.43644 0.0394,0.54551 0.17231,0.12063 0.29881,0.11631 0.46225,-0.016 z m -16.42758,-0.096 c 0.19064,-0.17669 0.19885,-0.37507 0.0224,-0.5416 -0.29285,-0.27641 -0.53754,-0.22378 -0.69186,0.14879 -0.0602,0.1451 -0.0493,0.18462 0.0965,0.35067 0.19721,0.22475 0.36274,0.23691 0.57294,0.0421 z m 7.38165,-0.0768 c 0.0354,-0.0894 0.0862,-0.20597 0.11295,-0.25888 0.0306,-0.0603 0.016,-0.14303 -0.0394,-0.22185 -0.12655,-0.18074 -0.57002,-0.1785 -0.69753,0.003 -0.18088,0.25823 0.0502,0.63988 0.38741,0.63988 0.13279,0 0.18688,-0.0371 0.23645,-0.16269 z m 2.32265,0.0296 c 0.18328,-0.16489 0.21368,-0.38882 0.0805,-0.59221 -0.0883,-0.13471 -0.13055,-0.15055 -0.32435,-0.12143 -0.25279,0.0379 -0.35357,0.11391 -0.37789,0.28481 -0.0325,0.22814 0.0624,0.43239 0.22891,0.49322 0.22874,0.0835 0.22853,0.0835 0.39292,-0.0643 z m 2.38566,-0.0974 c 0.18058,-0.2686 0.17047,-0.39886 -0.0394,-0.50738 -0.22822,-0.11807 -0.41456,-0.11231 -0.58376,0.0179 -0.16896,0.12991 -0.13359,0.34458 0.0946,0.57271 0.19611,0.19609 0.35792,0.17062 0.52857,-0.0832 z m -7.33376,0.0538 c 0.24831,-0.15135 0.26604,-0.42157 0.0413,-0.62982 -0.22624,-0.20968 -0.44941,-0.18418 -0.63181,0.0722 -0.20035,0.28161 -0.15119,0.49833 0.13583,0.59803 0.2639,0.0917 0.23361,0.0944 0.45464,-0.0403 z m -2.13356,-0.0701 c 0.17683,-0.16612 0.17287,-0.29286 -0.0162,-0.51758 -0.214,-0.25431 -0.45774,-0.25027 -0.61657,0.01 -0.16444,0.26969 -0.15055,0.43686 0.045,0.54296 0.23087,0.12527 0.42932,0.11328 0.58777,-0.0357 z m 13.89028,-4.6868 c 0.12927,-0.11119 0.15695,-0.17424 0.12751,-0.29165 -0.0882,-0.35111 -0.44845,-0.4507 -0.67752,-0.18725 -0.16741,0.19254 -0.16261,0.27516 0.027,0.46476 0.19305,0.19302 0.31121,0.19622 0.52311,0.0144 z m -26.52629,-0.15694 c 0.0638,-0.0342 0.10031,-0.0877 0.0811,-0.11871 -0.0192,-0.0312 0.006,-0.0726 0.0574,-0.0922 0.0509,-0.0195 0.0925,-0.0904 0.0925,-0.15758 0,-0.33039 -0.50148,-0.47185 -0.68419,-0.19301 -0.22779,0.34765 0.0981,0.75146 0.4531,0.56146 z m 25.17649,-0.20429 c 0.20243,-0.0846 0.21112,-0.0998 0.17738,-0.3106 -0.0195,-0.12191 -0.0925,-0.26824 -0.16216,-0.32518 -0.13775,-0.11247 -0.35021,-0.1395 -0.35021,-0.0443 0,0.0325 -0.0523,0.0592 -0.11615,0.0592 -0.25386,0 -0.27774,0.40122 -0.036,0.60344 0.15198,0.12719 0.219,0.12959 0.48716,0.0176 z m -2.03331,-0.3195 0.16522,-0.16849 -0.10607,-0.2133 c -0.0589,-0.11855 -0.13887,-0.20146 -0.18,-0.18666 -0.0406,0.0144 -0.0739,8.8e-4 -0.0739,-0.0307 0,-0.1064 -0.17111,-0.0584 -0.31889,0.0894 -0.12527,0.12527 -0.13903,0.1739 -0.0936,0.332 0.0566,0.19746 0.20791,0.34553 0.35338,0.34593 0.0488,1.1e-4 0.16309,-0.0755 0.25395,-0.16828 z m -21.01441,-0.01 c 0.0677,-0.0677 0.10751,-0.16294 0.0888,-0.2119 -0.0187,-0.0489 -0.0341,-0.12367 -0.0341,-0.1661 0,-0.0424 -0.067,-0.12111 -0.14911,-0.17482 -0.1387,-0.0909 -0.16363,-0.0909 -0.35494,-6e-5 -0.11327,0.0538 -0.20885,0.11455 -0.21256,0.13535 -0.0502,0.28022 -0.0339,0.36927 0.0827,0.45092 0.17984,0.12591 0.43476,0.11135 0.57939,-0.0333 z m 1.93865,-0.22398 c 0.1611,-0.14383 0.1815,-0.19109 0.13519,-0.31303 -0.15775,-0.41483 -0.68528,-0.41825 -0.80541,-0.005 -0.0293,0.10063 0.005,0.1772 0.13823,0.31058 0.21979,0.2198 0.29325,0.22085 0.53205,0.008 z m 16.89403,-0.0409 c 0.10512,-0.10512 0.0934,-0.38698 -0.0218,-0.52574 -0.19428,-0.23411 -0.77513,0.0222 -0.67516,0.29804 0.10815,0.29843 0.49859,0.42598 0.69687,0.2277 z m -2.40217,-0.12975 c 0.16901,-0.14559 0.22152,-0.44642 0.0962,-0.55049 -0.13007,-0.10799 -0.33204,-0.13055 -0.52175,-0.0585 -0.22433,0.0853 -0.21981,0.41739 0.008,0.58737 0.20078,0.14975 0.26499,0.15311 0.4176,0.0216 z m -12.31764,-0.051 c 0.19524,-0.0926 0.22859,-0.15983 0.20226,-0.40738 -0.0218,-0.20395 -0.12463,-0.27311 -0.37858,-0.25436 -0.18598,0.0144 -0.25895,0.0518 -0.32481,0.16973 -0.10831,0.19386 -0.0514,0.43011 0.12431,0.51471 0.17557,0.0846 0.14719,0.0864 0.37689,-0.0227 z m 1.94167,-0.0802 c 0.0849,-0.0323 0.18517,-0.14143 0.22937,-0.24982 0.0741,-0.18165 0.0696,-0.20002 -0.0816,-0.32718 -0.088,-0.0741 -0.22844,-0.13471 -0.31195,-0.13471 -0.1659,0 -0.39386,0.20442 -0.39178,0.35132 0.002,0.11295 0.17355,0.33272 0.29449,0.37637 0.0488,0.0176 0.0936,0.0341 0.0997,0.0368 0.006,0.003 0.0789,-0.0211 0.16179,-0.0526 z m 8.35605,-0.0301 c 0.14879,-0.10415 0.20725,-0.45201 0.0937,-0.55802 -0.14095,-0.13167 -0.47873,-0.15039 -0.60776,-0.0336 -0.11823,0.10687 -0.15167,0.30124 -0.0717,0.41634 0.0622,0.0896 0.32474,0.26279 0.39842,0.26279 0.0344,0 0.11855,-0.0394 0.18726,-0.0875 z m -4.37282,-0.13823 c 0.12431,-0.15583 0.0894,-0.40131 -0.0718,-0.50702 -0.16102,-0.10559 -0.38661,-0.12783 -0.38661,-0.0382 0,0.0315 -0.0379,0.0427 -0.0841,0.025 -0.11215,-0.043 -0.21428,0.15806 -0.17112,0.33706 0.076,0.31517 0.51809,0.42865 0.7138,0.18321 z m 2.18527,0.0616 c 0.079,-0.0624 0.13663,-0.183 0.14783,-0.30928 0.016,-0.17225 -0.01,-0.22444 -0.14575,-0.31058 -0.31962,-0.20162 -0.63454,-0.0605 -0.63454,0.28436 0,0.37468 0.3485,0.55957 0.63231,0.3355 z m -4.06358,-0.15503 c 0.14591,-0.20487 0.12143,-0.3862 -0.0649,-0.4826 -0.23801,-0.12303 -0.37971,-0.10656 -0.56602,0.0661 -0.15519,0.14383 -0.15919,0.16016 -0.0752,0.30974 0.17645,0.31437 0.52129,0.36649 0.70623,0.10671 z"
       id="path1169"
       inkscape:connector-curvature="0" />
    <g
       id="g927">
      <text
         id="text881"
         y="187.62807"
         x="15.807854"
         style="font-style:normal;font-weight:normal;font-size:13.24640274px;line-height:1000%;font-family:sans-serif;letter-spacing:11.42369843px;word-spacing:0px;fill:#000000;fill-opacity:1;stroke:none;stroke-width:0.35323742px;stroke-linecap:butt;stroke-linejoin:miter;stroke-opacity:1"
         xml:space="preserve"><tspan
           style="font-style:normal;font-variant:normal;font-weight:normal;font-stretch:normal;font-size:10.68162727px;font-family:'Gotham Medium';-inkscape-font-specification:'Gotham Medium, ';letter-spacing:12.61099625px;fill:#000000;stroke-width:0.35323742px"
           y="187.62807"
           x="15.807854"
           id="tspan879"
           sodipodi:role="line">MESSENGERS LTD</tspan></text>
      <path
         sodipodi:nodetypes="ccccccccccccscsccscsccccssscccccscccscscsccccccccccsccccccccccccccccccssccccsscccccccsscccscsscssss"
         inkscape:connector-curvature="0"
         id="path1217"
         d="m 56.398321,129.26027 c -0.260694,-0.57216 0.13818,-1.0717 1.365656,-1.7103 l 25.992358,-0.0805 c 1.258694,0.63094 1.719462,1.18934 1.490236,1.806 -0.164433,0.44237 -0.525618,0.3832 -1.456863,-0.23866 l -25.811722,-0.0679 c -1.12238,0.69955 -1.372651,0.74571 -1.579665,0.29137 z m -0.03012,-2.10376 c -0.03436,-0.0564 -0.400584,-0.93304 -0.8138,-1.9481 -0.413217,-1.01507 -0.914163,-2.21268 -1.113209,-2.66136 -0.199051,-0.44868 -0.344005,-0.94083 -0.322118,-1.09367 0.05584,-0.38994 0.808116,-0.44874 1.305171,-0.10202 0.930165,0.64885 2.554571,0.90058 3.305504,0.51227 0.606223,-0.3135 1.421216,-1.33131 1.997605,-2.49473 0.710734,-1.43459 0.942271,-1.67948 1.587865,-1.67948 0.4393,0 0.602286,0.0902 1.035663,0.57313 0.977096,1.08883 1.46902,1.52048 2.015957,1.76893 1.125714,0.51139 1.898549,0.20847 2.654613,-1.0405 0.508588,-0.84015 1.379659,-2.93025 1.381787,-3.31553 5.17e-4,-0.13295 0.150018,-0.56107 0.331739,-0.95137 0.288765,-0.62021 0.393525,-0.72149 0.831208,-0.8036 0.821416,-0.15409 1.149722,0.19978 1.667788,1.79767 1.038003,3.20159 1.983064,4.57483 3.142156,4.56574 0.622349,-0.005 1.441067,-0.45785 2.094898,-1.15901 1.275859,-1.36821 1.365046,-1.43546 1.903892,-1.43546 0.621443,0 0.773838,0.15863 1.444621,1.50379 0.686961,1.37761 1.2256,2.10423 1.881705,2.53842 0.758286,0.50181 1.873985,0.43587 3.135839,-0.18534 1.033317,-0.5087 1.55284,-0.56244 1.676313,-0.17339 0.05277,0.16624 -0.192061,0.92131 -0.653826,2.01646 -0.405997,0.96288 -0.912256,2.18132 -1.125021,2.70765 -0.212766,0.52633 -0.428299,1.00641 -0.478978,1.06683 -0.1207,0.14393 -1.08911,-0.31939 -1.08911,-0.52108 0,-0.0855 0.298789,-0.90578 0.663974,-1.82277 l 0.663979,-1.66727 -0.493093,0.0964 c -0.984588,0.1925 -1.838054,0.11096 -2.612078,-0.24954 -1.05535,-0.49153 -1.688585,-1.1746 -2.397548,-2.58624 -0.337035,-0.67107 -0.660413,-1.22014 -0.718619,-1.22014 -0.05821,0 -0.442084,0.34307 -0.853058,0.76237 -1.92395,1.96291 -3.627394,2.15458 -5.197202,0.58476 -0.699377,-0.69937 -1.657826,-2.46906 -2.120712,-3.91573 -0.127241,-0.39767 -0.248034,-0.70526 -0.268428,-0.68354 -0.02041,0.0217 -0.25038,0.59342 -0.511083,1.27044 -1.038934,2.698 -2.018681,3.90199 -3.499793,4.30081 -1.047495,0.28206 -2.022561,-0.12394 -3.455242,-1.43872 -0.528651,-0.48514 -1.006557,-0.85403 -1.062014,-0.81976 -0.05546,0.0343 -0.334256,0.53463 -0.619559,1.11189 -1.114971,2.25601 -2.671973,3.24788 -4.608738,2.93598 -0.468451,-0.0755 -0.862384,-0.12331 -0.875404,-0.10637 -0.01302,0.017 0.244959,0.7075 0.573293,1.53458 0.835893,2.10566 0.813676,1.9372 0.297048,2.25217 -0.493806,0.30107 -0.609333,0.32969 -0.703986,0.17442 z m 2.051645,-0.9566 c -0.03405,-0.0566 -0.226901,-0.49633 -0.428516,-0.9772 -0.400609,-0.95545 -0.352133,-1.10182 0.366208,-1.10588 1.253274,-0.007 3.046826,-1.29926 3.746255,-2.69903 0.216872,-0.43402 0.404768,-0.80985 0.417541,-0.83516 0.01277,-0.0253 0.335434,0.20077 0.717017,0.5024 0.828077,0.65456 1.924855,1.19001 2.677477,1.30715 0.682621,0.10625 1.83219,-0.19243 2.537747,-0.65935 0.654302,-0.43299 1.504084,-1.5439 1.98569,-2.59588 l 0.365996,-0.79943 0.494523,0.97602 c 0.570054,1.12509 1.48603,2.24522 2.092424,2.5588 0.790434,0.40875 1.755382,0.6252 2.346906,0.52644 0.714366,-0.11927 2.034433,-0.77823 2.776418,-1.38596 l 0.569325,-0.46631 0.444575,0.83411 c 0.82836,1.55417 2.060135,2.46584 3.67693,2.72143 0.380768,0.0602 0.72003,0.13717 0.75391,0.17104 0.0339,0.0339 -0.233055,0.99252 -0.487347,1.47682 l -0.41132,0.78335 h -24.49935 z m -5.770625,-6.03101 c -1.160181,-0.7075 -1.303776,-2.23731 -0.286987,-3.05745 0.665312,-0.53664 1.898015,-0.13638 2.320233,0.75338 0.756901,1.59505 -0.626053,3.16221 -2.033246,2.30407 z m 34.65026,-0.12569 c -0.321994,-0.28771 -0.442606,-0.5302 -0.495025,-0.99527 -0.136278,-1.20901 0.644475,-2.17712 1.756706,-2.17826 0.399819,-4.1e-4 0.582486,0.0952 0.922786,0.48272 1.343082,1.52969 -0.686274,4.02944 -2.184467,2.69081 z m -26.595227,-3.23378 c -1.148633,-0.49991 -1.447702,-2.22262 -0.534744,-3.0803 0.398765,-0.37462 1.361239,-0.50349 1.846012,-0.24718 0.890157,0.47066 1.253585,1.91542 0.694981,2.76281 -0.48295,0.73262 -1.173673,0.92703 -2.006249,0.56467 z m 18.656097,-0.11183 c -0.489699,-0.41395 -0.662248,-0.79612 -0.662248,-1.46674 0,-1.44274 1.263856,-2.33001 2.447248,-1.71805 0.55758,0.28834 0.833764,0.79316 0.833764,1.52402 0,0.80962 -0.411413,1.49867 -1.055514,1.76779 -0.674732,0.28192 -1.140904,0.25001 -1.56325,-0.10702 z m -9.519246,-4.08537 c -1.034579,-0.66247 -1.122365,-1.9191 -0.201496,-2.8844 0.965852,-1.01245 2.699658,-0.34423 2.976157,1.14703 0.271028,1.46175 -1.486494,2.56223 -2.774661,1.73737 z"
         style="fill:url(#radialGradient854);fill-opacity:1;stroke-width:0.13670886" />
      <text
         id="text1253"
         y="171.97562"
         x="13.271781"
         style="font-style:normal;font-weight:normal;font-size:56.40053558px;line-height:1000%;font-family:sans-serif;letter-spacing:48.63982391px;word-spacing:0px;fill:url(#linearGradient1309);fill-opacity:1;stroke:none;stroke-width:1.50401425px;stroke-linecap:butt;stroke-linejoin:miter;stroke-opacity:1"
         xml:space="preserve"><tspan
           style="font-style:normal;font-variant:normal;font-weight:normal;font-stretch:normal;font-family:'Gotham Black';-inkscape-font-specification:'Gotham Black, ';letter-spacing:0px;fill:url(#linearGradient1309);fill-opacity:1;stroke-width:1.50401425px"
           y="171.97562"
           x="13.271781"
           id="tspan1251"
           sodipodi:role="line">E<tspan
   id="tspan1285"
   style="fill:url(#linearGradient1309);fill-opacity:1">X</tspan>PRESS</tspan></text>
      <path
         sodipodi:nodetypes="ccccccc"
         inkscape:connector-curvature="0"
         id="path910"
         d="m 52.110489,132.49917 12.553213,-0.0391 13.42295,19.34645 -13.431866,20.10869 -13.117641,0.10023 13.531006,-20.11955 z"
         style="fill:url(#linearGradient876);fill-opacity:1;fill-rule:evenodd;stroke:none;stroke-width:0.36781073px;stroke-linecap:butt;stroke-linejoin:miter;stroke-opacity:1" />
      <path
         inkscape:connector-curvature="0"
         id="path838"
         d="m 78.740594,132.49085 12.301945,0.006 -19.084766,28.43964 7.078114,11.04116 h 12.603145 l -19.614441,-28.8982 z"
         style="fill:url(#linearGradient846);fill-opacity:1;fill-rule:evenodd;stroke:none;stroke-width:0.26458332px;stroke-linecap:butt;stroke-linejoin:miter;stroke-opacity:1" />
      <path
         style="fill:#ff6600;fill-opacity:1;fill-rule:evenodd;stroke:none;stroke-width:0.32315484px;stroke-linecap:butt;stroke-linejoin:miter;stroke-opacity:1"
         d="m 52.110489,132.49917 9.690082,-0.0391 10.361448,19.34645 -10.36833,20.10869 -10.125775,0.10023 10.44486,-20.11955 z"
         id="path868"
         inkscape:connector-curvature="0"
         sodipodi:nodetypes="ccccccc" />
    </g>
  </g>
  <g
     inkscape:groupmode="layer"
     id="layer2"
     inkscape:label="Sample"
     style="display:inline">
    <text
       xml:space="preserve"
       style="font-style:normal;font-weight:normal;font-size:36.84148026px;line-height:1000%;font-family:sans-serif;letter-spacing:13.16469193px;word-spacing:0px;opacity:0.407;fill:#ff0000;fill-opacity:1;stroke:none;stroke-width:0.98243946px;stroke-linecap:butt;stroke-linejoin:miter;stroke-opacity:1;"
       x="-31.075701"
       y="204.87883"
       id="text996"
       transform="rotate(-21.003788)"><tspan
         sodipodi:role="line"
         id="tspan994"
         x="-31.075701"
         y="204.87883"
         style="font-style:normal;font-variant:normal;font-weight:normal;font-stretch:normal;font-family:'Arial Black';-inkscape-font-specification:'Arial Black, ';letter-spacing:13.16469193px;fill:#ff0000;stroke-width:0.98243946px;">SAMPLE</tspan></text>
  </g>
</svg>
