<?xml version="1.0" encoding="UTF-8" standalone="no"?>
<!-- Created with Inkscape (http://www.inkscape.org/) -->

<svg
   xmlns:dc="http://purl.org/dc/elements/1.1/"
   xmlns:cc="http://creativecommons.org/ns#"
   xmlns:rdf="http://www.w3.org/1999/02/22-rdf-syntax-ns#"
   xmlns:svg="http://www.w3.org/2000/svg"
   xmlns="http://www.w3.org/2000/svg"
   xmlns:xlink="http://www.w3.org/1999/xlink"
   xmlns:sodipodi="http://sodipodi.sourceforge.net/DTD/sodipodi-0.dtd"
   xmlns:inkscape="http://www.inkscape.org/namespaces/inkscape"
   width="297mm"
   height="210mm"
   viewBox="0 0 297 210"
   version="1.1"
   id="svg1013"
   inkscape:version="0.92.3 (2405546, 2018-03-11)"
   sodipodi:docname="logo_proto_2.svg"
   inkscape:export-filename="/home/chriswachira/Documents/G-Designs/express-messenger/logo_proto_2.png"
   inkscape:export-xdpi="96"
   inkscape:export-ydpi="96">
  <defs
     id="defs1007">
    <linearGradient
       inkscape:collect="always"
       id="linearGradient1018">
      <stop
         style="stop-color:#0000ff;stop-opacity:1;"
         offset="0"
         id="stop1014" />
      <stop
         style="stop-color:#0000ff;stop-opacity:0;"
         offset="1"
         id="stop1016" />
    </linearGradient>
    <linearGradient
       inkscape:collect="always"
       id="linearGradient1817">
      <stop
         style="stop-color:#0000ff;stop-opacity:1;"
         offset="0"
         id="stop1813" />
      <stop
         style="stop-color:#ff6600;stop-opacity:1"
         offset="1"
         id="stop1815" />
    </linearGradient>
    <linearGradient
       inkscape:collect="always"
       id="linearGradient1710">
      <stop
         style="stop-color:#ff6600;stop-opacity:1;"
         offset="0"
         id="stop1706" />
      <stop
         style="stop-color:#803300;stop-opacity:1"
         offset="1"
         id="stop1708" />
    </linearGradient>
    <linearGradient
       inkscape:collect="always"
       id="linearGradient1664">
      <stop
         style="stop-color:#0000ff;stop-opacity:1"
         offset="0"
         id="stop1660" />
      <stop
         id="stop1668"
         offset="0.99999988"
         style="stop-color:#bd4c2c;stop-opacity:0.98039216;" />
      <stop
         style="stop-color:#e55c00;stop-opacity:1"
         offset="1"
         id="stop1662" />
    </linearGradient>
    <linearGradient
       inkscape:collect="always"
       id="linearGradient1648">
      <stop
         style="stop-color:#0000ff;stop-opacity:1;"
         offset="0"
         id="stop1644" />
      <stop
         id="stop1654"
         offset="0.1"
         style="stop-color:#ff6600;stop-opacity:1" />
      <stop
         id="stop1652"
         offset="1"
         style="stop-color:#d45500;stop-opacity:1" />
      <stop
         style="stop-color:#0000ff;stop-opacity:0.89655173"
         offset="1"
         id="stop1646" />
    </linearGradient>
    <linearGradient
       inkscape:collect="always"
       xlink:href="#linearGradient1648"
       id="linearGradient1650"
       x1="151.27455"
       y1="229.40605"
       x2="151.27455"
       y2="259.99335"
       gradientUnits="userSpaceOnUse"
       gradientTransform="translate(432.40476,-29.626083)" />
    <linearGradient
       inkscape:collect="always"
       xlink:href="#linearGradient1664"
       id="linearGradient1666"
       x1="279.70239"
       y1="260.71429"
       x2="279.70239"
       y2="260.76154"
       gradientUnits="userSpaceOnUse"
       gradientTransform="translate(432.40476,-30.238095)" />
    <clipPath
       clipPathUnits="userSpaceOnUse"
       id="clipPath1698">
      <rect
         style="opacity:1;fill:#0000ff;fill-opacity:0.95977017;stroke:none;stroke-width:0.94365084;stroke-linecap:butt;stroke-miterlimit:4;stroke-dasharray:none;stroke-dashoffset:0;stroke-opacity:1"
         id="rect1700"
         width="62.2738"
         height="24.989721"
         x="581.67108"
         y="268.81845" />
    </clipPath>
    <clipPath
       clipPathUnits="userSpaceOnUse"
       id="clipPath1702">
      <rect
         y="294.0665"
         x="660.24829"
         height="24.856064"
         width="62.2738"
         id="rect1704"
         style="opacity:1;fill:#800000;fill-opacity:0.9885057;stroke:none;stroke-width:0.94112396;stroke-linecap:butt;stroke-miterlimit:4;stroke-dasharray:none;stroke-dashoffset:0;stroke-opacity:1" />
    </clipPath>
    <linearGradient
       inkscape:collect="always"
       xlink:href="#linearGradient1710"
       id="linearGradient1712"
       x1="696.75732"
       y1="299.4317"
       x2="696.75732"
       y2="293.38409"
       gradientUnits="userSpaceOnUse" />
    <linearGradient
       inkscape:collect="always"
       xlink:href="#linearGradient1664"
       id="linearGradient1726"
       gradientUnits="userSpaceOnUse"
       gradientTransform="translate(472.49519,32.302974)"
       x1="279.70239"
       y1="260.71429"
       x2="279.70239"
       y2="260.76154" />
    <linearGradient
       inkscape:collect="always"
       xlink:href="#linearGradient1307"
       id="linearGradient1309"
       x1="96.217033"
       y1="148.08961"
       x2="96.217033"
       y2="184.73566"
       gradientUnits="userSpaceOnUse"
       gradientTransform="matrix(0.70932285,0,0,0.70932285,18.880582,67.220293)" />
    <linearGradient
       inkscape:collect="always"
       id="linearGradient1307">
      <stop
         style="stop-color:#0000ff;stop-opacity:1"
         offset="0"
         id="stop1303" />
      <stop
         style="stop-color:#800080;stop-opacity:1"
         offset="1"
         id="stop1305" />
    </linearGradient>
    <linearGradient
       inkscape:collect="always"
       xlink:href="#linearGradient1307"
       id="linearGradient884"
       x1="75.696465"
       y1="172.83315"
       x2="45.999607"
       y2="172.83315"
       gradientUnits="userSpaceOnUse"
       gradientTransform="translate(9.0157985,-20.937252)" />
    <linearGradient
       inkscape:collect="always"
       xlink:href="#linearGradient844"
       id="linearGradient846"
       x1="60.107708"
       y1="171.7009"
       x2="72.548508"
       y2="171.7009"
       gradientUnits="userSpaceOnUse"
       gradientTransform="matrix(0.70932285,0,0,0.70932285,18.880582,67.220293)" />
    <linearGradient
       inkscape:collect="always"
       id="linearGradient844">
      <stop
         style="stop-color:#000000;stop-opacity:1;"
         offset="0"
         id="stop840" />
      <stop
         style="stop-color:#000000;stop-opacity:0;"
         offset="1"
         id="stop842" />
    </linearGradient>
    <linearGradient
       inkscape:collect="always"
       xlink:href="#linearGradient1817"
       id="linearGradient1819"
       x1="283.10416"
       y1="4.8675256"
       x2="283.10416"
       y2="18.091442"
       gradientUnits="userSpaceOnUse"
       gradientTransform="matrix(0.70932285,0,0,0.70932285,-89.158806,183.71584)" />
    <linearGradient
       inkscape:collect="always"
       xlink:href="#linearGradient1018"
       id="linearGradient1020"
       x1="258.71689"
       y1="184.42743"
       x2="258.71689"
       y2="219.20326"
       gradientUnits="userSpaceOnUse"
       gradientTransform="translate(-0.81851293)" />
  </defs>
  <sodipodi:namedview
     id="base"
     pagecolor="#ffffff"
     bordercolor="#666666"
     borderopacity="1.0"
     inkscape:pageopacity="1"
     inkscape:pageshadow="2"
     inkscape:zoom="0.7"
     inkscape:cx="499.22057"
     inkscape:cy="364.0454"
     inkscape:document-units="mm"
     inkscape:current-layer="layer2"
     showgrid="false"
     showguides="false"
     inkscape:guide-bbox="true"
     inkscape:window-width="1280"
     inkscape:window-height="750"
     inkscape:window-x="0"
     inkscape:window-y="0"
     inkscape:window-maximized="1"
     inkscape:pagecheckerboard="false">
    <sodipodi:guide
       position="78.577243,109.5805"
       orientation="0,1"
       id="guide1597"
       inkscape:locked="false" />
    <sodipodi:guide
       position="301.07912,62.006531"
       orientation="1,0"
       id="guide1603"
       inkscape:locked="false" />
    <sodipodi:guide
       position="204.8631,36.285713"
       orientation="0,1"
       id="guide1670"
       inkscape:locked="false" />
  </sodipodi:namedview>
  <metadata
     id="metadata1010">
    <rdf:RDF>
      <cc:Work
         rdf:about="">
        <dc:format>image/svg+xml</dc:format>
        <dc:type
           rdf:resource="http://purl.org/dc/dcmitype/StillImage" />
        <dc:title></dc:title>
      </cc:Work>
    </rdf:RDF>
  </metadata>
  <g
     inkscape:label="Layer 1"
     inkscape:groupmode="layer"
     id="layer1"
     transform="translate(0,-87)">
    <flowRoot
       xml:space="preserve"
       id="flowRoot1585"
       style="fill:black;stroke:none;stroke-opacity:1;stroke-width:1px;stroke-linejoin:miter;stroke-linecap:butt;fill-opacity:1;font-family:sans-serif;font-style:normal;font-weight:normal;font-size:37.5px;line-height:1000%;letter-spacing:32.34000015px;word-spacing:0px"><flowRegion
         id="flowRegion1587"><rect
           id="rect1589"
           width="54.548237"
           height="52.527931"
           x="379.81735"
           y="383.57886" /></flowRegion><flowPara
         id="flowPara1591" /></flowRoot>    <path
       inkscape:connector-curvature="0"
       id="path1625"
       d="m 463.56391,431.06516 c -0.36785,-0.55681 -0.65858,-0.79118 -1.24145,-1.00077 -0.4186,-0.15053 -0.7611,-0.32875 -0.7611,-0.39603 0,-0.0673 0.14417,-0.74064 0.32037,-1.49633 0.17621,-0.75571 0.32038,-1.46484 0.32038,-1.57585 0,-0.14667 -0.73364,-0.25441 -2.68313,-0.39406 -9.89125,-0.70855 -10.42546,-0.75322 -10.55478,-0.88253 -0.37511,-0.37513 0.48188,-0.43141 6.56898,-0.43141 5.31309,0 6.50218,-0.0399 6.7582,-0.22717 0.17089,-0.12496 0.27477,-0.26147 0.23085,-0.30337 -0.0439,-0.0419 -1.53681,-0.22206 -3.31754,-0.40036 -1.78074,-0.17829 -3.31371,-0.37113 -3.4066,-0.42854 -0.49307,-0.30473 0.30594,-0.40261 3.28677,-0.40261 h 3.27133 l 0.0984,-0.39197 c 0.23909,-0.9526 -0.81418,-2.63052 -2.13835,-3.40654 -1.01455,-0.59456 -2.20577,-0.6073 -3.32019,-0.0355 -0.44051,0.22603 -1.44969,0.74412 -2.24262,1.15131 -2.78176,1.42853 -5.17244,1.98535 -7.84917,1.82817 -2.84585,-0.16712 -4.95728,-0.96077 -8.11888,-3.05175 l -1.87159,-1.23781 -1.41225,0.47556 c -0.77674,0.26156 -2.70347,1.05886 -4.28162,1.77179 -1.57815,0.71291 -2.88944,1.27612 -2.91396,1.2516 -0.0245,-0.0245 0.45573,-0.67992 1.06725,-1.45641 0.61153,-0.7765 1.11186,-1.4664 1.11186,-1.5331 0,-0.0667 -0.97218,-0.16791 -2.16039,-0.22489 -1.18821,-0.057 -2.66594,-0.1506 -3.28383,-0.20803 -1.10457,-0.10266 -1.12345,-0.1121 -1.12345,-0.56197 v -0.45756 l 2.52294,-0.005 c 2.95716,-0.007 5.6119,-0.21588 5.85757,-0.46154 0.0954,-0.0954 0.14104,-0.18064 0.1014,-0.1894 -0.0396,-0.009 -1.50789,-0.1713 -3.26277,-0.36126 -2.14178,-0.23182 -3.21252,-0.4109 -3.25713,-0.54474 -0.0518,-0.1553 0.76706,-0.19939 3.70279,-0.19939 h 3.76926 l 1.9275,-2.12249 1.92751,-2.12248 0.003,-2.92037 c 0.004,-3.40786 0.32249,-3.01406 -2.55977,-3.16268 -2.18908,-0.11289 -8.46011,-0.54069 -9.37095,-0.63927 -0.3524,-0.0382 -0.70009,-0.073 -0.77263,-0.0775 -0.0725,-0.004 -0.10858,-0.11415 -0.0801,-0.24372 0.0599,-0.27272 2.50634,-0.37452 9.46278,-0.39375 2.50461,-0.007 4.12483,-0.0715 4.12483,-0.16435 0,-0.18221 -0.59485,-0.28722 -2.32271,-0.41 -2.43236,-0.17283 -6.37331,-0.56784 -6.51035,-0.65252 -0.50949,-0.3149 0.2486,-0.38642 4.09601,-0.38642 h 4.23343 l 0.0992,-0.92106 c 0.15239,-1.41412 0.3891,-2.30031 0.80527,-3.01476 0.81741,-1.40331 2.50559,-2.02334 4.60456,-1.69111 0.81694,0.1293 1.44699,0.13612 2.12286,0.023 2.20609,-0.36934 4.49799,-0.12558 7.01347,0.74593 l 1.24673,0.43194 0.81798,-0.34561 c 0.4499,-0.19006 0.89805,-0.29801 0.9959,-0.23986 0.0978,0.0581 0.81301,0.56975 1.58926,1.1369 l 1.41135,1.03119 1.6322,-0.11246 c 1.82366,-0.12566 2.35305,-0.34823 2.35305,-0.9893 0,-0.22757 -0.4583,-1.18102 -1.01843,-2.11879 -0.56014,-0.93777 -1.4707,-2.53908 -2.02348,-3.55845 -0.55278,-1.01938 -1.08995,-1.9695 -1.19371,-2.11141 -0.1928,-0.26367 -1.63397,-0.41114 -9.05992,-0.92713 -3.01226,-0.20928 -3.06975,-0.21968 -2.94952,-0.53299 0.0746,-0.19438 0.96203,-0.23455 5.60024,-0.25343 5.19288,-0.0212 6.47995,-0.11871 6.47995,-0.49124 0,-0.22245 -1.51973,-0.47229 -3.89611,-0.64052 -3.23688,-0.22917 -4.87149,-0.58737 -3.97653,-0.87142 0.16586,-0.0527 2.13121,-0.10103 4.36743,-0.10754 4.84541,-0.0141 5.23384,-0.089 6.8211,-1.31539 3.23003,-2.49565 4.90968,-3.37407 6.45553,-3.37611 1.38133,-10e-4 2.3806,0.49105 4.2125,2.0777 0.90199,0.78125 1.49672,1.187 1.65232,1.12729 0.1337,-0.0513 1.53394,-0.8146 3.11165,-1.69619 1.5777,-0.8816 2.93105,-1.60291 3.00744,-1.60291 0.19981,0 0.51069,0.74557 0.51069,1.22476 0,0.56547 -0.60741,1.08824 -3.08144,2.65206 -1.15662,0.7311 -2.1723,1.37598 -2.25705,1.43309 -0.0855,0.0577 0.30165,0.82308 0.87018,1.72027 l 1.02428,1.61642 0.93517,0.18555 c 0.51434,0.10206 0.9725,0.28286 1.01814,0.40179 0.0457,0.11894 -0.15261,0.48456 -0.44056,0.81251 -0.59966,0.68299 -1.27873,2.09946 -1.67411,3.49211 -0.98183,3.45825 -4.11705,5.83146 -7.71742,5.84172 -0.98519,0.003 -1.56981,0.19696 -1.71246,0.5687 -0.0894,0.23286 0.48281,1.14564 1.70343,2.71751 0.0684,0.0881 0.33087,0.45418 0.58323,0.81351 0.39849,0.5674 0.63028,0.70999 1.76219,1.08409 2.35951,0.77982 4.97953,1.14234 5.84786,0.80914 0.13835,-0.0531 0.63945,-0.65009 1.11353,-1.32666 0.47408,-0.67657 1.12251,-1.42884 1.44095,-1.67173 1.60378,-1.22326 3.49041,-1.12677 4.89917,0.25055 0.87737,0.85779 1.13128,1.54254 1.13128,3.05091 0,1.29005 -0.0226,1.37292 -0.60071,2.19734 -0.87962,1.25454 -1.69863,1.64807 -3.24379,1.55864 -0.83119,-0.0481 -1.51952,-0.20509 -2.23377,-0.50941 l -1.03238,-0.43988 -2.17137,0.19442 c -1.19425,0.10693 -2.29375,0.25844 -2.44333,0.33669 -0.14956,0.0782 -0.40037,0.35968 -0.55733,0.6254 -0.59997,1.01566 -2.8064,1.04062 -5.16963,0.0585 -2.13505,-0.88731 -1.98272,-0.91019 -2.64077,0.39653 -0.31409,0.6237 -0.57107,1.16589 -0.57107,1.20488 0,0.039 0.70282,0.30372 1.56182,0.5883 4.67863,1.54999 6.64132,3.24818 7.12455,6.16438 0.17319,1.04517 0.095,2.0611 -0.37412,4.85976 -0.13643,0.81396 -0.12866,1.04933 0.038,1.15235 0.40543,0.25056 2.31507,0.35094 5.13718,0.27002 1.56839,-0.045 2.85163,-0.0283 2.85163,0.0371 0,0.28133 -6.68466,2.99348 -9.61123,3.89954 -2.30908,0.71489 -6.08746,1.67766 -7.0442,1.79493 -0.71602,0.0878 -0.73074,0.08 -1.20522,-0.63825 z m -13.35867,-14.60631 c 4.09678,-1.21459 6.73261,-5.30831 6.09848,-9.47158 -0.2863,-1.87966 -1.08077,-3.37181 -2.57999,-4.84567 -1.81006,-1.77943 -3.53057,-2.563 -5.6278,-2.563 -1.76492,0 -1.92175,0.0887 -2.447,1.38414 -0.56855,1.40221 -1.31156,2.50593 -1.93747,2.87806 -0.35823,0.21298 -0.91747,0.30973 -2.0621,0.35672 -1.38705,0.057 -1.59668,0.10438 -1.79396,0.40592 -0.72328,1.1055 -0.98506,4.38323 -0.48848,6.11623 0.70218,2.45061 2.69349,4.64783 4.95258,5.46472 2.00155,0.72376 4.04831,0.8192 5.88574,0.27446 z m -8.55498,-2.72487 c -0.0848,-0.0848 1.87761,-2.23209 2.89122,-3.16355 0.52577,-0.48317 0.68911,-0.93596 0.32037,-0.88807 -0.79994,0.10387 -0.92108,0.006 -0.92108,-0.74381 v -0.73185 l 1.29038,0.11256 c 1.26847,0.11066 1.29849,0.10479 1.76789,-0.34491 0.52749,-0.50538 0.88389,-0.43508 1.18669,0.23411 0.18852,0.41662 0.24976,0.43237 2.64309,0.6802 3.50736,0.36319 3.08231,0.54913 -1.55853,0.68184 l -2.43955,0.0697 -1.64522,1.32678 c -0.90487,0.72973 -1.68126,1.36766 -1.72531,1.41763 -0.0441,0.0499 -0.34417,0.28757 -0.66693,0.52803 -0.32276,0.24045 -0.69262,0.54297 -0.82191,0.67226 -0.1293,0.12928 -0.2738,0.19636 -0.32111,0.14904 z m 9.12982,-5.78559 c 0.41574,-1.55803 -0.75344,-2.91638 -2.32486,-2.701 -0.39475,0.0542 -0.81684,0.18064 -0.93799,0.28117 -0.12115,0.10055 -0.25765,0.14544 -0.30333,0.0998 -0.0457,-0.0457 0.17643,-0.23616 0.49359,-0.42328 1.82271,-1.07544 3.99371,0.49839 3.45285,2.50309 -0.10103,0.37442 -0.25436,0.68079 -0.34075,0.68079 -0.0931,0 -0.10915,-0.17954 -0.0395,-0.44052 z m 1.26185,-0.92108 c 0.239,-1.06122 0.15073,-1.65858 -0.3173,-2.1471 -0.44456,-0.46402 -1.96377,-1.36527 -2.89815,-1.71928 -0.87333,-0.33088 -0.0352,-0.4271 1.06794,-0.12261 1.7334,0.47845 2.38284,1.08499 2.61161,2.4391 0.0821,0.48616 0.0266,0.80508 -0.2322,1.33463 -0.26924,0.5508 -0.31757,0.59567 -0.2319,0.21526 z"
       style="fill:#ff6600;fill-opacity:1;stroke-width:0.1601872" />
    <path
       style="fill:#800080;fill-opacity:1;stroke-width:0.1601872"
       d="m 465.83571,431.06516 c -0.36786,-0.55681 -0.65859,-0.79118 -1.24145,-1.00077 -0.41861,-0.15053 -0.7611,-0.32875 -0.7611,-0.39603 0,-0.0673 0.14416,-0.74064 0.32037,-1.49633 0.1762,-0.75571 0.32037,-1.46484 0.32037,-1.57585 0,-0.14667 -0.73364,-0.25441 -2.68313,-0.39406 -9.89125,-0.70855 -10.42545,-0.75322 -10.55478,-0.88253 -0.37511,-0.37513 0.48188,-0.43141 6.56898,-0.43141 5.31309,0 6.50218,-0.0399 6.7582,-0.22717 0.17089,-0.12496 0.27477,-0.26147 0.23085,-0.30337 -0.0439,-0.0419 -1.53681,-0.22206 -3.31754,-0.40036 -1.78074,-0.17829 -3.31371,-0.37113 -3.40659,-0.42854 -0.49308,-0.30473 0.30593,-0.40261 3.28676,-0.40261 h 3.27133 l 0.0984,-0.39197 c 0.23909,-0.9526 -0.81418,-2.63052 -2.13835,-3.40654 -1.01455,-0.59456 -2.20577,-0.6073 -3.32019,-0.0355 -0.44051,0.22603 -1.44969,0.74412 -2.24262,1.15131 -2.78176,1.42853 -5.17244,1.98535 -7.84917,1.82817 -2.84585,-0.16712 -4.95728,-0.96077 -8.11888,-3.05175 l -1.87158,-1.23781 -1.41226,0.47556 c -0.77674,0.26156 -2.70347,1.05886 -4.28162,1.77179 -1.57815,0.71291 -2.88943,1.27612 -2.91396,1.2516 -0.0245,-0.0245 0.45573,-0.67992 1.06725,-1.45641 0.61153,-0.7765 1.11186,-1.4664 1.11186,-1.5331 0,-0.0667 -0.97218,-0.16791 -2.16038,-0.22489 -1.18822,-0.057 -2.66594,-0.1506 -3.28384,-0.20803 -1.10457,-0.10266 -1.12345,-0.1121 -1.12345,-0.56197 v -0.45756 l 2.52295,-0.005 c 2.95715,-0.007 5.61189,-0.21588 5.85756,-0.46154 0.0954,-0.0954 0.14104,-0.18064 0.1014,-0.1894 -0.0396,-0.009 -1.50789,-0.1713 -3.26276,-0.36126 -2.14179,-0.23182 -3.21253,-0.4109 -3.25714,-0.54474 -0.0518,-0.1553 0.76706,-0.19939 3.70279,-0.19939 h 3.76926 l 1.9275,-2.12249 1.92751,-2.12248 0.003,-2.92037 c 0.004,-3.40786 0.32249,-3.01406 -2.55977,-3.16268 -2.18908,-0.11289 -8.46011,-0.54069 -9.37094,-0.63927 -0.35241,-0.0382 -0.7001,-0.073 -0.77264,-0.0775 -0.0725,-0.004 -0.10858,-0.11415 -0.0801,-0.24372 0.0599,-0.27272 2.50634,-0.37452 9.46279,-0.39375 2.5046,-0.007 4.12482,-0.0715 4.12482,-0.16435 0,-0.18221 -0.59485,-0.28722 -2.32271,-0.41 -2.43236,-0.17283 -6.37331,-0.56784 -6.51035,-0.65252 -0.50949,-0.3149 0.2486,-0.38642 4.09601,-0.38642 h 4.23344 l 0.0992,-0.92106 c 0.15238,-1.41412 0.38909,-2.30031 0.80526,-3.01476 0.81741,-1.40331 2.50559,-2.02334 4.60457,-1.69111 0.81694,0.1293 1.44698,0.13612 2.12285,0.023 2.20609,-0.36934 4.49799,-0.12558 7.01347,0.74593 l 1.24673,0.43194 0.81799,-0.34561 c 0.44989,-0.19006 0.89804,-0.29801 0.99589,-0.23986 0.0978,0.0581 0.81301,0.56975 1.58926,1.1369 l 1.41135,1.03119 1.6322,-0.11246 c 1.82367,-0.12566 2.35305,-0.34823 2.35305,-0.9893 0,-0.22757 -0.4583,-1.18102 -1.01843,-2.11879 -0.56014,-0.93777 -1.4707,-2.53908 -2.02348,-3.55845 -0.55278,-1.01938 -1.08995,-1.9695 -1.1937,-2.11141 -0.19281,-0.26367 -1.63398,-0.41114 -9.05993,-0.92713 -3.01226,-0.20928 -3.06975,-0.21968 -2.94952,-0.53299 0.0746,-0.19438 0.96203,-0.23455 5.60024,-0.25343 5.19288,-0.0212 6.47995,-0.11871 6.47995,-0.49124 0,-0.22245 -1.51973,-0.47229 -3.89611,-0.64052 -3.23687,-0.22917 -4.87149,-0.58737 -3.97653,-0.87142 0.16586,-0.0527 2.13121,-0.10103 4.36743,-0.10754 4.84541,-0.0141 5.23385,-0.089 6.8211,-1.31539 3.23003,-2.49565 4.90968,-3.37407 6.45553,-3.37611 1.38133,-10e-4 2.3806,0.49105 4.2125,2.0777 0.902,0.78125 1.49672,1.187 1.65232,1.12729 0.1337,-0.0513 1.53394,-0.8146 3.11165,-1.69619 1.5777,-0.8816 2.93105,-1.60291 3.00744,-1.60291 0.19981,0 0.51069,0.74557 0.51069,1.22476 0,0.56547 -0.6074,1.08824 -3.08144,2.65206 -1.15662,0.7311 -2.1723,1.37598 -2.25705,1.43309 -0.0855,0.0577 0.30166,0.82308 0.87018,1.72027 l 1.02428,1.61642 0.93517,0.18555 c 0.51434,0.10206 0.9725,0.28286 1.01814,0.40179 0.0456,0.11894 -0.15261,0.48456 -0.44056,0.81251 -0.59966,0.68299 -1.27873,2.09946 -1.67411,3.49211 -0.98183,3.45825 -4.11704,5.83146 -7.71742,5.84172 -0.98519,0.003 -1.5698,0.19696 -1.71246,0.5687 -0.0894,0.23286 0.48281,1.14564 1.70343,2.71751 0.0684,0.0881 0.33087,0.45418 0.58323,0.81351 0.39849,0.5674 0.63028,0.70999 1.76219,1.08409 2.35951,0.77982 4.97953,1.14234 5.84786,0.80914 0.13836,-0.0531 0.63945,-0.65009 1.11353,-1.32666 0.47408,-0.67657 1.12251,-1.42884 1.44095,-1.67173 1.60378,-1.22326 3.49041,-1.12677 4.89917,0.25055 0.87738,0.85779 1.13128,1.54254 1.13128,3.05091 0,1.29005 -0.0226,1.37292 -0.60071,2.19734 -0.87962,1.25454 -1.69863,1.64807 -3.24379,1.55864 -0.83119,-0.0481 -1.51952,-0.20509 -2.23376,-0.50941 l -1.03239,-0.43988 -2.17137,0.19442 c -1.19425,0.10693 -2.29375,0.25844 -2.44333,0.33669 -0.14956,0.0782 -0.40037,0.35968 -0.55733,0.6254 -0.59997,1.01566 -2.8064,1.04062 -5.16963,0.0585 -2.13505,-0.88731 -1.98272,-0.91019 -2.64077,0.39653 -0.31409,0.6237 -0.57107,1.16589 -0.57107,1.20488 0,0.039 0.70282,0.30372 1.56183,0.5883 4.67862,1.54999 6.64131,3.24818 7.12455,6.16438 0.17319,1.04517 0.095,2.0611 -0.37412,4.85976 -0.13644,0.81396 -0.12866,1.04933 0.038,1.15235 0.40542,0.25056 2.31506,0.35094 5.13717,0.27002 1.56839,-0.045 2.85163,-0.0283 2.85163,0.0371 0,0.28133 -6.68466,2.99348 -9.61123,3.89954 -2.30908,0.71489 -6.08746,1.67766 -7.0442,1.79493 -0.71602,0.0878 -0.73074,0.08 -1.20522,-0.63825 z m -13.35868,-14.60631 c 4.09678,-1.21459 6.73261,-5.30831 6.09848,-9.47158 -0.2863,-1.87966 -1.08077,-3.37181 -2.57998,-4.84567 -1.81007,-1.77943 -3.53058,-2.563 -5.62781,-2.563 -1.76492,0 -1.92175,0.0887 -2.447,1.38414 -0.56855,1.40221 -1.31156,2.50593 -1.93747,2.87806 -0.35823,0.21298 -0.91747,0.30973 -2.0621,0.35672 -1.38704,0.057 -1.59668,0.10438 -1.79396,0.40592 -0.72327,1.1055 -0.98506,4.38323 -0.48848,6.11623 0.70218,2.45061 2.69349,4.64783 4.95258,5.46472 2.00155,0.72376 4.04831,0.8192 5.88574,0.27446 z m -8.55498,-2.72487 c -0.0848,-0.0848 1.87761,-2.23209 2.89122,-3.16355 0.52577,-0.48317 0.68911,-0.93596 0.32037,-0.88807 -0.79994,0.10387 -0.92108,0.006 -0.92108,-0.74381 v -0.73185 l 1.29039,0.11256 c 1.26846,0.11066 1.29848,0.10479 1.76788,-0.34491 0.52749,-0.50538 0.88389,-0.43508 1.18669,0.23411 0.18852,0.41662 0.24976,0.43237 2.64309,0.6802 3.50736,0.36319 3.08231,0.54913 -1.55853,0.68184 l -2.43955,0.0697 -1.64522,1.32678 c -0.90487,0.72973 -1.68126,1.36766 -1.72531,1.41763 -0.0441,0.0499 -0.34417,0.28757 -0.66693,0.52803 -0.32276,0.24045 -0.69262,0.54297 -0.82191,0.67226 -0.1293,0.12928 -0.27379,0.19636 -0.32111,0.14904 z m 9.12982,-5.78559 c 0.41574,-1.55803 -0.75344,-2.91638 -2.32486,-2.701 -0.39475,0.0542 -0.81684,0.18064 -0.93799,0.28117 -0.12115,0.10055 -0.25765,0.14544 -0.30333,0.0998 -0.0457,-0.0457 0.17643,-0.23616 0.49359,-0.42328 1.82272,-1.07544 3.99372,0.49839 3.45285,2.50309 -0.10102,0.37442 -0.25436,0.68079 -0.34075,0.68079 -0.0931,0 -0.10915,-0.17954 -0.0395,-0.44052 z m 1.26185,-0.92108 c 0.23901,-1.06122 0.15073,-1.65858 -0.3173,-2.1471 -0.44456,-0.46402 -1.96377,-1.36527 -2.89815,-1.71928 -0.87333,-0.33088 -0.0352,-0.4271 1.06794,-0.12261 1.7334,0.47845 2.38284,1.08499 2.61162,2.4391 0.0821,0.48616 0.0266,0.80508 -0.23221,1.33463 -0.26924,0.5508 -0.31757,0.59567 -0.2319,0.21526 z"
       id="path963"
       inkscape:connector-curvature="0" />
    <text
       xml:space="preserve"
       style="font-style:normal;font-weight:normal;font-size:44.22097778px;line-height:1000%;font-family:sans-serif;letter-spacing:38.13616943px;word-spacing:0px;fill:#000000;fill-opacity:1;stroke:none;stroke-width:1.17922592px;stroke-linecap:butt;stroke-linejoin:miter;stroke-opacity:1"
       x="496.05835"
       y="414.22336"
       id="text1595"><tspan
         sodipodi:role="line"
         id="tspan1593"
         x="496.05835"
         y="414.22336"
         style="font-style:normal;font-variant:normal;font-weight:normal;font-stretch:normal;font-family:'Gotham Black';-inkscape-font-specification:'Gotham Black, ';letter-spacing:0px;stroke-width:1.17922592px">EXPRESS</tspan></text>
    <text
       xml:space="preserve"
       style="font-style:normal;font-weight:normal;font-size:9.921875px;line-height:1000%;font-family:sans-serif;letter-spacing:8.55662537px;word-spacing:0px;fill:#000000;fill-opacity:1;stroke:none;stroke-width:0.26458332px;stroke-linecap:butt;stroke-linejoin:miter;stroke-opacity:1"
       x="498.42026"
       y="428.80374"
       id="text1601"><tspan
         sodipodi:role="line"
         id="tspan1599"
         x="498.42026"
         y="428.80374"
         style="font-style:normal;font-variant:normal;font-weight:normal;font-stretch:normal;font-family:'Gotham Black';-inkscape-font-specification:'Gotham Black, ';letter-spacing:8.55662537px;word-spacing:2.64583325px;stroke-width:0.26458332px">MESSENGERS LTD</tspan></text>
    <path
       inkscape:connector-curvature="0"
       id="path1633"
       d="m 465.83571,497.348 c -0.36786,-0.55681 -0.65859,-0.79118 -1.24145,-1.00077 -0.41861,-0.15053 -0.7611,-0.32875 -0.7611,-0.39603 0,-0.0673 0.14416,-0.74064 0.32037,-1.49633 0.1762,-0.75571 0.32037,-1.46484 0.32037,-1.57585 0,-0.14667 -0.73364,-0.25441 -2.68313,-0.39406 -9.89125,-0.70855 -10.42545,-0.75322 -10.55478,-0.88253 -0.37511,-0.37513 0.48188,-0.43141 6.56898,-0.43141 5.31309,0 6.50218,-0.0399 6.7582,-0.22717 0.17089,-0.12496 0.27477,-0.26147 0.23085,-0.30337 -0.0439,-0.0419 -1.53681,-0.22206 -3.31754,-0.40036 -1.78074,-0.17829 -3.31371,-0.37113 -3.40659,-0.42854 -0.49308,-0.30473 0.30593,-0.40261 3.28676,-0.40261 h 3.27133 l 0.0984,-0.39197 c 0.23909,-0.9526 -0.81418,-2.63052 -2.13835,-3.40654 -1.01455,-0.59456 -2.20577,-0.6073 -3.32019,-0.0355 -0.44051,0.22603 -1.44969,0.74412 -2.24262,1.15131 -2.78176,1.42853 -5.17244,1.98535 -7.84917,1.82817 -2.84585,-0.16712 -4.95728,-0.96077 -8.11888,-3.05175 l -1.87158,-1.23781 -1.41226,0.47556 c -0.77674,0.26156 -2.70347,1.05886 -4.28162,1.77179 -1.57815,0.71291 -2.88943,1.27612 -2.91396,1.2516 -0.0245,-0.0245 0.45573,-0.67992 1.06725,-1.45641 0.61153,-0.7765 1.11186,-1.4664 1.11186,-1.5331 0,-0.0667 -0.97218,-0.16791 -2.16038,-0.22489 -1.18822,-0.057 -2.66594,-0.1506 -3.28384,-0.20803 -1.10457,-0.10266 -1.12345,-0.1121 -1.12345,-0.56197 v -0.45756 l 2.52295,-0.005 c 2.95715,-0.007 5.61189,-0.21588 5.85756,-0.46154 0.0954,-0.0954 0.14104,-0.18064 0.1014,-0.1894 -0.0396,-0.009 -1.50789,-0.1713 -3.26276,-0.36126 -2.14179,-0.23182 -3.21253,-0.4109 -3.25714,-0.54474 -0.0518,-0.1553 0.76706,-0.19939 3.70279,-0.19939 h 3.76926 l 1.9275,-2.12249 1.92751,-2.12248 0.003,-2.92037 c 0.004,-3.40786 0.32249,-3.01406 -2.55977,-3.16268 -2.18908,-0.11289 -8.46011,-0.54069 -9.37094,-0.63927 -0.35241,-0.0382 -0.7001,-0.073 -0.77264,-0.0775 -0.0725,-0.004 -0.10858,-0.11415 -0.0801,-0.24372 0.0599,-0.27272 2.50634,-0.37452 9.46279,-0.39375 2.5046,-0.007 4.12482,-0.0715 4.12482,-0.16435 0,-0.18221 -0.59485,-0.28722 -2.32271,-0.41 -2.43236,-0.17283 -6.37331,-0.56784 -6.51035,-0.65252 -0.50949,-0.3149 0.2486,-0.38642 4.09601,-0.38642 h 4.23344 l 0.0992,-0.92106 c 0.15238,-1.41412 0.38909,-2.30031 0.80526,-3.01476 0.81741,-1.40331 2.50559,-2.02334 4.60457,-1.69111 0.81694,0.1293 1.44698,0.13612 2.12285,0.023 2.20609,-0.36934 4.49799,-0.12558 7.01347,0.74593 l 1.24673,0.43194 0.81799,-0.34561 c 0.44989,-0.19006 0.89804,-0.29801 0.99589,-0.23986 0.0978,0.0581 0.81301,0.56975 1.58926,1.1369 l 1.41135,1.03119 1.6322,-0.11246 c 1.82367,-0.12566 2.35305,-0.34823 2.35305,-0.9893 0,-0.22757 -0.4583,-1.18102 -1.01843,-2.11879 -0.56014,-0.93777 -1.4707,-2.53908 -2.02348,-3.55845 -0.55278,-1.01938 -1.08995,-1.9695 -1.1937,-2.11141 -0.19281,-0.26367 -1.63398,-0.41114 -9.05993,-0.92713 -3.01226,-0.20928 -3.06975,-0.21968 -2.94952,-0.53299 0.0746,-0.19438 0.96203,-0.23455 5.60024,-0.25343 5.19288,-0.0212 6.47995,-0.11871 6.47995,-0.49124 0,-0.22245 -1.51973,-0.47229 -3.89611,-0.64052 -3.23687,-0.22917 -4.87149,-0.58737 -3.97653,-0.87142 0.16586,-0.0527 2.13121,-0.10103 4.36743,-0.10754 4.84541,-0.0141 5.23385,-0.089 6.8211,-1.31539 3.23003,-2.49565 4.90968,-3.37407 6.45553,-3.37611 1.38133,-0.001 2.3806,0.49105 4.2125,2.0777 0.902,0.78125 1.49672,1.187 1.65232,1.12729 0.1337,-0.0513 1.53394,-0.8146 3.11165,-1.69619 1.5777,-0.8816 2.93105,-1.60291 3.00744,-1.60291 0.19981,0 0.51069,0.74557 0.51069,1.22476 0,0.56547 -0.6074,1.08824 -3.08144,2.65206 -1.15662,0.7311 -2.1723,1.37598 -2.25705,1.43309 -0.0855,0.0577 0.30166,0.82308 0.87018,1.72027 l 1.02428,1.61642 0.93517,0.18555 c 0.51434,0.10206 0.9725,0.28286 1.01814,0.40179 0.0456,0.11894 -0.15261,0.48456 -0.44056,0.81251 -0.59966,0.68299 -1.27873,2.09946 -1.67411,3.49211 -0.98183,3.45825 -4.11704,5.83146 -7.71742,5.84172 -0.98519,0.003 -1.5698,0.19696 -1.71246,0.5687 -0.0894,0.23286 0.48281,1.14564 1.70343,2.71751 0.0684,0.0881 0.33087,0.45418 0.58323,0.81351 0.39849,0.5674 0.63028,0.70999 1.76219,1.08409 2.35951,0.77982 4.97953,1.14234 5.84786,0.80914 0.13836,-0.0531 0.63945,-0.65009 1.11353,-1.32666 0.47408,-0.67657 1.12251,-1.42884 1.44095,-1.67173 1.60378,-1.22326 3.49041,-1.12677 4.89917,0.25055 0.87738,0.85779 1.13128,1.54254 1.13128,3.05091 0,1.29005 -0.0226,1.37292 -0.60071,2.19734 -0.87962,1.25454 -1.69863,1.64807 -3.24379,1.55864 -0.83119,-0.0481 -1.51952,-0.20509 -2.23376,-0.50941 l -1.03239,-0.43988 -2.17137,0.19442 c -1.19425,0.10693 -2.29375,0.25844 -2.44333,0.33669 -0.14956,0.0782 -0.40037,0.35968 -0.55733,0.6254 -0.59997,1.01566 -2.8064,1.04062 -5.16963,0.0585 -2.13505,-0.88731 -1.98272,-0.91019 -2.64077,0.39653 -0.31409,0.6237 -0.57107,1.16589 -0.57107,1.20488 0,0.039 0.70282,0.30372 1.56183,0.5883 4.67862,1.54999 6.64131,3.24818 7.12455,6.16438 0.17319,1.04517 0.095,2.0611 -0.37412,4.85976 -0.13644,0.81396 -0.12866,1.04933 0.038,1.15235 0.40542,0.25056 2.31506,0.35094 5.13717,0.27002 1.56839,-0.045 2.85163,-0.0283 2.85163,0.0371 0,0.28133 -6.68466,2.99348 -9.61123,3.89954 -2.30908,0.71489 -6.08746,1.67766 -7.0442,1.79493 -0.71602,0.0878 -0.73074,0.08 -1.20522,-0.63825 z m -13.35868,-14.60631 c 4.09678,-1.21459 6.73261,-5.30831 6.09848,-9.47158 -0.2863,-1.87966 -1.08077,-3.37181 -2.57998,-4.84567 -1.81007,-1.77943 -3.53058,-2.563 -5.62781,-2.563 -1.76492,0 -1.92175,0.0887 -2.447,1.38414 -0.56855,1.40221 -1.31156,2.50593 -1.93747,2.87806 -0.35823,0.21298 -0.91747,0.30973 -2.0621,0.35672 -1.38704,0.057 -1.59668,0.10438 -1.79396,0.40592 -0.72327,1.1055 -0.98506,4.38323 -0.48848,6.11623 0.70218,2.45061 2.69349,4.64783 4.95258,5.46472 2.00155,0.72376 4.04831,0.8192 5.88574,0.27446 z m -8.55498,-2.72487 c -0.0848,-0.0848 1.87761,-2.23209 2.89122,-3.16355 0.52577,-0.48317 0.68911,-0.93596 0.32037,-0.88807 -0.79994,0.10387 -0.92108,0.006 -0.92108,-0.74381 v -0.73185 l 1.29039,0.11256 c 1.26846,0.11066 1.29848,0.10479 1.76788,-0.34491 0.52749,-0.50538 0.88389,-0.43508 1.18669,0.23411 0.18852,0.41662 0.24976,0.43237 2.64309,0.6802 3.50736,0.36319 3.08231,0.54913 -1.55853,0.68184 l -2.43955,0.0697 -1.64522,1.32678 c -0.90487,0.72973 -1.68126,1.36766 -1.72531,1.41763 -0.0441,0.0499 -0.34417,0.28757 -0.66693,0.52803 -0.32276,0.24045 -0.69262,0.54297 -0.82191,0.67226 -0.1293,0.12928 -0.27379,0.19636 -0.32111,0.14904 z m 9.12982,-5.78559 c 0.41574,-1.55803 -0.75344,-2.91638 -2.32486,-2.701 -0.39475,0.0542 -0.81684,0.18064 -0.93799,0.28117 -0.12115,0.10055 -0.25765,0.14544 -0.30333,0.0998 -0.0457,-0.0457 0.17643,-0.23616 0.49359,-0.42328 1.82272,-1.07544 3.99372,0.49839 3.45285,2.50309 -0.10102,0.37442 -0.25436,0.68079 -0.34075,0.68079 -0.0931,0 -0.10915,-0.17954 -0.0395,-0.44052 z m 1.26185,-0.92108 c 0.23901,-1.06122 0.15073,-1.65858 -0.3173,-2.1471 -0.44456,-0.46402 -1.96377,-1.36527 -2.89815,-1.71928 -0.87333,-0.33088 -0.0352,-0.4271 1.06794,-0.12261 1.7334,0.47845 2.38284,1.08499 2.61162,2.4391 0.0821,0.48616 0.0266,0.80508 -0.23221,1.33463 -0.26924,0.5508 -0.31757,0.59567 -0.2319,0.21526 z"
       style="fill:#0000ff;fill-opacity:1;stroke-width:0.1601872" />
    <rect
       style="opacity:1;fill:#800080;fill-opacity:1;stroke:none;stroke-width:1;stroke-linecap:butt;stroke-miterlimit:4;stroke-dasharray:none;stroke-dashoffset:0;stroke-opacity:1"
       id="rect1635"
       width="61.799107"
       height="19.087799"
       x="-64.407425"
       y="248.73894" />
    <path
       style="opacity:1;fill:#d45500;fill-opacity:1;stroke:none;stroke-width:1;stroke-linecap:butt;stroke-miterlimit:4;stroke-dasharray:none;stroke-dashoffset:0;stroke-opacity:1"
       d="m 441.49431,463.42945 c -0.3044,0.24969 -0.56231,0.55027 -0.76585,0.89969 -0.41616,0.71445 -0.65273,1.60068 -0.80511,3.0148 l -0.0992,0.92088 h -4.23334 c -3.84741,0 -4.60537,0.0716 -4.09587,0.38654 0.13703,0.0847 4.07785,0.47984 6.5102,0.65267 1.72786,0.12278 2.32285,0.22758 2.32285,0.40979 0,0.0929 -1.62021,0.15734 -4.12481,0.16433 -6.95645,0.0192 -9.40305,0.12106 -9.46299,0.39378 -0.0285,0.12957 0.008,0.23991 0.0801,0.24391 0.0725,0.005 0.42015,0.0393 0.77256,0.0775 0.91084,0.0986 7.18192,0.52634 9.371,0.63923 2.88226,0.14863 2.56354,-0.24526 2.55954,3.1626 l -0.003,2.92024 -1.92753,2.12286 -1.92753,2.12236 h -3.76928 c -2.93574,0 -3.7549,0.0442 -3.70314,0.19947 0.0446,0.13384 1.11539,0.31285 3.25717,0.54467 1.03197,0.1117 1.31725,0.14536 1.91875,0.21239 h 13.41055 c -0.0487,-0.0169 -0.0975,-0.0325 -0.14625,-0.0501 -2.25908,-0.81689 -4.25048,-3.01417 -4.95267,-5.46478 -0.49656,-1.733 -0.23442,-5.01041 0.48886,-6.11591 0.19728,-0.30154 0.40664,-0.34917 1.79369,-0.40618 1.14462,-0.047 1.70418,-0.14358 2.06241,-0.35656 0.6259,-0.37213 1.3688,-1.47565 1.93735,-2.87786 0.52525,-1.29544 0.68196,-1.38441 2.44688,-1.38441 2.09724,0 3.8175,0.78372 5.62756,2.56315 1.49921,1.47386 2.2939,2.96604 2.58021,4.84569 0.59966,3.93701 -1.72574,7.81031 -5.44464,9.24699 h 21.07107 c -1.13803,-1.0447 -2.83607,-1.89776 -5.28288,-2.70837 -0.859,-0.28457 -1.56218,-0.54907 -1.56218,-0.58807 0,-0.039 0.25695,-0.5814 0.57102,-1.2051 0.65807,-1.30672 0.50614,-1.28367 2.64119,-0.39636 2.36323,0.98212 4.56921,0.95727 5.16919,-0.0584 0.15695,-0.26572 0.40802,-0.54708 0.55759,-0.62529 0.14958,-0.0783 1.249,-0.22999 2.44326,-0.33693 l 2.17144,-0.1943 1.0325,0.43977 c 0.71425,0.30432 1.40226,0.46143 2.23345,0.50953 1.54516,0.0894 2.3641,-0.30402 3.24374,-1.55856 0.4218,-0.60153 0.54712,-0.81238 0.58445,-1.38131 v -1.387 c -0.0657,-1.12489 -0.35686,-1.73907 -1.11466,-2.47995 -1.40876,-1.37732 -3.29565,-1.47389 -4.89944,-0.25063 -0.31844,0.24289 -0.96666,0.99516 -1.44074,1.67173 -0.47409,0.67657 -0.97527,1.27343 -1.11362,1.32653 -0.86834,0.3332 -3.48819,-0.0294 -5.84771,-0.80925 -1.13191,-0.3741 -1.36368,-0.51677 -1.76216,-1.08417 -0.25237,-0.35933 -0.51503,-0.72529 -0.58343,-0.81339 -1.22063,-1.57187 -1.79266,-2.4848 -1.70326,-2.71766 0.14265,-0.37174 0.72685,-0.56544 1.71204,-0.56844 2.8648,-0.008 5.43113,-1.51564 6.85643,-3.87212 h -13.98363 c 0.21016,0.42777 0.34934,0.76783 0.34934,0.89039 0,0.64107 -0.52969,0.86343 -2.35335,0.98908 l -1.63194,0.11266 -1.41128,-1.03146 c -0.59531,-0.43495 -1.06535,-0.77054 -1.3379,-0.96067 h -1.07901 c -0.0564,0.0213 -0.11134,0.04 -0.16846,0.0641 l -0.81804,0.3452 -1.18287,-0.40928 z m 9.66142,5.70921 c -0.43811,-0.0171 -0.56082,0.0981 -0.015,0.30489 0.93437,0.35401 2.45345,1.25526 2.89802,1.71928 0.46802,0.48852 0.55629,1.08594 0.31729,2.14716 -0.0857,0.38041 -0.0372,0.33582 0.23203,-0.21498 0.25881,-0.52955 0.31413,-0.84864 0.23203,-1.3348 -0.22877,-1.35411 -0.87833,-1.96068 -2.61173,-2.43913 -0.41368,-0.11418 -0.78978,-0.17218 -1.05265,-0.18242 z m 0.25063,2.00453 c -0.4514,-0.0276 -0.92924,0.0758 -1.38492,0.34469 -0.31715,0.18712 -0.53922,0.37753 -0.49351,0.42323 0.0457,0.0456 0.18219,8.1e-4 0.30334,-0.0997 0.12114,-0.10053 0.54317,-0.22692 0.93792,-0.28112 1.57142,-0.21538 2.74068,1.1431 2.32493,2.70113 -0.0696,0.26098 -0.0532,0.44028 0.0398,0.44028 0.0864,0 0.23951,-0.30616 0.34054,-0.68058 0.40565,-1.50352 -0.71389,-2.76498 -2.06809,-2.84789 z m -1.48931,2.7833 c -0.17512,-10e-4 -0.37332,0.10962 -0.6041,0.33072 -0.4694,0.44971 -0.49938,0.45535 -1.76785,0.34469 l -1.29036,-0.11214 v 0.73174 c 0,0.74981 0.12146,0.84749 0.92139,0.74362 0.36875,-0.0479 0.20538,0.40515 -0.32039,0.88832 -1.0128,0.93072 -2.97278,3.07511 -2.8913,3.16311 0.0473,0.0473 0.19161,-0.0195 0.32091,-0.14882 0.12929,-0.12929 0.49941,-0.43187 0.82217,-0.67231 0.32276,-0.24046 0.62253,-0.47824 0.66663,-0.52814 0.044,-0.05 0.82061,-0.68775 1.72548,-1.41748 l 1.64537,-1.32654 2.43965,-0.0698 c 4.64083,-0.13271 5.0654,-0.31894 1.55804,-0.68213 -2.39334,-0.24783 -2.45421,-0.26344 -2.64273,-0.68006 -0.17033,-0.37642 -0.35776,-0.56326 -0.58291,-0.56482 z"
       id="rect1637"
       inkscape:connector-curvature="0" />
    <path
       style="fill:url(#linearGradient1650);fill-opacity:1;stroke-width:0.1601872"
       d="m 582.2499,253.03143 c -0.36785,-0.55681 -0.65858,-0.79118 -1.24145,-1.00077 -0.41861,-0.15053 -0.7611,-0.32875 -0.7611,-0.39603 0,-0.0673 0.14417,-0.74063 0.32037,-1.49633 0.17621,-0.75571 0.32038,-1.46483 0.32038,-1.57585 0,-0.14666 -0.73365,-0.25441 -2.68314,-0.39406 -9.89124,-0.70855 -10.42545,-0.75322 -10.55477,-0.88253 -0.37512,-0.37513 0.48188,-0.43141 6.56898,-0.43141 5.31308,0 6.50217,-0.0399 6.7582,-0.22717 0.17088,-0.12496 0.27476,-0.26147 0.23085,-0.30337 -0.0439,-0.0419 -1.53681,-0.22206 -3.31755,-0.40035 -1.78074,-0.17829 -3.3137,-0.37113 -3.40659,-0.42854 -0.49307,-0.30473 0.30594,-0.40261 3.28677,-0.40261 h 3.27133 l 0.0984,-0.39197 c 0.23909,-0.95261 -0.81419,-2.63052 -2.13836,-3.40654 -1.01454,-0.59456 -2.20576,-0.60731 -3.32018,-0.0355 -0.44052,0.22603 -1.4497,0.74413 -2.24263,1.15132 -2.78176,1.42853 -5.17244,1.98535 -7.84917,1.82817 -2.84585,-0.16712 -4.95728,-0.96078 -8.11887,-3.05176 l -1.87159,-1.23781 -1.41225,0.47556 c -0.77675,0.26156 -2.70347,1.05886 -4.28162,1.77179 -1.57815,0.71291 -2.88944,1.27612 -2.91396,1.2516 -0.0245,-0.0245 0.45573,-0.67992 1.06725,-1.45641 0.61152,-0.7765 1.11186,-1.4664 1.11186,-1.5331 0,-0.0667 -0.97218,-0.16791 -2.16039,-0.22489 -1.18821,-0.057 -2.66594,-0.1506 -3.28384,-0.20803 -1.10456,-0.10266 -1.12345,-0.1121 -1.12345,-0.56197 v -0.45756 l 2.52295,-0.005 c 2.95715,-0.007 5.61189,-0.21588 5.85757,-0.46154 0.0954,-0.0954 0.14104,-0.18064 0.10139,-0.1894 -0.0396,-0.009 -1.50788,-0.1713 -3.26276,-0.36126 -2.14178,-0.23182 -3.21252,-0.4109 -3.25714,-0.54474 -0.0518,-0.1553 0.76707,-0.19939 3.7028,-0.19939 h 3.76926 l 1.9275,-2.12249 1.9275,-2.12248 0.003,-2.92037 c 0.004,-3.40786 0.3225,-3.01406 -2.55976,-3.16268 -2.18909,-0.11289 -8.46011,-0.54069 -9.37095,-0.63927 -0.35241,-0.0382 -0.7001,-0.073 -0.77263,-0.0775 -0.0725,-0.004 -0.10858,-0.11415 -0.0801,-0.24372 0.0599,-0.27272 2.50633,-0.37452 9.46278,-0.39375 2.50461,-0.007 4.12482,-0.0715 4.12482,-0.16435 0,-0.18221 -0.59484,-0.28722 -2.32271,-0.41 -2.43235,-0.17283 -6.37331,-0.56784 -6.51034,-0.65252 -0.50949,-0.3149 0.2486,-0.38642 4.09601,-0.38642 h 4.23343 l 0.0992,-0.92106 c 0.15239,-1.41412 0.3891,-2.30031 0.80526,-3.01476 0.81742,-1.40331 2.5056,-2.02334 4.60457,-1.69111 0.81694,0.1293 1.44699,0.13612 2.12286,0.023 2.20608,-0.36934 4.49799,-0.12558 7.01346,0.74593 l 1.24674,0.43194 0.81798,-0.34561 c 0.4499,-0.19006 0.89804,-0.29801 0.99589,-0.23986 0.0978,0.0581 0.81302,0.56975 1.58926,1.1369 l 1.41136,1.03119 1.6322,-0.11246 c 1.82366,-0.12566 2.35305,-0.34823 2.35305,-0.9893 0,-0.22757 -0.4583,-1.18102 -1.01843,-2.11879 -0.56014,-0.93777 -1.47071,-2.53908 -2.02348,-3.55845 -0.55279,-1.01938 -1.08995,-1.9695 -1.19371,-2.11141 -0.1928,-0.26367 -1.63397,-0.41114 -9.05992,-0.92713 -3.01227,-0.20928 -3.06975,-0.21968 -2.94952,-0.53299 0.0746,-0.19438 0.96203,-0.23455 5.60024,-0.25343 5.19288,-0.0212 6.47995,-0.11871 6.47995,-0.49124 0,-0.22245 -1.51973,-0.47229 -3.89611,-0.64052 -3.23688,-0.22917 -4.87149,-0.58737 -3.97653,-0.87142 0.16586,-0.0527 2.1312,-0.10103 4.36743,-0.10754 4.84541,-0.0141 5.23384,-0.089 6.8211,-1.31539 3.23002,-2.49565 4.90967,-3.37407 6.45553,-3.37611 1.38133,-0.001 2.3806,0.49105 4.21249,2.0777 0.902,0.78125 1.49673,1.187 1.65233,1.12729 0.13369,-0.0513 1.53394,-0.8146 3.11164,-1.69619 1.57771,-0.8816 2.93106,-1.60291 3.00745,-1.60291 0.1998,0 0.51069,0.74557 0.51069,1.22476 0,0.56547 -0.60741,1.08824 -3.08144,2.65206 -1.15662,0.7311 -2.17231,1.37598 -2.25706,1.43309 -0.0855,0.0577 0.30166,0.82308 0.87019,1.72027 l 1.02428,1.61642 0.93517,0.18555 c 0.51433,0.10206 0.9725,0.28286 1.01814,0.40179 0.0456,0.11894 -0.15261,0.48456 -0.44056,0.81251 -0.59966,0.68299 -1.27873,2.09946 -1.67411,3.49211 -0.98184,3.45825 -4.11705,5.83146 -7.71743,5.84172 -0.98519,0.003 -1.5698,0.19696 -1.71245,0.5687 -0.0894,0.23286 0.4828,1.14564 1.70343,2.71751 0.0684,0.0881 0.33086,0.45418 0.58323,0.81351 0.39849,0.5674 0.63027,0.70999 1.76218,1.08409 2.35952,0.77982 4.97953,1.14234 5.84787,0.80914 0.13835,-0.0531 0.63944,-0.65009 1.11353,-1.32666 0.47408,-0.67657 1.1225,-1.42884 1.44094,-1.67173 1.60379,-1.22326 3.49042,-1.12677 4.89918,0.25055 0.87737,0.85779 1.13127,1.54254 1.13127,3.05091 0,1.29005 -0.0226,1.37292 -0.6007,2.19734 -0.87963,1.25454 -1.69864,1.64807 -3.24379,1.55864 -0.8312,-0.0481 -1.51952,-0.20509 -2.23377,-0.50941 l -1.03238,-0.43988 -2.17137,0.19442 c -1.19426,0.10693 -2.29375,0.25844 -2.44333,0.33669 -0.14957,0.0782 -0.40038,0.35968 -0.55733,0.6254 -0.59998,1.01566 -2.8064,1.04062 -5.16963,0.0585 -2.13505,-0.88731 -1.98272,-0.91019 -2.64078,0.39653 -0.31408,0.6237 -0.57106,1.16589 -0.57106,1.20488 0,0.039 0.70282,0.30372 1.56182,0.5883 4.67862,1.54999 6.64132,3.24818 7.12455,6.16438 0.17319,1.04517 0.095,2.0611 -0.37412,4.85976 -0.13643,0.81396 -0.12866,1.04933 0.038,1.15235 0.40542,0.25056 2.31506,0.35094 5.13718,0.27002 1.56839,-0.045 2.85163,-0.0283 2.85163,0.0371 0,0.28133 -6.68467,2.99348 -9.61123,3.89954 -2.30908,0.71489 -6.08746,1.67766 -7.0442,1.79493 -0.71603,0.0878 -0.73074,0.08 -1.20523,-0.63825 z m -13.35867,-14.60631 c 4.09677,-1.21459 6.73261,-5.30831 6.09848,-9.47158 -0.2863,-1.87966 -1.08078,-3.37181 -2.57999,-4.84567 -1.81006,-1.77943 -3.53057,-2.563 -5.62781,-2.563 -1.76492,0 -1.92174,0.0887 -2.44699,1.38414 -0.56855,1.40221 -1.31157,2.50593 -1.93747,2.87806 -0.35823,0.21298 -0.91748,0.30973 -2.0621,0.35672 -1.38705,0.057 -1.59668,0.10438 -1.79396,0.40592 -0.72328,1.1055 -0.98506,4.38323 -0.48849,6.11623 0.70219,2.45061 2.6935,4.64783 4.95258,5.46472 2.00156,0.72376 4.04831,0.8192 5.88575,0.27446 z m -8.55498,-2.72487 c -0.0848,-0.0848 1.87761,-2.23209 2.89121,-3.16355 0.52577,-0.48317 0.68912,-0.93596 0.32037,-0.88807 -0.79993,0.10387 -0.92107,0.006 -0.92107,-0.74381 v -0.73185 l 1.29038,0.11256 c 1.26847,0.11066 1.29849,0.10479 1.76789,-0.34491 0.52749,-0.50538 0.88388,-0.43508 1.18669,0.23411 0.18852,0.41662 0.24975,0.43237 2.64309,0.6802 3.50736,0.36319 3.0823,0.54913 -1.55853,0.68184 l -2.43956,0.0697 -1.64521,1.32678 c -0.90487,0.72973 -1.68126,1.36766 -1.72531,1.41763 -0.0441,0.0499 -0.34417,0.28757 -0.66693,0.52803 -0.32276,0.24045 -0.69262,0.54297 -0.82191,0.67226 -0.1293,0.12928 -0.2738,0.19636 -0.32111,0.14904 z m 9.12981,-5.78559 c 0.41575,-1.55803 -0.75343,-2.91638 -2.32485,-2.701 -0.39475,0.0542 -0.81685,0.18064 -0.93799,0.28117 -0.12115,0.10055 -0.25765,0.14544 -0.30333,0.0998 -0.0457,-0.0457 0.17643,-0.23616 0.49358,-0.42328 1.82272,-1.07544 3.99372,0.49839 3.45286,2.50309 -0.10103,0.37442 -0.25436,0.68079 -0.34075,0.68079 -0.0931,0 -0.10915,-0.17954 -0.0395,-0.44052 z m 1.26186,-0.92108 c 0.239,-1.06122 0.15072,-1.65858 -0.3173,-2.1471 -0.44457,-0.46402 -1.96378,-1.36527 -2.89815,-1.71928 -0.87334,-0.33088 -0.0352,-0.4271 1.06794,-0.12261 1.7334,0.47845 2.38284,1.08499 2.61161,2.4391 0.0821,0.48616 0.0266,0.80508 -0.23221,1.33463 -0.26924,0.5508 -0.31757,0.59567 -0.23189,0.21526 z"
       id="path1642"
       inkscape:connector-curvature="0" />
    <text
       id="text1658"
       y="244.13409"
       x="612.85303"
       style="font-style:normal;font-weight:normal;font-size:44.22097778px;line-height:1000%;font-family:sans-serif;letter-spacing:38.13616943px;word-spacing:0px;fill:url(#linearGradient1666);fill-opacity:1;stroke:none;stroke-width:1.17922592px;stroke-linecap:butt;stroke-linejoin:miter;stroke-opacity:1"
       xml:space="preserve"><tspan
         style="font-style:normal;font-variant:normal;font-weight:normal;font-stretch:normal;font-family:'Gotham Black';-inkscape-font-specification:'Gotham Black, ';letter-spacing:0px;fill:url(#linearGradient1666);fill-opacity:1;stroke-width:1.17922592px"
         y="244.13409"
         x="612.85303"
         id="tspan1656"
         sodipodi:role="line">EXPRESS</tspan></text>
    <path
       inkscape:connector-curvature="0"
       id="path1680"
       d="m 621.53852,318.24519 c -0.36785,-0.55681 -0.65858,-0.79118 -1.24145,-1.00077 -0.41861,-0.15053 -0.7611,-0.32875 -0.7611,-0.39603 0,-0.0673 0.14417,-0.74063 0.32037,-1.49633 0.17621,-0.75571 0.32038,-1.46483 0.32038,-1.57585 0,-0.14666 -0.73365,-0.25441 -2.68314,-0.39406 -9.89124,-0.70855 -10.42545,-0.75322 -10.55477,-0.88253 -0.37512,-0.37513 0.48188,-0.43141 6.56898,-0.43141 5.31308,0 6.50217,-0.0399 6.7582,-0.22717 0.17088,-0.12496 0.27476,-0.26147 0.23085,-0.30337 -0.0439,-0.0419 -1.53681,-0.22206 -3.31755,-0.40035 -1.78074,-0.17829 -3.3137,-0.37113 -3.40659,-0.42854 -0.49307,-0.30473 0.30594,-0.40261 3.28677,-0.40261 h 3.27133 l 0.0984,-0.39197 c 0.23909,-0.95261 -0.81419,-2.63052 -2.13836,-3.40654 -1.01454,-0.59456 -2.20576,-0.60731 -3.32018,-0.0355 -0.44052,0.22603 -1.4497,0.74413 -2.24263,1.15132 -2.78176,1.42853 -5.17244,1.98535 -7.84917,1.82817 -2.84585,-0.16712 -4.95728,-0.96078 -8.11887,-3.05176 l -1.87159,-1.23781 -1.41225,0.47556 c -0.77675,0.26156 -2.70347,1.05886 -4.28162,1.77179 -1.57815,0.71291 -2.88944,1.27612 -2.91396,1.2516 -0.0245,-0.0245 0.45573,-0.67992 1.06725,-1.45641 0.61152,-0.7765 1.11186,-1.4664 1.11186,-1.5331 0,-0.0667 -0.97218,-0.16791 -2.16039,-0.22489 -1.18821,-0.057 -2.66594,-0.1506 -3.28384,-0.20803 -1.10456,-0.10266 -1.12345,-0.1121 -1.12345,-0.56197 v -0.45756 l 2.52295,-0.005 c 2.95715,-0.007 5.61189,-0.21588 5.85757,-0.46154 0.0954,-0.0954 0.14104,-0.18064 0.10139,-0.1894 -0.0396,-0.009 -1.50788,-0.1713 -3.26276,-0.36126 -2.14178,-0.23182 -3.21252,-0.4109 -3.25714,-0.54474 -0.0518,-0.1553 0.76707,-0.19939 3.7028,-0.19939 h 3.76926 l 1.9275,-2.12249 1.9275,-2.12248 0.003,-2.92037 c 0.004,-3.40786 0.3225,-3.01406 -2.55976,-3.16268 -2.18909,-0.11289 -8.46011,-0.54069 -9.37095,-0.63927 -0.35241,-0.0382 -0.7001,-0.073 -0.77263,-0.0775 -0.0725,-0.004 -0.10858,-0.11415 -0.0801,-0.24372 0.0599,-0.27272 2.50633,-0.37452 9.46278,-0.39375 2.50461,-0.007 4.12482,-0.0715 4.12482,-0.16435 0,-0.18221 -0.59484,-0.28722 -2.32271,-0.41 -2.43235,-0.17283 -6.37331,-0.56784 -6.51034,-0.65252 -0.50949,-0.3149 0.2486,-0.38642 4.09601,-0.38642 h 4.23343 l 0.0992,-0.92106 c 0.15239,-1.41412 0.3891,-2.30031 0.80526,-3.01476 0.81742,-1.40331 2.5056,-2.02334 4.60457,-1.69111 0.81694,0.1293 1.44699,0.13612 2.12286,0.023 2.20608,-0.36934 4.49799,-0.12558 7.01346,0.74593 l 1.24674,0.43194 0.81798,-0.34561 c 0.4499,-0.19006 0.89804,-0.29801 0.99589,-0.23986 0.0978,0.0581 0.81302,0.56975 1.58926,1.1369 l 1.41136,1.03119 1.6322,-0.11246 c 1.82366,-0.12566 2.35305,-0.34823 2.35305,-0.9893 0,-0.22757 -0.4583,-1.18102 -1.01843,-2.11879 -0.56014,-0.93777 -1.47071,-2.53908 -2.02348,-3.55845 -0.55279,-1.01938 -1.08995,-1.9695 -1.19371,-2.11141 -0.1928,-0.26367 -1.63397,-0.41114 -9.05992,-0.92713 -3.01227,-0.20928 -3.06975,-0.21968 -2.94952,-0.53299 0.0746,-0.19438 0.96203,-0.23455 5.60024,-0.25343 5.19288,-0.0212 6.47995,-0.11871 6.47995,-0.49124 0,-0.22245 -1.51973,-0.47229 -3.89611,-0.64052 -3.23688,-0.22917 -4.87149,-0.58737 -3.97653,-0.87142 0.16586,-0.0527 2.1312,-0.10103 4.36743,-0.10754 4.84541,-0.0141 5.23384,-0.089 6.8211,-1.31539 3.23002,-2.49565 4.90967,-3.37407 6.45553,-3.37611 1.38133,-0.001 2.3806,0.49105 4.21249,2.0777 0.902,0.78125 1.49673,1.187 1.65233,1.12729 0.13369,-0.0513 1.53394,-0.8146 3.11164,-1.69619 1.57771,-0.8816 2.93106,-1.60291 3.00745,-1.60291 0.1998,0 0.51069,0.74557 0.51069,1.22476 0,0.56547 -0.60741,1.08824 -3.08144,2.65206 -1.15662,0.7311 -2.17231,1.37598 -2.25706,1.43309 -0.0855,0.0577 0.30166,0.82308 0.87019,1.72027 l 1.02428,1.61642 0.93517,0.18555 c 0.51433,0.10206 0.9725,0.28286 1.01814,0.40179 0.0456,0.11894 -0.15261,0.48456 -0.44056,0.81251 -0.59966,0.68299 -1.27873,2.09946 -1.67411,3.49211 -0.98184,3.45825 -4.11705,5.83146 -7.71743,5.84172 -0.98519,0.003 -1.5698,0.19696 -1.71245,0.5687 -0.0894,0.23286 0.4828,1.14564 1.70343,2.71751 0.0684,0.0881 0.33086,0.45418 0.58323,0.81351 0.39849,0.5674 0.63027,0.70999 1.76218,1.08409 2.35952,0.77982 4.97953,1.14234 5.84787,0.80914 0.13835,-0.0531 0.63944,-0.65009 1.11353,-1.32666 0.47408,-0.67657 1.1225,-1.42884 1.44094,-1.67173 1.60379,-1.22326 3.49042,-1.12677 4.89918,0.25055 0.87737,0.85779 1.13127,1.54254 1.13127,3.05091 0,1.29005 -0.0226,1.37292 -0.6007,2.19734 -0.87963,1.25454 -1.69864,1.64807 -3.24379,1.55864 -0.8312,-0.0481 -1.51952,-0.20509 -2.23377,-0.50941 l -1.03238,-0.43988 -2.17137,0.19442 c -1.19426,0.10693 -2.29375,0.25844 -2.44333,0.33669 -0.14957,0.0782 -0.40038,0.35968 -0.55733,0.6254 -0.59998,1.01566 -2.8064,1.04062 -5.16963,0.0585 -2.13505,-0.88731 -1.98272,-0.91019 -2.64078,0.39653 -0.31408,0.6237 -0.57106,1.16589 -0.57106,1.20488 0,0.039 0.70282,0.30372 1.56182,0.5883 4.67862,1.54999 6.64132,3.24818 7.12455,6.16438 0.17319,1.04517 0.095,2.0611 -0.37412,4.85976 -0.13643,0.81396 -0.12866,1.04933 0.038,1.15235 0.40542,0.25056 2.31506,0.35094 5.13718,0.27002 1.56839,-0.045 2.85163,-0.0283 2.85163,0.0371 0,0.28133 -6.68467,2.99348 -9.61123,3.89954 -2.30908,0.71489 -6.08746,1.67766 -7.0442,1.79493 -0.71603,0.0878 -0.73074,0.08 -1.20523,-0.63825 z m -13.35867,-14.60631 c 4.09677,-1.21459 6.73261,-5.30831 6.09848,-9.47158 -0.2863,-1.87966 -1.08078,-3.37181 -2.57999,-4.84567 -1.81006,-1.77943 -3.53057,-2.563 -5.62781,-2.563 -1.76492,0 -1.92174,0.0887 -2.44699,1.38414 -0.56855,1.40221 -1.31157,2.50593 -1.93747,2.87806 -0.35823,0.21298 -0.91748,0.30973 -2.0621,0.35672 -1.38705,0.057 -1.59668,0.10438 -1.79396,0.40592 -0.72328,1.1055 -0.98506,4.38323 -0.48849,6.11623 0.70219,2.45061 2.6935,4.64783 4.95258,5.46472 2.00156,0.72376 4.04831,0.8192 5.88575,0.27446 z m -8.55498,-2.72487 c -0.0848,-0.0848 1.87761,-2.23209 2.89121,-3.16355 0.52577,-0.48317 0.68912,-0.93596 0.32037,-0.88807 -0.79993,0.10387 -0.92107,0.006 -0.92107,-0.74381 v -0.73185 l 1.29038,0.11256 c 1.26847,0.11066 1.29849,0.10479 1.76789,-0.34491 0.52749,-0.50538 0.88388,-0.43508 1.18669,0.23411 0.18852,0.41662 0.24975,0.43237 2.64309,0.6802 3.50736,0.36319 3.0823,0.54913 -1.55853,0.68184 l -2.43956,0.0697 -1.64521,1.32678 c -0.90487,0.72973 -1.68126,1.36766 -1.72531,1.41763 -0.0441,0.0499 -0.34417,0.28757 -0.66693,0.52803 -0.32276,0.24045 -0.69262,0.54297 -0.82191,0.67226 -0.1293,0.12928 -0.2738,0.19636 -0.32111,0.14904 z m 9.12981,-5.78559 c 0.41575,-1.55803 -0.75343,-2.91638 -2.32485,-2.701 -0.39475,0.0542 -0.81685,0.18064 -0.93799,0.28117 -0.12115,0.10055 -0.25765,0.14544 -0.30333,0.0998 -0.0457,-0.0457 0.17643,-0.23616 0.49358,-0.42328 1.82272,-1.07544 3.99372,0.49839 3.45286,2.50309 -0.10103,0.37442 -0.25436,0.68079 -0.34075,0.68079 -0.0931,0 -0.10915,-0.17954 -0.0395,-0.44052 z m 1.26186,-0.92108 c 0.239,-1.06122 0.15072,-1.65858 -0.3173,-2.1471 -0.44457,-0.46402 -1.96378,-1.36527 -2.89815,-1.71928 -0.87334,-0.33088 -0.0352,-0.4271 1.06794,-0.12261 1.7334,0.47845 2.38284,1.08499 2.61161,2.4391 0.0821,0.48616 0.0266,0.80508 -0.23221,1.33463 -0.26924,0.5508 -0.31757,0.59567 -0.23189,0.21526 z"
       style="fill:#0000ff;fill-opacity:1;stroke-width:0.1601872"
       clip-path="url(#clipPath1698)" />
    <path
       style="fill:url(#linearGradient1712);fill-opacity:1;stroke-width:0.1601872"
       d="m 700.11576,318.24519 c -0.36785,-0.55681 -0.65858,-0.79118 -1.24145,-1.00077 -0.41861,-0.15053 -0.7611,-0.32875 -0.7611,-0.39603 0,-0.0673 0.14417,-0.74063 0.32037,-1.49633 0.17621,-0.75571 0.32038,-1.46483 0.32038,-1.57585 0,-0.14666 -0.73365,-0.25441 -2.68314,-0.39406 -9.89124,-0.70855 -10.42545,-0.75322 -10.55477,-0.88253 -0.37512,-0.37513 0.48188,-0.43141 6.56898,-0.43141 5.31308,0 6.50217,-0.0399 6.7582,-0.22717 0.17088,-0.12496 0.27476,-0.26147 0.23085,-0.30337 -0.0439,-0.0419 -1.53681,-0.22206 -3.31755,-0.40035 -1.78074,-0.17829 -3.3137,-0.37113 -3.40659,-0.42854 -0.49307,-0.30473 0.30594,-0.40261 3.28677,-0.40261 h 3.27133 l 0.0984,-0.39197 c 0.23909,-0.95261 -0.81419,-2.63052 -2.13836,-3.40654 -1.01454,-0.59456 -2.20576,-0.60731 -3.32018,-0.0355 -0.44052,0.22603 -1.4497,0.74413 -2.24263,1.15132 -2.78176,1.42853 -5.17244,1.98535 -7.84917,1.82817 -2.84585,-0.16712 -4.95728,-0.96078 -8.11887,-3.05176 l -1.87159,-1.23781 -1.41225,0.47556 c -0.77675,0.26156 -2.70347,1.05886 -4.28162,1.77179 -1.57815,0.71291 -2.88944,1.27612 -2.91396,1.2516 -0.0245,-0.0245 0.45573,-0.67992 1.06725,-1.45641 0.61152,-0.7765 1.11186,-1.4664 1.11186,-1.5331 0,-0.0667 -0.97218,-0.16791 -2.16039,-0.22489 -1.18821,-0.057 -2.66594,-0.1506 -3.28384,-0.20803 -1.10456,-0.10266 -1.12345,-0.1121 -1.12345,-0.56197 v -0.45756 l 2.52295,-0.005 c 2.95715,-0.007 5.61189,-0.21588 5.85757,-0.46154 0.0954,-0.0954 0.14104,-0.18064 0.10139,-0.1894 -0.0396,-0.009 -1.50788,-0.1713 -3.26276,-0.36126 -2.14178,-0.23182 -3.21252,-0.4109 -3.25714,-0.54474 -0.0518,-0.1553 0.76707,-0.19939 3.7028,-0.19939 h 3.76926 l 1.9275,-2.12249 1.9275,-2.12248 0.003,-2.92037 c 0.004,-3.40786 0.3225,-3.01406 -2.55976,-3.16268 -2.18909,-0.11289 -8.46011,-0.54069 -9.37095,-0.63927 -0.35241,-0.0382 -0.7001,-0.073 -0.77263,-0.0775 -0.0725,-0.004 -0.10858,-0.11415 -0.0801,-0.24372 0.0599,-0.27272 2.50633,-0.37452 9.46278,-0.39375 2.50461,-0.007 4.12482,-0.0715 4.12482,-0.16435 0,-0.18221 -0.59484,-0.28722 -2.32271,-0.41 -2.43235,-0.17283 -6.37331,-0.56784 -6.51034,-0.65252 -0.50949,-0.3149 0.2486,-0.38642 4.09601,-0.38642 h 4.23343 l 0.0992,-0.92106 c 0.15239,-1.41412 0.3891,-2.30031 0.80526,-3.01476 0.81742,-1.40331 2.5056,-2.02334 4.60457,-1.69111 0.81694,0.1293 1.44699,0.13612 2.12286,0.023 2.20608,-0.36934 4.49799,-0.12558 7.01346,0.74593 l 1.24674,0.43194 0.81798,-0.34561 c 0.4499,-0.19006 0.89804,-0.29801 0.99589,-0.23986 0.0978,0.0581 0.81302,0.56975 1.58926,1.1369 l 1.41136,1.03119 1.6322,-0.11246 c 1.82366,-0.12566 2.35305,-0.34823 2.35305,-0.9893 0,-0.22757 -0.4583,-1.18102 -1.01843,-2.11879 -0.56014,-0.93777 -1.47071,-2.53908 -2.02348,-3.55845 -0.55279,-1.01938 -1.08995,-1.9695 -1.19371,-2.11141 -0.1928,-0.26367 -1.63397,-0.41114 -9.05992,-0.92713 -3.01227,-0.20928 -3.06975,-0.21968 -2.94952,-0.53299 0.0746,-0.19438 0.96203,-0.23455 5.60024,-0.25343 5.19288,-0.0212 6.47995,-0.11871 6.47995,-0.49124 0,-0.22245 -1.51973,-0.47229 -3.89611,-0.64052 -3.23688,-0.22917 -4.87149,-0.58737 -3.97653,-0.87142 0.16586,-0.0527 2.1312,-0.10103 4.36743,-0.10754 4.84541,-0.0141 5.23384,-0.089 6.8211,-1.31539 3.23002,-2.49565 4.90967,-3.37407 6.45553,-3.37611 1.38133,-0.001 2.3806,0.49105 4.21249,2.0777 0.902,0.78125 1.49673,1.187 1.65233,1.12729 0.13369,-0.0513 1.53394,-0.8146 3.11164,-1.69619 1.57771,-0.8816 2.93106,-1.60291 3.00745,-1.60291 0.1998,0 0.51069,0.74557 0.51069,1.22476 0,0.56547 -0.60741,1.08824 -3.08144,2.65206 -1.15662,0.7311 -2.17231,1.37598 -2.25706,1.43309 -0.0855,0.0577 0.30166,0.82308 0.87019,1.72027 l 1.02428,1.61642 0.93517,0.18555 c 0.51433,0.10206 0.9725,0.28286 1.01814,0.40179 0.0456,0.11894 -0.15261,0.48456 -0.44056,0.81251 -0.59966,0.68299 -1.27873,2.09946 -1.67411,3.49211 -0.98184,3.45825 -4.11705,5.83146 -7.71743,5.84172 -0.98519,0.003 -1.5698,0.19696 -1.71245,0.5687 -0.0894,0.23286 0.4828,1.14564 1.70343,2.71751 0.0684,0.0881 0.33086,0.45418 0.58323,0.81351 0.39849,0.5674 0.63027,0.70999 1.76218,1.08409 2.35952,0.77982 4.97953,1.14234 5.84787,0.80914 0.13835,-0.0531 0.63944,-0.65009 1.11353,-1.32666 0.47408,-0.67657 1.1225,-1.42884 1.44094,-1.67173 1.60379,-1.22326 3.49042,-1.12677 4.89918,0.25055 0.87737,0.85779 1.13127,1.54254 1.13127,3.05091 0,1.29005 -0.0226,1.37292 -0.6007,2.19734 -0.87963,1.25454 -1.69864,1.64807 -3.24379,1.55864 -0.8312,-0.0481 -1.51952,-0.20509 -2.23377,-0.50941 l -1.03238,-0.43988 -2.17137,0.19442 c -1.19426,0.10693 -2.29375,0.25844 -2.44333,0.33669 -0.14957,0.0782 -0.40038,0.35968 -0.55733,0.6254 -0.59998,1.01566 -2.8064,1.04062 -5.16963,0.0585 -2.13505,-0.88731 -1.98272,-0.91019 -2.64078,0.39653 -0.31408,0.6237 -0.57106,1.16589 -0.57106,1.20488 0,0.039 0.70282,0.30372 1.56182,0.5883 4.67862,1.54999 6.64132,3.24818 7.12455,6.16438 0.17319,1.04517 0.095,2.0611 -0.37412,4.85976 -0.13643,0.81396 -0.12866,1.04933 0.038,1.15235 0.40542,0.25056 2.31506,0.35094 5.13718,0.27002 1.56839,-0.045 2.85163,-0.0283 2.85163,0.0371 0,0.28133 -6.68467,2.99348 -9.61123,3.89954 -2.30908,0.71489 -6.08746,1.67766 -7.0442,1.79493 -0.71603,0.0878 -0.73074,0.08 -1.20523,-0.63825 z m -13.35867,-14.60631 c 4.09677,-1.21459 6.73261,-5.30831 6.09848,-9.47158 -0.2863,-1.87966 -1.08078,-3.37181 -2.57999,-4.84567 -1.81006,-1.77943 -3.53057,-2.563 -5.62781,-2.563 -1.76492,0 -1.92174,0.0887 -2.44699,1.38414 -0.56855,1.40221 -1.31157,2.50593 -1.93747,2.87806 -0.35823,0.21298 -0.91748,0.30973 -2.0621,0.35672 -1.38705,0.057 -1.59668,0.10438 -1.79396,0.40592 -0.72328,1.1055 -0.98506,4.38323 -0.48849,6.11623 0.70219,2.45061 2.6935,4.64783 4.95258,5.46472 2.00156,0.72376 4.04831,0.8192 5.88575,0.27446 z m -8.55498,-2.72487 c -0.0848,-0.0848 1.87761,-2.23209 2.89121,-3.16355 0.52577,-0.48317 0.68912,-0.93596 0.32037,-0.88807 -0.79993,0.10387 -0.92107,0.006 -0.92107,-0.74381 v -0.73185 l 1.29038,0.11256 c 1.26847,0.11066 1.29849,0.10479 1.76789,-0.34491 0.52749,-0.50538 0.88388,-0.43508 1.18669,0.23411 0.18852,0.41662 0.24975,0.43237 2.64309,0.6802 3.50736,0.36319 3.0823,0.54913 -1.55853,0.68184 l -2.43956,0.0697 -1.64521,1.32678 c -0.90487,0.72973 -1.68126,1.36766 -1.72531,1.41763 -0.0441,0.0499 -0.34417,0.28757 -0.66693,0.52803 -0.32276,0.24045 -0.69262,0.54297 -0.82191,0.67226 -0.1293,0.12928 -0.2738,0.19636 -0.32111,0.14904 z m 9.12981,-5.78559 c 0.41575,-1.55803 -0.75343,-2.91638 -2.32485,-2.701 -0.39475,0.0542 -0.81685,0.18064 -0.93799,0.28117 -0.12115,0.10055 -0.25765,0.14544 -0.30333,0.0998 -0.0457,-0.0457 0.17643,-0.23616 0.49358,-0.42328 1.82272,-1.07544 3.99372,0.49839 3.45286,2.50309 -0.10103,0.37442 -0.25436,0.68079 -0.34075,0.68079 -0.0931,0 -0.10915,-0.17954 -0.0395,-0.44052 z m 1.26186,-0.92108 c 0.239,-1.06122 0.15072,-1.65858 -0.3173,-2.1471 -0.44457,-0.46402 -1.96378,-1.36527 -2.89815,-1.71928 -0.87334,-0.33088 -0.0352,-0.4271 1.06794,-0.12261 1.7334,0.47845 2.38284,1.08499 2.61161,2.4391 0.0821,0.48616 0.0266,0.80508 -0.23221,1.33463 -0.26924,0.5508 -0.31757,0.59567 -0.23189,0.21526 z"
       id="path1686"
       inkscape:connector-curvature="0"
       clip-path="url(#clipPath1702)"
       transform="translate(-78.57724,0.92113)" />
    <text
       xml:space="preserve"
       style="font-style:normal;font-weight:normal;font-size:44.22097778px;line-height:1000%;font-family:sans-serif;letter-spacing:38.13616943px;word-spacing:0px;fill:url(#linearGradient1726);fill-opacity:1;stroke:none;stroke-width:1.17922592px;stroke-linecap:butt;stroke-linejoin:miter;stroke-opacity:1"
       x="652.94348"
       y="306.67517"
       id="text1724"><tspan
         sodipodi:role="line"
         id="tspan1722"
         x="652.94348"
         y="306.67517"
         style="font-style:normal;font-variant:normal;font-weight:normal;font-stretch:normal;font-family:'Gotham Black';-inkscape-font-specification:'Gotham Black, ';letter-spacing:0px;fill:url(#linearGradient1726);fill-opacity:1;stroke-width:1.17922592px">EXPRESS</tspan></text>
    <text
       xml:space="preserve"
       style="font-style:normal;font-weight:normal;font-size:9.39597607px;line-height:1000%;font-family:sans-serif;letter-spacing:8.10309029px;word-spacing:0px;fill:#000000;fill-opacity:1;stroke:none;stroke-width:0.25055936px;stroke-linecap:butt;stroke-linejoin:miter;stroke-opacity:1"
       x="23.698338"
       y="215.16045"
       id="text881"><tspan
         sodipodi:role="line"
         id="tspan879"
         x="23.698338"
         y="215.16045"
         style="font-style:normal;font-variant:normal;font-weight:normal;font-stretch:normal;font-size:7.57672215px;font-family:'Gotham Medium';-inkscape-font-specification:'Gotham Medium, ';letter-spacing:8.94526768px;fill:#000000;stroke-width:0.25055936px">MESSENGERS LTD</tspan></text>
    <text
       xml:space="preserve"
       style="font-style:normal;font-weight:normal;font-size:40.00618744px;line-height:1000%;font-family:sans-serif;letter-spacing:34.50133896px;word-spacing:0px;fill:url(#linearGradient1819);fill-opacity:1;stroke:none;stroke-width:1.06683171px;stroke-linecap:butt;stroke-linejoin:miter;stroke-opacity:1"
       x="21.899445"
       y="204.0578"
       id="text1253"><tspan
         sodipodi:role="line"
         id="tspan1251"
         x="21.899445"
         y="204.0578"
         style="font-style:normal;font-variant:normal;font-weight:normal;font-stretch:normal;font-family:'Gotham Black';-inkscape-font-specification:'Gotham Black, ';letter-spacing:0px;fill:url(#linearGradient1819);fill-opacity:1;stroke-width:1.06683171px">E<tspan
   style="fill:url(#linearGradient1819);fill-opacity:1;stroke-width:1.06683171px"
   id="tspan1285">X</tspan>PRESS</tspan></text>
    <path
       style="fill:url(#linearGradient1309);fill-opacity:1;fill-rule:evenodd;stroke:none;stroke-width:0.26089656px;stroke-linecap:butt;stroke-linejoin:miter;stroke-opacity:1"
       d="m 49.448631,176.05626 8.904279,-0.0277 9.521205,13.72288 -9.527525,14.26355 -9.304649,0.0711 9.597854,-14.27126 z"
       id="path910"
       inkscape:connector-curvature="0"
       sodipodi:nodetypes="ccccccc" />
    <path
       style="fill:url(#linearGradient846);fill-opacity:1;fill-rule:evenodd;stroke:none;stroke-width:0.187675px;stroke-linecap:butt;stroke-linejoin:miter;stroke-opacity:1"
       d="m 68.33797,176.05035 8.726054,0.004 -13.537264,20.17289 5.020673,7.83174 h 8.939695 L 63.574157,183.56109 Z"
       id="path838"
       inkscape:connector-curvature="0" />
    <path
       sodipodi:nodetypes="ccccccc"
       inkscape:connector-curvature="0"
       id="path868"
       d="m 55.005651,174.15487 3.238051,-0.0311 10.66933,15.36382 -10.674791,15.96915 -3.584053,0.0796 10.641687,-15.97777 z"
       style="fill:#ff6600;fill-opacity:1;fill-rule:evenodd;stroke:none;stroke-width:0.25663063px;stroke-linecap:butt;stroke-linejoin:miter;stroke-opacity:1" />
    <path
       style="fill:#ff6600;fill-opacity:1;stroke-width:0.13972996"
       d="m 254.22574,215.75901 c -0.32088,-0.4857 -0.57448,-0.69014 -1.08291,-0.87296 -0.36514,-0.1313 -0.6639,-0.28676 -0.6639,-0.34545 0,-0.0587 0.12576,-0.64606 0.27945,-1.30524 0.15371,-0.65919 0.27947,-1.27777 0.27947,-1.3746 0,-0.12793 -0.63996,-0.22191 -2.34048,-0.34374 -8.62805,-0.61806 -9.09404,-0.65702 -9.20685,-0.76981 -0.32721,-0.32723 0.42035,-0.37632 5.73008,-0.37632 4.63455,0 5.67179,-0.0348 5.89512,-0.19816 0.14905,-0.109 0.23967,-0.22808 0.20136,-0.26463 -0.0383,-0.0365 -1.34054,-0.1937 -2.89387,-0.34923 -1.55331,-0.15552 -2.89051,-0.32373 -2.97153,-0.37382 -0.4301,-0.2658 0.26686,-0.35118 2.86702,-0.35118 h 2.85355 l 0.0858,-0.34192 c 0.20856,-0.83095 -0.7102,-2.29458 -1.86526,-2.9715 -0.88498,-0.51863 -1.92408,-0.52974 -2.89618,-0.0309 -0.38425,0.19716 -1.26456,0.64909 -1.95622,1.00428 -2.42651,1.24609 -4.51188,1.73181 -6.84676,1.5947 -2.48242,-0.14578 -4.3242,-0.83807 -7.08204,-2.66202 l -1.63257,-1.07973 -1.23189,0.41482 c -0.67755,0.22817 -2.35822,0.92364 -3.73483,1.54552 -1.37661,0.62187 -2.52042,1.11316 -2.54182,1.09176 -0.0214,-0.0214 0.39753,-0.59308 0.93096,-1.27041 0.53342,-0.67734 0.96986,-1.27913 0.96986,-1.33731 0,-0.0582 -0.84802,-0.14646 -1.88448,-0.19617 -1.03647,-0.0497 -2.32549,-0.13136 -2.86447,-0.18146 -0.96351,-0.0895 -0.97998,-0.0977 -0.97998,-0.4902 v -0.39913 l 2.20075,-0.004 c 2.5795,-0.006 4.89521,-0.18831 5.10951,-0.4026 0.0832,-0.0832 0.12303,-0.15756 0.0884,-0.1652 -0.0346,-0.007 -1.31531,-0.14943 -2.84608,-0.31513 -1.86825,-0.20221 -2.80226,-0.35842 -2.84118,-0.47517 -0.0452,-0.13547 0.66911,-0.17393 3.22993,-0.17393 h 3.28789 l 1.68134,-1.85143 1.68135,-1.85142 0.003,-2.54742 c 0.003,-2.97265 0.28131,-2.62914 -2.23286,-2.75877 -1.90952,-0.0985 -7.37968,-0.47164 -8.1742,-0.55763 -0.30741,-0.0333 -0.61069,-0.0636 -0.67396,-0.0677 -0.0632,-0.003 -0.0947,-0.0995 -0.0699,-0.21258 0.0522,-0.2379 2.18625,-0.3267 8.2543,-0.34347 2.18475,-0.006 3.59805,-0.0624 3.59805,-0.14336 0,-0.15895 -0.51888,-0.25054 -2.02608,-0.35764 -2.12171,-0.15078 -5.55937,-0.49534 -5.67891,-0.56921 -0.44442,-0.27468 0.21685,-0.33706 3.57291,-0.33706 h 3.69279 l 0.0865,-0.80344 c 0.13293,-1.23353 0.3394,-2.00654 0.70242,-2.62975 0.71303,-1.2241 2.18561,-1.76494 4.01652,-1.47515 0.71262,0.11279 1.2622,0.11875 1.85176,0.0201 1.92435,-0.32217 3.92356,-0.10954 6.1178,0.65067 l 1.0875,0.37678 0.71353,-0.30147 c 0.39243,-0.16579 0.78334,-0.25996 0.86871,-0.20923 0.0853,0.0507 0.70918,0.49699 1.38629,0.99171 l 1.23112,0.89949 1.42375,-0.0981 c 1.59076,-0.10961 2.05255,-0.30375 2.05255,-0.86295 0,-0.1985 -0.39978,-1.03019 -0.88837,-1.8482 -0.48861,-0.81801 -1.28289,-2.21482 -1.76507,-3.10401 -0.48219,-0.8892 -0.95076,-1.71798 -1.04127,-1.84176 -0.16817,-0.23 -1.42529,-0.35864 -7.90288,-0.80873 -2.62758,-0.18256 -2.67772,-0.19163 -2.57284,-0.46492 0.065,-0.16956 0.83917,-0.2046 4.88503,-0.22107 4.52971,-0.0185 5.65241,-0.10354 5.65241,-0.42851 0,-0.19404 -1.32565,-0.41197 -3.39855,-0.55871 -2.8235,-0.19991 -4.24935,-0.51236 -3.46869,-0.76014 0.14468,-0.046 1.85903,-0.0881 3.80968,-0.0938 4.22661,-0.0123 4.56543,-0.0777 5.94998,-1.14741 2.81753,-2.17693 4.28267,-2.94317 5.63111,-2.94495 1.20492,-9e-4 2.07658,0.42834 3.67453,1.81235 0.7868,0.68148 1.30557,1.03542 1.4413,0.98333 0.11662,-0.0447 1.33805,-0.71057 2.71427,-1.47957 1.37622,-0.76901 2.55673,-1.3982 2.62336,-1.3982 0.1743,0 0.44549,0.65035 0.44549,1.06834 0,0.49326 -0.52985,0.94927 -2.68793,2.31338 -1.0089,0.63773 -1.89488,1.20026 -1.9688,1.25006 -0.0746,0.0504 0.26313,0.71797 0.75905,1.50059 l 0.89348,1.40998 0.81572,0.16186 c 0.44866,0.089 0.84832,0.24673 0.88812,0.35048 0.0398,0.10375 -0.13311,0.42267 -0.38429,0.70874 -0.52308,0.59577 -1.11543,1.83135 -1.46031,3.04614 -0.85645,3.0166 -3.59127,5.08673 -6.73185,5.09568 -0.85938,0.002 -1.36933,0.17181 -1.49376,0.49607 -0.078,0.20313 0.42114,0.99933 1.48589,2.37046 0.0596,0.0768 0.28861,0.39618 0.50874,0.70962 0.34761,0.49495 0.54979,0.61932 1.53715,0.94565 2.05818,0.68023 4.34359,0.99645 5.10103,0.70581 0.12069,-0.0463 0.55779,-0.56707 0.97133,-1.15724 0.41354,-0.59016 0.97914,-1.24636 1.25692,-1.45823 1.39897,-1.06704 3.04467,-0.98288 4.27352,0.21855 0.76532,0.74824 0.9868,1.34554 0.9868,2.66128 0,1.1253 -0.0196,1.19759 -0.52399,1.91673 -0.76729,1.09432 -1.4817,1.43759 -2.82953,1.35958 -0.72505,-0.0419 -1.32547,-0.1789 -1.9485,-0.44436 l -0.90054,-0.3837 -1.89406,0.1696 c -1.04176,0.0933 -2.00083,0.22543 -2.1313,0.29369 -0.13046,0.0682 -0.34925,0.31374 -0.48616,0.54553 -0.52336,0.88595 -2.448,0.90773 -4.50942,0.051 -1.86239,-0.77399 -1.72951,-0.79394 -2.30353,0.3459 -0.27398,0.54404 -0.49813,1.01699 -0.49813,1.05101 0,0.034 0.61306,0.26493 1.36235,0.51317 4.08113,1.35203 5.79317,2.83336 6.21469,5.37713 0.15107,0.91169 0.0829,1.79788 -0.32634,4.23913 -0.119,0.71001 -0.11223,0.91532 0.0331,1.00519 0.35364,0.21856 2.01942,0.30611 4.48112,0.23553 1.3681,-0.0393 2.48745,-0.0247 2.48745,0.0324 0,0.24541 -5.83097,2.61119 -8.3838,3.40153 -2.01419,0.6236 -5.31003,1.46342 -6.14459,1.5657 -0.62458,0.0766 -0.63742,0.0698 -1.05132,-0.55673 z m -11.65266,-12.74096 c 3.57359,-1.05947 5.8728,-4.6304 5.31965,-8.26198 -0.24973,-1.63961 -0.94275,-2.9412 -2.25049,-4.22684 -1.57892,-1.55217 -3.0797,-2.23568 -4.90911,-2.23568 -1.53952,0 -1.67631,0.0774 -2.13448,1.20737 -0.49595,1.22314 -1.14406,2.18591 -1.69005,2.51051 -0.31248,0.18578 -0.80031,0.27018 -1.79875,0.31116 -1.20991,0.0497 -1.39277,0.0911 -1.56486,0.35409 -0.63091,0.96431 -0.85925,3.82345 -0.42609,5.33513 0.61251,2.13765 2.34951,4.05426 4.32008,4.76684 1.74595,0.63132 3.53131,0.71458 5.1341,0.2394 z m -7.46245,-2.37687 c -0.074,-0.074 1.63783,-1.94704 2.52199,-2.75955 0.45862,-0.42146 0.6011,-0.81643 0.27946,-0.77465 -0.69778,0.0906 -0.80345,0.005 -0.80345,-0.64882 v -0.63839 l 1.12559,0.0982 c 1.10647,0.0965 1.13267,0.0914 1.54212,-0.30085 0.46012,-0.44084 0.771,-0.37953 1.03513,0.2042 0.16446,0.36342 0.21785,0.37716 2.30556,0.59334 3.05943,0.3168 2.68866,0.479 -1.3595,0.59476 l -2.128,0.0608 -1.43512,1.15734 c -0.7893,0.63654 -1.46654,1.193 -1.50497,1.23659 -0.0384,0.0435 -0.30022,0.25084 -0.58176,0.4606 -0.28154,0.20973 -0.60416,0.47362 -0.71694,0.5864 -0.11279,0.11277 -0.23883,0.17128 -0.28011,0.13 z m 7.96387,-5.04673 c 0.36266,-1.35906 -0.65721,-2.54394 -2.02795,-2.35606 -0.34433,0.0473 -0.71253,0.15757 -0.81821,0.24526 -0.10567,0.0877 -0.22473,0.12687 -0.26458,0.0871 -0.0399,-0.0399 0.15389,-0.206 0.43054,-0.36922 1.58995,-0.9381 3.48369,0.43474 3.0119,2.18343 -0.0881,0.3266 -0.22187,0.59384 -0.29723,0.59384 -0.0812,0 -0.0952,-0.15661 -0.0344,-0.38426 z m 1.10072,-0.80346 c 0.20847,-0.92569 0.13146,-1.44676 -0.27679,-1.87289 -0.3878,-0.40476 -1.71299,-1.19091 -2.52803,-1.49972 -0.76182,-0.28862 -0.0307,-0.37255 0.93156,-0.10694 1.51202,0.41734 2.07853,0.94642 2.27808,2.1276 0.0716,0.42408 0.0232,0.70226 -0.20255,1.16419 -0.23486,0.48046 -0.27703,0.5196 -0.20227,0.18776 z"
       id="path1794"
       inkscape:connector-curvature="0" />
    <path
       inkscape:connector-curvature="0"
       id="path1796"
       d="m 255.38889,215.75901 c -0.32087,-0.4857 -0.57448,-0.69014 -1.08291,-0.87296 -0.36514,-0.1313 -0.66389,-0.28676 -0.66389,-0.34545 0,-0.0587 0.12575,-0.64606 0.27945,-1.30524 0.1537,-0.65919 0.27946,-1.27777 0.27946,-1.3746 0,-0.12793 -0.63994,-0.22191 -2.34046,-0.34374 -8.62807,-0.61806 -9.09406,-0.65702 -9.20686,-0.76981 -0.32721,-0.32723 0.42034,-0.37632 5.73007,-0.37632 4.63456,0 5.67179,-0.0348 5.89513,-0.19816 0.14905,-0.109 0.23966,-0.22808 0.20136,-0.26463 -0.0383,-0.0365 -1.34055,-0.1937 -2.89387,-0.34923 -1.55332,-0.15552 -2.89051,-0.32373 -2.97154,-0.37382 -0.4301,-0.2658 0.26687,-0.35118 2.86702,-0.35118 h 2.85356 l 0.0858,-0.34192 c 0.20857,-0.83095 -0.71019,-2.29458 -1.86526,-2.9715 -0.88498,-0.51863 -1.92407,-0.52974 -2.89617,-0.0309 -0.38426,0.19716 -1.26457,0.64909 -1.95622,1.00428 -2.42652,1.24609 -4.51188,1.73181 -6.84676,1.5947 -2.48243,-0.14578 -4.32421,-0.83807 -7.08205,-2.66202 l -1.63256,-1.07973 -1.23189,0.41482 c -0.67756,0.22817 -2.35822,0.92364 -3.73483,1.54552 -1.37661,0.62187 -2.52043,1.11316 -2.54182,1.09176 -0.0214,-0.0214 0.39753,-0.59308 0.93095,-1.27041 0.53343,-0.67734 0.96987,-1.27913 0.96987,-1.33731 0,-0.0582 -0.84803,-0.14646 -1.88449,-0.19617 -1.03647,-0.0497 -2.32548,-0.13136 -2.86446,-0.18146 -0.96351,-0.0895 -0.97998,-0.0977 -0.97998,-0.4902 v -0.39913 l 2.20075,-0.004 c 2.5795,-0.006 4.8952,-0.18831 5.1095,-0.4026 0.0832,-0.0832 0.12303,-0.15756 0.0884,-0.1652 -0.0346,-0.007 -1.31531,-0.14943 -2.84609,-0.31513 -1.86825,-0.20221 -2.80225,-0.35842 -2.84117,-0.47517 -0.0452,-0.13547 0.6691,-0.17393 3.22992,-0.17393 h 3.28789 l 1.68135,-1.85143 1.68135,-1.85142 0.003,-2.54742 c 0.003,-2.97265 0.28131,-2.62914 -2.23286,-2.75877 -1.90953,-0.0985 -7.37969,-0.47164 -8.1742,-0.55763 -0.30741,-0.0333 -0.61069,-0.0636 -0.67396,-0.0677 -0.0632,-0.003 -0.0947,-0.0995 -0.0699,-0.21258 0.0522,-0.2379 2.18625,-0.3267 8.2543,-0.34347 2.18475,-0.006 3.59805,-0.0624 3.59805,-0.14336 0,-0.15895 -0.51888,-0.25054 -2.02608,-0.35764 -2.12171,-0.15078 -5.55938,-0.49534 -5.67891,-0.56921 -0.44442,-0.27468 0.21684,-0.33706 3.57291,-0.33706 h 3.69279 l 0.0866,-0.80344 c 0.13292,-1.23353 0.33939,-2.00654 0.70241,-2.62975 0.71303,-1.2241 2.18562,-1.76494 4.01653,-1.47515 0.71261,0.11279 1.2622,0.11875 1.85175,0.0201 1.92436,-0.32217 3.92356,-0.10954 6.1178,0.65067 l 1.08751,0.37678 0.71352,-0.30147 c 0.39244,-0.16579 0.78336,-0.25996 0.86871,-0.20923 0.0853,0.0507 0.70919,0.49699 1.3863,0.99171 l 1.23111,0.89949 1.42375,-0.0981 c 1.59077,-0.10961 2.05255,-0.30375 2.05255,-0.86295 0,-0.1985 -0.39977,-1.03019 -0.88837,-1.8482 -0.4886,-0.81801 -1.28288,-2.21482 -1.76507,-3.10401 -0.48218,-0.8892 -0.95075,-1.71798 -1.04126,-1.84176 -0.16817,-0.23 -1.4253,-0.35864 -7.90288,-0.80873 -2.62758,-0.18256 -2.67773,-0.19163 -2.57286,-0.46492 0.065,-0.16956 0.83918,-0.2046 4.88505,-0.22107 4.52971,-0.0185 5.65241,-0.10354 5.65241,-0.42851 0,-0.19404 -1.32565,-0.41197 -3.39855,-0.55871 -2.8235,-0.19991 -4.24935,-0.51236 -3.4687,-0.76014 0.14469,-0.046 1.85904,-0.0881 3.80968,-0.0938 4.22661,-0.0123 4.56544,-0.0777 5.94999,-1.14741 2.81753,-2.17693 4.28267,-2.94317 5.63111,-2.94495 1.20492,-9e-4 2.07657,0.42834 3.67452,1.81235 0.78681,0.68148 1.30558,1.03542 1.44131,0.98333 0.11662,-0.0447 1.33804,-0.71057 2.71426,-1.47957 1.37622,-0.76901 2.55674,-1.3982 2.62338,-1.3982 0.17428,0 0.44547,0.65035 0.44547,1.06834 0,0.49326 -0.52984,0.94927 -2.68793,2.31338 -1.0089,0.63773 -1.89487,1.20026 -1.9688,1.25006 -0.0746,0.0504 0.26314,0.71797 0.75905,1.50059 l 0.89347,1.40998 0.81574,0.16186 c 0.44865,0.089 0.8483,0.24673 0.88812,0.35048 0.0398,0.10375 -0.13312,0.42267 -0.3843,0.70874 -0.52308,0.59577 -1.11542,1.83135 -1.46032,3.04614 -0.85645,3.0166 -3.59126,5.08673 -6.73184,5.09568 -0.85938,0.002 -1.36933,0.17181 -1.49376,0.49607 -0.078,0.20313 0.42114,0.99933 1.48589,2.37046 0.0596,0.0768 0.28862,0.39618 0.50875,0.70962 0.3476,0.49495 0.54979,0.61932 1.53714,0.94565 2.05818,0.68023 4.34361,0.99645 5.10103,0.70581 0.1207,-0.0463 0.5578,-0.56707 0.97133,-1.15724 0.41354,-0.59016 0.97916,-1.24636 1.25694,-1.45823 1.39896,-1.06704 3.04465,-0.98288 4.2735,0.21855 0.76533,0.74824 0.98681,1.34554 0.98681,2.66128 0,1.1253 -0.0197,1.19759 -0.52399,1.91673 -0.76729,1.09432 -1.48172,1.43759 -2.82954,1.35958 -0.72504,-0.0419 -1.32546,-0.1789 -1.94848,-0.44436 l -0.90056,-0.3837 -1.89407,0.1696 c -1.04173,0.0933 -2.00081,0.22543 -2.13129,0.29369 -0.13046,0.0682 -0.34924,0.31374 -0.48615,0.54553 -0.52335,0.88595 -2.44801,0.90773 -4.50943,0.051 -1.86239,-0.77399 -1.72951,-0.79394 -2.30352,0.3459 -0.27398,0.54404 -0.49814,1.01699 -0.49814,1.05101 0,0.034 0.61306,0.26493 1.36236,0.51317 4.08113,1.35203 5.79317,2.83336 6.21469,5.37713 0.15107,0.91169 0.0829,1.79788 -0.32635,4.23913 -0.119,0.71001 -0.11223,0.91532 0.0332,1.00519 0.35366,0.21856 2.01942,0.30611 4.48113,0.23553 1.3681,-0.0393 2.48745,-0.0247 2.48745,0.0324 0,0.24541 -5.83097,2.61119 -8.3838,3.40153 -2.01419,0.6236 -5.31005,1.46342 -6.14459,1.5657 -0.62459,0.0766 -0.63743,0.0698 -1.05132,-0.55673 z m -11.65266,-12.74096 c 3.57359,-1.05947 5.8728,-4.6304 5.31966,-8.26198 -0.24974,-1.63961 -0.94275,-2.9412 -2.25051,-4.22684 -1.5789,-1.55217 -3.07968,-2.23568 -4.90909,-2.23568 -1.53952,0 -1.67631,0.0774 -2.13449,1.20737 -0.49595,1.22314 -1.14406,2.18591 -1.69004,2.51051 -0.31249,0.18578 -0.80031,0.27018 -1.79875,0.31116 -1.20991,0.0497 -1.39277,0.0911 -1.56486,0.35409 -0.63091,0.96431 -0.85926,3.82345 -0.4261,5.33513 0.61251,2.13765 2.34951,4.05426 4.32009,4.76684 1.74594,0.63132 3.5313,0.71458 5.13409,0.2394 z m -7.46244,-2.37687 c -0.074,-0.074 1.63783,-1.94704 2.52198,-2.75955 0.45862,-0.42146 0.60111,-0.81643 0.27946,-0.77465 -0.69778,0.0906 -0.80344,0.005 -0.80344,-0.64882 v -0.63839 l 1.12558,0.0982 c 1.10647,0.0965 1.13267,0.0914 1.54213,-0.30085 0.46011,-0.44084 0.77099,-0.37953 1.03513,0.2042 0.16445,0.36342 0.21786,0.37716 2.30555,0.59334 3.05943,0.3168 2.68867,0.479 -1.3595,0.59476 l -2.128,0.0608 -1.43511,1.15734 c -0.7893,0.63654 -1.46655,1.193 -1.50497,1.23659 -0.0385,0.0435 -0.30023,0.25084 -0.58176,0.4606 -0.28154,0.20973 -0.60416,0.47362 -0.71695,0.5864 -0.11278,0.11277 -0.23883,0.17128 -0.2801,0.13 z m 7.96386,-5.04673 c 0.36266,-1.35906 -0.65721,-2.54394 -2.02794,-2.35606 -0.34434,0.0473 -0.71253,0.15757 -0.81821,0.24526 -0.10567,0.0877 -0.22475,0.12687 -0.26459,0.0871 -0.0398,-0.0399 0.1539,-0.206 0.43055,-0.36922 1.58994,-0.9381 3.48369,0.43474 3.01189,2.18343 -0.0881,0.3266 -0.22187,0.59384 -0.29723,0.59384 -0.0812,0 -0.0952,-0.15661 -0.0344,-0.38426 z m 1.10071,-0.80346 c 0.20847,-0.92569 0.13149,-1.44676 -0.27678,-1.87289 -0.38779,-0.40476 -1.71298,-1.19091 -2.52803,-1.49972 -0.7618,-0.28862 -0.0307,-0.37255 0.93155,-0.10694 1.51203,0.41734 2.07854,0.94642 2.27809,2.1276 0.0717,0.42408 0.0232,0.70226 -0.20254,1.16419 -0.23486,0.48046 -0.27703,0.5196 -0.20229,0.18776 z"
       style="fill:url(#linearGradient1020);fill-opacity:1;stroke-width:0.13972996" />
    <path
       style="fill:#ff6600;fill-opacity:1;fill-rule:evenodd;stroke:none;stroke-width:0.25663063px;stroke-linecap:butt;stroke-linejoin:miter;stroke-opacity:1"
       d="m 48.284292,174.15487 3.238044,-0.0311 10.669323,15.36382 -10.674784,15.96915 -3.584053,0.0796 10.641687,-15.97777 z"
       id="path1821"
       inkscape:connector-curvature="0"
       sodipodi:nodetypes="ccccccc" />
    <path
       style="fill:#0000ff;fill-opacity:1;stroke-width:0.32176444"
       d="m 435.81381,216.75887 c -0.73889,-1.11845 -1.32287,-1.58923 -2.49367,-2.01023 -0.84083,-0.30236 -1.5288,-0.66035 -1.5288,-0.79549 0,-0.13518 0.28959,-1.48771 0.64352,-3.00565 0.35395,-1.51797 0.64353,-2.94239 0.64353,-3.16537 0,-0.29461 -1.47364,-0.51103 -5.38953,-0.79154 -19.86835,-1.42325 -20.94139,-1.51298 -21.20116,-1.77272 -0.75349,-0.75351 0.96795,-0.86656 13.19496,-0.86656 10.67228,0 13.06079,-0.0802 13.57505,-0.45631 0.34324,-0.25101 0.5519,-0.52521 0.4637,-0.60938 -0.0883,-0.0842 -3.08695,-0.44604 -6.66388,-0.80419 -3.57692,-0.35813 -6.65615,-0.74548 -6.84275,-0.8608 -0.99041,-0.6121 0.61454,-0.80871 6.60206,-0.80871 h 6.57105 l 0.19765,-0.78734 c 0.48026,-1.91347 -1.63541,-5.28387 -4.29525,-6.84265 -2.03791,-1.19427 -4.43067,-1.21987 -6.66919,-0.0713 -0.88486,0.45403 -2.91198,1.4947 -4.5047,2.31262 -5.58768,2.86945 -10.38976,3.98792 -15.76645,3.6722 -5.71642,-0.33569 -9.95762,-1.92988 -16.30823,-6.12998 l -3.7594,-2.48636 -2.83676,0.95524 c -1.56024,0.52539 -5.43041,2.12691 -8.60041,3.55896 -3.16999,1.432 -5.80395,2.56331 -5.8532,2.51406 -0.0493,-0.0492 0.91541,-1.36574 2.14376,-2.92546 1.22837,-1.55974 2.23338,-2.94552 2.23338,-3.0795 0,-0.13398 -1.95281,-0.33728 -4.33952,-0.45173 -2.38675,-0.1145 -5.35502,-0.30251 -6.59618,-0.41787 -2.21872,-0.20621 -2.25665,-0.22517 -2.25665,-1.12881 v -0.9191 l 5.06779,-0.01 c 5.93997,-0.0141 11.27247,-0.43363 11.76596,-0.92708 0.19165,-0.19163 0.2833,-0.36285 0.20367,-0.38044 -0.0797,-0.0181 -3.02886,-0.34409 -6.55384,-0.72566 -4.30214,-0.46565 -6.45292,-0.82536 -6.54254,-1.09421 -0.10396,-0.31194 1.54078,-0.40051 7.43774,-0.40051 h 7.5712 l 3.87174,-4.26339 3.87174,-4.26338 0.007,-5.86608 c 0.007,-6.8453 0.64779,-6.05428 -5.14174,-6.35281 -4.39717,-0.22676 -16.99364,-1.08607 -18.82321,-1.28409 -0.70788,-0.0767 -1.40627,-0.14663 -1.55197,-0.15568 -0.14568,-0.008 -0.21811,-0.22929 -0.16085,-0.48955 0.12033,-0.54781 5.03441,-0.75229 19.00767,-0.79092 5.03095,-0.0141 8.28544,-0.14361 8.28544,-0.33013 0,-0.366 -1.19485,-0.57693 -4.66557,-0.82355 -4.8858,-0.3472 -12.80192,-1.14065 -13.07717,-1.31074 -1.02341,-0.63253 0.49935,-0.7762 8.22755,-0.7762 h 8.50361 l 0.19937,-1.85011 c 0.30608,-2.84051 0.78156,-4.62058 1.6175,-6.05568 1.64192,-2.8188 5.03295,-4.06424 9.24909,-3.39689 1.64097,0.25972 2.90654,0.27342 4.26415,0.0462 4.43131,-0.74189 9.03501,-0.25225 14.0878,1.49833 l 2.50428,0.86762 1.64305,-0.69421 c 0.90371,-0.38177 1.8039,-0.59861 2.00044,-0.4818 0.19646,0.1167 1.63308,1.14444 3.19231,2.28366 l 2.83495,2.07133 3.27856,-0.2259 c 3.66315,-0.25241 4.72652,-0.69948 4.72652,-1.98718 0,-0.45712 -0.92057,-2.37229 -2.0457,-4.25597 -1.12513,-1.88367 -2.95415,-5.10019 -4.06452,-7.14778 -1.11035,-2.0476 -2.18934,-3.95609 -2.39776,-4.24114 -0.38728,-0.52963 -3.28214,-0.82585 -18.19846,-1.8623 -6.05067,-0.42038 -6.16615,-0.44127 -5.92464,-1.07061 0.14982,-0.39045 1.93241,-0.47113 11.24907,-0.50906 10.43083,-0.0426 13.01614,-0.23845 13.01614,-0.98674 0,-0.44683 -3.05265,-0.94868 -7.82604,-1.2866 -6.50184,-0.46033 -9.78524,-1.17984 -7.98757,-1.7504 0.33318,-0.10586 4.28093,-0.20294 8.77277,-0.21601 9.73286,-0.0283 10.5131,-0.17878 13.70139,-2.6422 6.48809,-5.01296 9.86195,-6.77742 12.96708,-6.78152 2.77464,-0.002 4.78184,0.98636 8.46153,4.17343 1.81182,1.56928 3.00644,2.3843 3.319,2.26437 0.26853,-0.10305 3.08117,-1.63628 6.25028,-3.4071 3.1691,-1.77085 5.88755,-3.21973 6.04101,-3.21973 0.40132,0 1.02579,1.49761 1.02579,2.46014 0,1.13585 -1.22007,2.18593 -6.18963,5.32714 -2.32327,1.46854 -4.36343,2.7639 -4.53368,2.87862 -0.17172,0.1159 0.60593,1.6533 1.74792,3.45546 l 2.05744,3.24687 1.87847,0.37271 c 1.03313,0.20501 1.95342,0.56818 2.04511,0.80707 0.0915,0.23891 -0.30655,0.97332 -0.88495,1.63207 -1.20452,1.37191 -2.56855,4.21714 -3.36275,7.01452 -1.9722,6.94651 -8.26983,11.71352 -15.50183,11.73413 -1.97892,0.006 -3.15322,0.39563 -3.43976,1.14234 -0.17958,0.46774 0.96979,2.30122 3.42164,5.4586 0.13741,0.17696 0.66462,0.9123 1.17152,1.63408 0.80044,1.13972 1.26604,1.42614 3.53967,2.17759 4.7395,1.5664 10.00229,2.29459 11.74647,1.6253 0.27791,-0.10667 1.28446,-1.30582 2.23672,-2.66483 0.95228,-1.35902 2.25477,-2.87008 2.89441,-3.35797 3.22148,-2.45714 7.0111,-2.26332 9.84088,0.50327 1.76235,1.72303 2.27236,3.09847 2.27236,6.1283 0,2.59129 -0.0454,2.75775 -1.20663,4.41375 -1.76688,2.51996 -3.41202,3.31044 -6.51574,3.1308 -1.66959,-0.0966 -3.05222,-0.41196 -4.4869,-1.02324 l -2.07375,-0.88358 -4.36157,0.39053 c -2.39887,0.21479 -4.6074,0.51912 -4.90787,0.6763 -0.30042,0.15708 -0.80423,0.72248 -1.11949,1.25623 -1.20514,2.04013 -5.63716,2.09027 -10.38412,0.11751 -4.28862,-1.78232 -3.98265,-1.82828 -5.30447,0.7965 -0.63089,1.25282 -1.14707,2.3419 -1.14707,2.42022 0,0.0783 1.41173,0.61007 3.13718,1.1817 9.39783,3.11343 13.34027,6.52455 14.31093,12.38225 0.34788,2.09941 0.19082,4.14009 -0.7515,9.7617 -0.27403,1.63498 -0.25843,2.10776 0.0764,2.3147 0.81439,0.50329 4.65023,0.70492 10.31895,0.54238 3.1504,-0.0904 5.728,-0.0568 5.728,0.0745 0,0.5651 -13.42732,6.01293 -19.30586,7.83292 -4.63819,1.43598 -12.22774,3.36987 -14.14951,3.60543 -1.43827,0.17637 -1.46783,0.1607 -2.42092,-1.28204 z M 408.98055,187.4195 c 8.2291,-2.43972 13.52364,-10.66268 12.24989,-19.02535 -0.57509,-3.77563 -2.17092,-6.77288 -5.18238,-9.73339 -3.63582,-3.5743 -7.09177,-5.14824 -11.30445,-5.14824 -3.54515,0 -3.86015,0.17817 -4.91521,2.78029 -1.14205,2.81659 -2.63452,5.03361 -3.89176,5.78109 -0.71958,0.42781 -1.84292,0.62215 -4.1421,0.71654 -2.78612,0.1145 -3.2072,0.20967 -3.60348,0.81536 -1.45283,2.2206 -1.97868,8.8045 -0.98122,12.28554 1.41048,4.92248 5.41036,9.33599 9.94813,10.97686 4.02049,1.4538 8.13175,1.64551 11.82258,0.5513 z m -17.1842,-5.47338 c -0.17034,-0.17034 3.77152,-4.48355 5.80751,-6.35456 1.0561,-0.97053 1.38422,-1.88004 0.64353,-1.78384 -1.6068,0.20864 -1.85014,0.0121 -1.85014,-1.49408 v -1.47005 l 2.59195,0.2261 c 2.54795,0.22228 2.60825,0.21049 3.55113,-0.69281 1.05955,-1.01515 1.77544,-0.87394 2.38368,0.47025 0.37867,0.83685 0.50168,0.86849 5.30911,1.3663 7.04515,0.72953 6.19137,1.10302 -3.13059,1.3696 l -4.90028,0.14001 -3.3047,2.66507 c -1.81759,1.46579 -3.37711,2.74719 -3.46559,2.84756 -0.0886,0.10024 -0.69134,0.57764 -1.33965,1.06064 -0.64833,0.48299 -1.39125,1.09066 -1.65096,1.35036 -0.25971,0.25968 -0.54997,0.39442 -0.645,0.29937 z m 18.33885,-11.62139 c 0.83511,-3.12958 -1.5134,-5.85807 -4.66987,-5.42544 -0.79292,0.10887 -1.64077,0.36285 -1.88412,0.56478 -0.24335,0.20197 -0.51754,0.29214 -0.6093,0.20047 -0.0917,-0.0918 0.3544,-0.47437 0.99145,-0.85024 3.66125,-2.16021 8.0221,1.00111 6.93567,5.02791 -0.20293,0.75208 -0.51092,1.36748 -0.68444,1.36748 -0.18701,0 -0.21925,-0.36064 -0.0793,-0.88486 z m 2.53467,-1.85015 c 0.48007,-2.13165 0.30277,-3.33156 -0.63735,-4.31284 -0.89298,-0.93206 -3.94459,-2.74238 -5.82146,-3.45347 -1.75423,-0.66464 -0.0707,-0.85791 2.14515,-0.24629 3.48184,0.96105 4.78636,2.1794 5.24588,4.89937 0.16499,0.97654 0.0534,1.61714 -0.4664,2.68084 -0.54082,1.10638 -0.63792,1.19651 -0.46582,0.43239 z"
       id="path1825"
       inkscape:connector-curvature="0" />
    <path
       inkscape:connector-curvature="0"
       id="path905"
       d="m 420.92911,218.12034 c -0.30401,-0.46016 -0.54427,-0.65385 -1.02597,-0.82706 -0.34594,-0.1244 -0.629,-0.27169 -0.629,-0.32729 0,-0.0556 0.11915,-0.61209 0.26476,-1.23661 0.14563,-0.62454 0.26478,-1.21059 0.26478,-1.30233 0,-0.12121 -0.60632,-0.21025 -2.21743,-0.32567 -8.17441,-0.58556 -8.6159,-0.62248 -8.72278,-0.72934 -0.31001,-0.31002 0.39825,-0.35653 5.42881,-0.35653 4.39088,0 5.37359,-0.033 5.58517,-0.18774 0.14122,-0.10327 0.22707,-0.21609 0.19078,-0.25072 -0.0363,-0.0346 -1.27006,-0.18351 -2.74172,-0.33087 -1.47165,-0.14734 -2.73854,-0.30671 -2.8153,-0.35416 -0.40749,-0.25183 0.25283,-0.33272 2.71628,-0.33272 h 2.70352 l 0.0813,-0.32394 c 0.19759,-0.78726 -0.67286,-2.17394 -1.76719,-2.81527 -0.83845,-0.49136 -1.82292,-0.50189 -2.74391,-0.0293 -0.36405,0.18679 -1.19807,0.61496 -1.85337,0.95147 -2.29893,1.18058 -4.27466,1.64076 -6.48678,1.51086 -2.3519,-0.13812 -4.09685,-0.79401 -6.70969,-2.52206 l -1.54673,-1.02296 -1.16713,0.39301 c -0.64192,0.21617 -2.23423,0.87508 -3.53846,1.46426 -1.30423,0.58917 -2.38791,1.05463 -2.40818,1.03436 -0.0203,-0.0203 0.37663,-0.5619 0.88201,-1.20362 0.50538,-0.64172 0.91887,-1.21187 0.91887,-1.267 0,-0.0551 -0.80343,-0.13876 -1.7854,-0.18585 -0.98198,-0.0471 -2.20322,-0.12446 -2.71387,-0.17192 -0.91285,-0.0848 -0.92845,-0.0926 -0.92845,-0.46443 v -0.37814 l 2.08504,-0.004 c 2.44388,-0.006 4.63784,-0.17841 4.84087,-0.38143 0.0788,-0.0788 0.11656,-0.14928 0.0838,-0.15652 -0.0328,-0.007 -1.24616,-0.14157 -2.69644,-0.29856 -1.77003,-0.19158 -2.65493,-0.33958 -2.6918,-0.45019 -0.0428,-0.12834 0.63393,-0.16478 3.06011,-0.16478 h 3.11502 l 1.59294,-1.75409 1.59295,-1.75408 0.003,-2.41348 c 0.003,-2.81636 0.26652,-2.49091 -2.11547,-2.61373 -1.80912,-0.0933 -6.99168,-0.44684 -7.74443,-0.52831 -0.29124,-0.0316 -0.57858,-0.0603 -0.63852,-0.0641 -0.0599,-0.003 -0.0897,-0.0943 -0.0662,-0.20141 0.0495,-0.22539 2.07131,-0.30952 7.82032,-0.32541 2.06988,-0.006 3.40888,-0.0591 3.40888,-0.13582 0,-0.15059 -0.4916,-0.23737 -1.91956,-0.33884 -2.01016,-0.14285 -5.26708,-0.46929 -5.38033,-0.53928 -0.42106,-0.26024 0.20545,-0.31934 3.38506,-0.31934 h 3.49863 l 0.082,-0.7612 c 0.12594,-1.16867 0.32156,-1.90104 0.66549,-2.49148 0.67554,-1.15974 2.0707,-1.67215 3.80535,-1.39759 0.67515,0.10686 1.19583,0.1125 1.7544,0.019 1.82317,-0.30523 3.71727,-0.10378 5.79614,0.61646 l 1.03033,0.35697 0.67601,-0.28562 c 0.3718,-0.15707 0.74216,-0.24629 0.82304,-0.19823 0.0808,0.048 0.67189,0.47086 1.3134,0.93957 l 1.16639,0.8522 1.3489,-0.0929 c 1.50712,-0.10385 1.94463,-0.28778 1.94463,-0.81758 0,-0.18807 -0.37876,-0.97603 -0.84166,-1.75103 -0.46292,-0.775 -1.21544,-2.09837 -1.67227,-2.94081 -0.45684,-0.84245 -0.90077,-1.62766 -0.98652,-1.74493 -0.15933,-0.21791 -1.35036,-0.33978 -7.48738,-0.76621 -2.48943,-0.17296 -2.53693,-0.18155 -2.43757,-0.44048 0.0616,-0.16064 0.79505,-0.19384 4.6282,-0.20944 4.29155,-0.0175 5.35522,-0.0981 5.35522,-0.40598 0,-0.18384 -1.25595,-0.39031 -3.21986,-0.52934 -2.67505,-0.1894 -4.02594,-0.48542 -3.28632,-0.72017 0.13707,-0.0436 1.76129,-0.0835 3.60938,-0.0889 4.00439,-0.0117 4.32539,-0.0736 5.63715,-1.08708 2.66939,-2.06248 4.0575,-2.78843 5.33504,-2.79012 1.14157,-8.5e-4 1.9674,0.40582 3.48134,1.71707 0.74543,0.64565 1.23693,0.98098 1.36552,0.93163 0.11049,-0.0424 1.2677,-0.67321 2.57156,-1.40178 1.30387,-0.72858 2.42231,-1.32469 2.48544,-1.32469 0.16513,0 0.42206,0.61616 0.42206,1.01217 0,0.46733 -0.50199,0.89936 -2.5466,2.19175 -0.95586,0.6042 -1.79526,1.13715 -1.86529,1.18434 -0.0707,0.0477 0.24929,0.68022 0.71914,1.42169 l 0.8465,1.33585 0.77284,0.15335 c 0.42507,0.0843 0.80371,0.23376 0.84142,0.33205 0.0377,0.0983 -0.12611,0.40045 -0.36408,0.67148 -0.49558,0.56444 -1.05679,1.73506 -1.38354,2.88598 -0.81142,2.858 -3.40245,4.81929 -6.37791,4.82777 -0.81419,0.002 -1.29733,0.16278 -1.41522,0.46999 -0.0739,0.19245 0.399,0.94679 1.40777,2.24583 0.0565,0.0728 0.27343,0.37535 0.48199,0.67231 0.32933,0.46892 0.52088,0.58676 1.45633,0.89593 1.94997,0.64446 4.11522,0.94406 4.83284,0.6687 0.11434,-0.0439 0.52846,-0.53726 0.92026,-1.0964 0.39179,-0.55913 0.92766,-1.18083 1.19083,-1.38156 1.32542,-1.01094 2.88459,-0.9312 4.04883,0.20706 0.72509,0.7089 0.93492,1.2748 0.93492,2.52136 0,1.06614 -0.0186,1.13462 -0.49644,1.81595 -0.72695,1.03679 -1.4038,1.36201 -2.68076,1.2881 -0.68693,-0.0397 -1.25578,-0.16949 -1.84606,-0.42099 l -0.85319,-0.36353 -1.79448,0.16068 c -0.98698,0.0884 -1.89563,0.21358 -2.01924,0.27825 -0.1236,0.0646 -0.33089,0.29725 -0.4606,0.51685 -0.49584,0.83937 -2.31929,0.86 -4.27233,0.0483 -1.76447,-0.7333 -1.63858,-0.7522 -2.18242,0.32771 -0.25957,0.51544 -0.47194,0.96352 -0.47194,0.99575 0,0.0322 0.58083,0.251 1.29073,0.48619 3.86655,1.28095 5.48858,2.68439 5.88794,5.09442 0.14313,0.86376 0.0785,1.70336 -0.30918,4.01625 -0.11275,0.67268 -0.10633,0.8672 0.0314,0.95234 0.33505,0.20707 1.91325,0.29002 4.24552,0.22315 1.29617,-0.0372 2.35667,-0.0234 2.35667,0.0307 0,0.2325 -5.5244,2.4739 -7.94301,3.22269 -1.90829,0.59081 -5.03085,1.38647 -5.82153,1.48338 -0.59174,0.0726 -0.6039,0.0661 -0.99604,-0.52746 z m -11.04,-12.07108 c 3.3857,-1.00377 5.56403,-4.38695 5.03996,-7.8276 -0.2366,-1.5534 -0.89318,-2.78656 -2.13217,-4.0046 -1.4959,-1.47057 -2.91778,-2.11814 -4.651,-2.11814 -1.45858,0 -1.58818,0.0733 -2.02226,1.14389 -0.46987,1.15883 -1.08391,2.07098 -1.60119,2.37852 -0.29605,0.17601 -0.75823,0.25597 -1.70418,0.2948 -1.1463,0.0471 -1.31954,0.0863 -1.48258,0.33547 -0.59774,0.91361 -0.81408,3.62243 -0.40369,5.05463 0.5803,2.02526 2.22598,3.8411 4.09294,4.51621 1.65416,0.59813 3.34565,0.67701 4.86417,0.22682 z m -7.0701,-2.25191 c -0.0701,-0.0701 1.55172,-1.84467 2.38939,-2.61446 0.43451,-0.3993 0.5695,-0.7735 0.26477,-0.73392 -0.66109,0.0858 -0.76121,0.005 -0.76121,-0.61471 v -0.60482 l 1.06641,0.093 c 1.0483,0.0914 1.07312,0.0866 1.46104,-0.28504 0.43593,-0.41766 0.73047,-0.35957 0.98071,0.19347 0.15581,0.34431 0.2064,0.35733 2.18434,0.56214 2.89858,0.30015 2.5473,0.45382 -1.28802,0.56349 l -2.01612,0.0576 -1.35966,1.09649 c -0.74781,0.60307 -1.38944,1.13027 -1.42585,1.17157 -0.0364,0.0412 -0.28443,0.23765 -0.55117,0.43638 -0.26674,0.19871 -0.5724,0.44872 -0.67925,0.55557 -0.10686,0.10684 -0.22627,0.16228 -0.26538,0.12317 z m 7.54516,-4.78139 c 0.34359,-1.2876 -0.62266,-2.41018 -1.92133,-2.23218 -0.32623,0.0448 -0.67507,0.14928 -0.77519,0.23236 -0.10012,0.0831 -0.21292,0.1202 -0.25067,0.0825 -0.0378,-0.0378 0.1458,-0.19517 0.4079,-0.34981 1.50636,-0.88878 3.30053,0.41188 2.85355,2.06863 -0.0835,0.30943 -0.21021,0.56262 -0.28161,0.56262 -0.0769,0 -0.0902,-0.14838 -0.0326,-0.36406 z m 1.04284,-0.76121 c 0.19751,-0.87702 0.12455,-1.3707 -0.26223,-1.77442 -0.36741,-0.38348 -1.62293,-1.1283 -2.39512,-1.42087 -0.72176,-0.27345 -0.0291,-0.35296 0.88258,-0.10132 1.43253,0.3954 1.96925,0.89666 2.15831,2.01574 0.0678,0.40178 0.022,0.66534 -0.1919,1.10298 -0.22251,0.4552 -0.26246,0.49228 -0.19164,0.17789 z"
       style="fill:#ff6600;fill-opacity:1;stroke-width:0.13238344" />
    <path
       sodipodi:nodetypes="ccccccccccccscsccscsccccssscccccscccscscsccccccccccsccccccccccccccccccssccccsscccccccsscccscsscssss"
       inkscape:connector-curvature="0"
       id="path909"
       d="m 321.47191,190.70476 c -0.22947,-0.1498 -0.19918,-0.42675 0.10369,-0.94822 l 9.54949,-6.09403 c 0.61056,-0.0614 0.91046,0.0366 0.96996,0.31712 0.0426,0.20121 -0.1041,0.2637 -0.59199,0.25205 l -9.51761,5.99727 c -0.24995,0.51938 -0.33133,0.59477 -0.51352,0.47582 z m -0.50192,-0.76741 c -0.0259,-0.0127 -0.36516,-0.25001 -0.7541,-0.52726 -0.38895,-0.27725 -0.85277,-0.60124 -1.03073,-0.71997 -0.17795,-0.11872 -0.34613,-0.26607 -0.37375,-0.32744 -0.0704,-0.15656 0.19279,-0.35374 0.45666,-0.34207 0.49379,0.0219 1.15051,-0.2645 1.33634,-0.58265 0.15002,-0.25685 0.21256,-0.82167 0.15329,-1.38443 -0.0731,-0.69392 -0.045,-0.83809 0.19268,-0.98872 0.16172,-0.10249 0.24276,-0.10731 0.51497,-0.0307 0.61372,0.17285 0.89552,0.21697 1.15482,0.18082 0.53372,-0.0744 0.74754,-0.36621 0.73446,-1.00238 -0.009,-0.42793 -0.17579,-1.40058 -0.26491,-1.5429 -0.0308,-0.0491 -0.0757,-0.24155 -0.0998,-0.42762 -0.0384,-0.29568 -0.0235,-0.35741 0.11848,-0.48975 0.26643,-0.24837 0.46985,-0.19471 1.03337,0.27263 1.12909,0.93639 1.79738,1.2214 2.22194,0.94763 0.22794,-0.14705 0.42367,-0.50477 0.50076,-0.91543 0.15044,-0.80134 0.16758,-0.8469 0.36594,-0.97262 0.22877,-0.145 0.32188,-0.12216 0.88265,0.21652 0.5743,0.34684 0.94212,0.48865 1.28495,0.49541 0.39621,0.008 0.79154,-0.27678 1.11111,-0.79987 0.26169,-0.42835 0.4404,-0.56934 0.57663,-0.45493 0.0582,0.0489 0.14425,0.38396 0.22978,0.89484 0.0752,0.44918 0.17312,1.01583 0.2176,1.25922 0.0445,0.24339 0.0771,0.47041 0.0726,0.50447 -0.011,0.0811 -0.47545,0.13654 -0.52251,0.0623 -0.0199,-0.0315 -0.10134,-0.40314 -0.18085,-0.82591 l -0.14458,-0.76867 -0.15902,0.15054 c -0.31754,0.30058 -0.65074,0.46969 -1.01978,0.51757 -0.50318,0.0653 -0.89565,-0.0384 -1.48599,-0.39266 -0.28064,-0.1684 -0.52778,-0.29507 -0.54921,-0.28149 -0.0214,0.0136 -0.0827,0.22944 -0.13616,0.47967 -0.25026,1.17147 -0.83261,1.63947 -1.77675,1.42785 -0.42063,-0.0943 -1.18635,-0.52211 -1.69427,-0.94666 -0.13963,-0.1167 -0.25585,-0.20175 -0.2583,-0.189 -0.002,0.0128 0.0463,0.27687 0.10828,0.58692 0.24704,1.23558 0.16728,1.90738 -0.28489,2.39976 -0.31981,0.34823 -0.77347,0.42627 -1.60762,0.27654 -0.30779,-0.0553 -0.56979,-0.0795 -0.58221,-0.054 -0.0124,0.0256 10e-4,0.2748 0.0314,0.55387 0.11593,1.09061 -0.22582,1.81901 -1.01156,2.15607 -0.19005,0.0815 -0.34623,0.15582 -0.34707,0.16509 -0.001,0.009 0.25525,0.20329 0.56908,0.43115 0.79899,0.58011 0.75151,0.52328 0.63483,0.75976 -0.11154,0.22604 -0.1474,0.26353 -0.21847,0.22846 z m 0.53206,-0.83082 c -0.0257,-0.0129 -0.19933,-0.12977 -0.38574,-0.25975 -0.3704,-0.25825 -0.3867,-0.32344 -0.12322,-0.49253 0.45972,-0.29499 0.81846,-1.18915 0.74935,-1.86762 -0.0214,-0.21038 -0.0399,-0.39256 -0.0412,-0.40486 -7.1e-4,-0.0123 0.17032,-0.004 0.38116,0.0176 0.45756,0.0478 0.98622,-0.011 1.29062,-0.14351 0.27606,-0.12015 0.62956,-0.49831 0.78034,-0.83481 0.13985,-0.31205 0.19348,-0.91927 0.12531,-1.41888 l -0.0518,-0.37968 0.40976,0.24391 c 0.47236,0.28116 1.07088,0.47979 1.36727,0.45375 0.38634,-0.034 0.79205,-0.17941 0.98676,-0.35378 0.23515,-0.21058 0.56735,-0.76114 0.69869,-1.15798 l 0.10078,-0.30449 0.35827,0.20333 c 0.66755,0.37885 1.3337,0.42706 1.9885,0.14392 0.15421,-0.0667 0.29706,-0.11749 0.31743,-0.11293 0.0204,0.005 0.14579,0.41974 0.16516,0.65735 l 0.0314,0.38433 -9.01867,5.71606 z m -3.5314,-0.87375 c -0.59215,0.0102 -1.00195,-0.51941 -0.81899,-1.05855 0.1197,-0.35278 0.66687,-0.49304 1.0299,-0.26401 0.65077,0.41057 0.50732,1.31013 -0.21091,1.32256 z m 12.72607,-8.13069 c -0.18565,-0.0308 -0.28664,-0.0919 -0.41443,-0.25088 -0.33225,-0.41327 -0.27072,-0.95181 0.13844,-1.21173 0.14709,-0.0934 0.23665,-0.10086 0.45233,-0.0376 0.85131,0.24975 0.68749,1.64343 -0.17635,1.50021 z m -10.54468,5.01464 c -0.53947,0.084 -1.0515,-0.48041 -0.91552,-1.00915 0.0594,-0.23094 0.38362,-0.50294 0.62188,-0.52169 0.43749,-0.0344 0.90836,0.41262 0.90044,0.85489 -0.007,0.38237 -0.21577,0.61509 -0.6068,0.67595 z m 6.84156,-4.39391 c -0.27685,-0.0381 -0.42953,-0.13855 -0.58599,-0.38542 -0.33662,-0.5311 -0.0784,-1.1526 0.50003,-1.20342 0.27253,-0.0239 0.49198,0.0974 0.66249,0.36649 0.1889,0.29803 0.19822,0.64767 0.0239,0.89702 -0.1826,0.2612 -0.36164,0.35822 -0.60043,0.32533 z m -4.45738,0.71708 c -0.53541,-0.002 -0.86092,-0.44459 -0.74715,-1.01479 0.11933,-0.59804 0.91348,-0.75658 1.3632,-0.27214 0.44081,0.47487 0.0506,1.29003 -0.61605,1.28693 z"
       style="fill:#000000;fill-opacity:1;stroke-width:0.0595817" />
  </g>
  <g
     inkscape:groupmode="layer"
     id="layer2"
     inkscape:label="SAMPLE"
     style="opacity:0.288">
    <text
       xml:space="preserve"
       style="font-style:normal;font-weight:normal;font-size:44.34301376px;line-height:1000%;font-family:sans-serif;letter-spacing:0px;word-spacing:0px;fill:#000000;fill-opacity:1;stroke:none;stroke-width:1.18248034px;stroke-linecap:butt;stroke-linejoin:miter;stroke-opacity:1"
       x="9.2348747"
       y="152.49983"
       id="text1025"
       transform="rotate(-15)"
       inkscape:transform-center-x="7.140635"
       inkscape:transform-center-y="34.86309"><tspan
         sodipodi:role="line"
         id="tspan1023"
         x="9.2348747"
         y="152.49983"
         style="font-style:normal;font-variant:normal;font-weight:normal;font-stretch:normal;font-family:'Arial Black';-inkscape-font-specification:'Arial Black, ';letter-spacing:0px;fill:#ff0000;stroke-width:1.18248034px">SAMPLE</tspan></text>
  </g>
</svg>
