<?xml version="1.0" encoding="UTF-8" standalone="no"?>
<!-- Created with Inkscape (http://www.inkscape.org/) -->

<svg
   xmlns:dc="http://purl.org/dc/elements/1.1/"
   xmlns:cc="http://creativecommons.org/ns#"
   xmlns:rdf="http://www.w3.org/1999/02/22-rdf-syntax-ns#"
   xmlns:svg="http://www.w3.org/2000/svg"
   xmlns="http://www.w3.org/2000/svg"
   xmlns:xlink="http://www.w3.org/1999/xlink"
   xmlns:sodipodi="http://sodipodi.sourceforge.net/DTD/sodipodi-0.dtd"
   xmlns:inkscape="http://www.inkscape.org/namespaces/inkscape"
   width="297mm"
   height="210mm"
   viewBox="0 0 297 210"
   version="1.1"
   id="svg1013"
   inkscape:version="0.92.3 (2405546, 2018-03-11)"
   sodipodi:docname="logo_proto_2.svg">
  <defs
     id="defs1007">
    <linearGradient
       inkscape:collect="always"
       id="linearGradient1817">
      <stop
         style="stop-color:#0000ff;stop-opacity:1;"
         offset="0"
         id="stop1813" />
      <stop
         style="stop-color:#ff6600;stop-opacity:1"
         offset="1"
         id="stop1815" />
    </linearGradient>
    <linearGradient
       inkscape:collect="always"
       id="linearGradient1710">
      <stop
         style="stop-color:#ff6600;stop-opacity:1;"
         offset="0"
         id="stop1706" />
      <stop
         style="stop-color:#803300;stop-opacity:1"
         offset="1"
         id="stop1708" />
    </linearGradient>
    <linearGradient
       inkscape:collect="always"
       id="linearGradient1664">
      <stop
         style="stop-color:#0000ff;stop-opacity:1"
         offset="0"
         id="stop1660" />
      <stop
         id="stop1668"
         offset="0.99999988"
         style="stop-color:#bd4c2c;stop-opacity:0.98039216;" />
      <stop
         style="stop-color:#e55c00;stop-opacity:1"
         offset="1"
         id="stop1662" />
    </linearGradient>
    <linearGradient
       inkscape:collect="always"
       id="linearGradient1648">
      <stop
         style="stop-color:#0000ff;stop-opacity:1;"
         offset="0"
         id="stop1644" />
      <stop
         id="stop1654"
         offset="0.1"
         style="stop-color:#ff6600;stop-opacity:1" />
      <stop
         id="stop1652"
         offset="1"
         style="stop-color:#d45500;stop-opacity:1" />
      <stop
         style="stop-color:#0000ff;stop-opacity:0.89655173"
         offset="1"
         id="stop1646" />
    </linearGradient>
    <linearGradient
       inkscape:collect="always"
       xlink:href="#linearGradient1648"
       id="linearGradient1650"
       x1="151.27455"
       y1="229.40605"
       x2="151.27455"
       y2="259.99335"
       gradientUnits="userSpaceOnUse"
       gradientTransform="translate(432.40476,-29.626083)" />
    <linearGradient
       inkscape:collect="always"
       xlink:href="#linearGradient1664"
       id="linearGradient1666"
       x1="279.70239"
       y1="260.71429"
       x2="279.70239"
       y2="260.76154"
       gradientUnits="userSpaceOnUse"
       gradientTransform="translate(432.40476,-30.238095)" />
    <clipPath
       clipPathUnits="userSpaceOnUse"
       id="clipPath1698">
      <rect
         style="opacity:1;fill:#0000ff;fill-opacity:0.95977017;stroke:none;stroke-width:0.94365084;stroke-linecap:butt;stroke-miterlimit:4;stroke-dasharray:none;stroke-dashoffset:0;stroke-opacity:1"
         id="rect1700"
         width="62.2738"
         height="24.989721"
         x="581.67108"
         y="268.81845" />
    </clipPath>
    <clipPath
       clipPathUnits="userSpaceOnUse"
       id="clipPath1702">
      <rect
         y="294.0665"
         x="660.24829"
         height="24.856064"
         width="62.2738"
         id="rect1704"
         style="opacity:1;fill:#800000;fill-opacity:0.9885057;stroke:none;stroke-width:0.94112396;stroke-linecap:butt;stroke-miterlimit:4;stroke-dasharray:none;stroke-dashoffset:0;stroke-opacity:1" />
    </clipPath>
    <linearGradient
       inkscape:collect="always"
       xlink:href="#linearGradient1710"
       id="linearGradient1712"
       x1="696.75732"
       y1="299.4317"
       x2="696.75732"
       y2="293.38409"
       gradientUnits="userSpaceOnUse" />
    <linearGradient
       inkscape:collect="always"
       xlink:href="#linearGradient1664"
       id="linearGradient1726"
       gradientUnits="userSpaceOnUse"
       gradientTransform="translate(472.49519,32.302974)"
       x1="279.70239"
       y1="260.71429"
       x2="279.70239"
       y2="260.76154" />
    <radialGradient
       inkscape:collect="always"
       xlink:href="#linearGradient852"
       id="radialGradient854"
       cx="61.786381"
       cy="148.13731"
       fx="61.786381"
       fy="148.13731"
       r="19.120785"
       gradientTransform="matrix(0.29649341,-0.18791858,0.10839871,0.17102889,438.55476,-19.366575)"
       gradientUnits="userSpaceOnUse" />
    <linearGradient
       inkscape:collect="always"
       id="linearGradient852">
      <stop
         style="stop-color:#ff6600;stop-opacity:1"
         offset="0"
         id="stop848" />
      <stop
         style="stop-color:#800080;stop-opacity:1"
         offset="1"
         id="stop850" />
    </linearGradient>
    <linearGradient
       inkscape:collect="always"
       xlink:href="#linearGradient1307"
       id="linearGradient1309"
       x1="96.217033"
       y1="148.08961"
       x2="96.217033"
       y2="184.73566"
       gradientUnits="userSpaceOnUse"
       gradientTransform="translate(152.31342,-164.23487)" />
    <linearGradient
       inkscape:collect="always"
       id="linearGradient1307">
      <stop
         style="stop-color:#0000ff;stop-opacity:1"
         offset="0"
         id="stop1303" />
      <stop
         style="stop-color:#800080;stop-opacity:1"
         offset="1"
         id="stop1305" />
    </linearGradient>
    <linearGradient
       inkscape:collect="always"
       xlink:href="#linearGradient1307"
       id="linearGradient884"
       x1="75.696465"
       y1="172.83315"
       x2="45.999607"
       y2="172.83315"
       gradientUnits="userSpaceOnUse"
       gradientTransform="translate(9.0157985,-20.937252)" />
    <linearGradient
       inkscape:collect="always"
       xlink:href="#linearGradient844"
       id="linearGradient846"
       x1="60.107708"
       y1="171.7009"
       x2="72.548508"
       y2="171.7009"
       gradientUnits="userSpaceOnUse"
       gradientTransform="translate(152.31342,-164.23487)" />
    <linearGradient
       inkscape:collect="always"
       id="linearGradient844">
      <stop
         style="stop-color:#000000;stop-opacity:1;"
         offset="0"
         id="stop840" />
      <stop
         style="stop-color:#000000;stop-opacity:0;"
         offset="1"
         id="stop842" />
    </linearGradient>
    <linearGradient
       inkscape:collect="always"
       xlink:href="#linearGradient1817"
       id="linearGradient1819"
       x1="283.10416"
       y1="-4.0580311"
       x2="283.10416"
       y2="21.821526"
       gradientUnits="userSpaceOnUse" />
  </defs>
  <sodipodi:namedview
     id="base"
     pagecolor="#ffffff"
     bordercolor="#666666"
     borderopacity="1.0"
     inkscape:pageopacity="0.0"
     inkscape:pageshadow="2"
     inkscape:zoom="0.35"
     inkscape:cx="797.96608"
     inkscape:cy="942.65409"
     inkscape:document-units="mm"
     inkscape:current-layer="layer1"
     showgrid="false"
     showguides="false"
     inkscape:guide-bbox="true"
     inkscape:window-width="1280"
     inkscape:window-height="750"
     inkscape:window-x="0"
     inkscape:window-y="0"
     inkscape:window-maximized="1">
    <sodipodi:guide
       position="78.577243,109.5805"
       orientation="0,1"
       id="guide1597"
       inkscape:locked="false" />
    <sodipodi:guide
       position="301.07912,62.006531"
       orientation="1,0"
       id="guide1603"
       inkscape:locked="false" />
    <sodipodi:guide
       position="204.8631,36.285713"
       orientation="0,1"
       id="guide1670"
       inkscape:locked="false" />
  </sodipodi:namedview>
  <metadata
     id="metadata1010">
    <rdf:RDF>
      <cc:Work
         rdf:about="">
        <dc:format>image/svg+xml</dc:format>
        <dc:type
           rdf:resource="http://purl.org/dc/dcmitype/StillImage" />
        <dc:title></dc:title>
      </cc:Work>
    </rdf:RDF>
  </metadata>
  <g
     inkscape:label="Layer 1"
     inkscape:groupmode="layer"
     id="layer1"
     transform="translate(0,-87)">
    <flowRoot
       xml:space="preserve"
       id="flowRoot1585"
       style="fill:black;stroke:none;stroke-opacity:1;stroke-width:1px;stroke-linejoin:miter;stroke-linecap:butt;fill-opacity:1;font-family:sans-serif;font-style:normal;font-weight:normal;font-size:37.5px;line-height:1000%;letter-spacing:32.34000015px;word-spacing:0px"><flowRegion
         id="flowRegion1587"><rect
           id="rect1589"
           width="54.548237"
           height="52.527931"
           x="379.81735"
           y="383.57886" /></flowRegion><flowPara
         id="flowPara1591"></flowPara></flowRoot>    <path
       inkscape:connector-curvature="0"
       id="path1625"
       d="m 46.2782,216.37468 c -0.367854,-0.55681 -0.658582,-0.79118 -1.24145,-1.00077 -0.418607,-0.15053 -0.7611,-0.32875 -0.7611,-0.39603 0,-0.0673 0.144166,-0.74064 0.32037,-1.49633 0.176206,-0.75571 0.320377,-1.46484 0.320377,-1.57585 0,-0.14667 -0.733645,-0.25441 -2.683135,-0.39406 -9.891248,-0.70855 -10.425452,-0.75322 -10.554773,-0.88253 -0.375118,-0.37513 0.481877,-0.43141 6.568978,-0.43141 5.313084,0 6.502176,-0.0399 6.758202,-0.22717 0.170882,-0.12496 0.274762,-0.26147 0.23085,-0.30337 -0.04389,-0.0419 -1.536811,-0.22206 -3.317548,-0.40036 -1.780739,-0.17829 -3.313705,-0.37113 -3.406591,-0.42854 -0.493076,-0.30473 0.305936,-0.40261 3.286769,-0.40261 h 3.271329 l 0.09838,-0.39197 c 0.239086,-0.9526 -0.814185,-2.63052 -2.138355,-3.40654 -1.014547,-0.59456 -2.205765,-0.6073 -3.320189,-0.0355 -0.440513,0.22603 -1.449693,0.74412 -2.242622,1.15131 -2.781761,1.42853 -5.17244,1.98535 -7.849169,1.82817 -2.845852,-0.16712 -4.957282,-0.96077 -8.118879,-3.05175 l -1.871584,-1.23781 -1.412254,0.47556 c -0.776745,0.26156 -2.703472,1.05886 -4.281621,1.77179 -1.578148,0.71291 -2.889435,1.27612 -2.913961,1.2516 -0.02452,-0.0245 0.455733,-0.67992 1.067255,-1.45641 0.611523,-0.7765 1.111858,-1.4664 1.111858,-1.5331 0,-0.0667 -0.972179,-0.16791 -2.160387,-0.22489 -1.188214,-0.057 -2.66594,-0.1506 -3.283838,-0.20803 -1.104568,-0.10266 -1.123451,-0.1121 -1.123451,-0.56197 v -0.45756 l 2.522949,-0.005 c 2.957153,-0.007 5.611893,-0.21588 5.857565,-0.46154 0.09541,-0.0954 0.141042,-0.18064 0.101398,-0.1894 -0.03965,-0.009 -1.507889,-0.1713 -3.262763,-0.36126 -2.141782,-0.23182 -3.212524,-0.4109 -3.257139,-0.54474 -0.05176,-0.1553 0.767064,-0.19939 3.702797,-0.19939 h 3.769256 l 1.927501,-2.12249 1.927508,-2.12248 0.0031,-2.92037 c 0.0037,-3.40786 0.322496,-3.01406 -2.559766,-3.16268 -2.189084,-0.11289 -8.460111,-0.54069 -9.370947,-0.63927 -0.352409,-0.0382 -0.700097,-0.073 -0.772634,-0.0775 -0.07254,-0.004 -0.108578,-0.11415 -0.08009,-0.24372 0.05994,-0.27272 2.506336,-0.37452 9.462784,-0.39375 2.504605,-0.007 4.124821,-0.0715 4.124821,-0.16435 0,-0.18221 -0.594844,-0.28722 -2.32271,-0.41 -2.432353,-0.17283 -6.373309,-0.56784 -6.510342,-0.65252 -0.509495,-0.3149 0.248596,-0.38642 4.096007,-0.38642 h 4.233434 l 0.09925,-0.92106 c 0.152387,-1.41412 0.389094,-2.30031 0.805261,-3.01476 0.817418,-1.40331 2.505598,-2.02334 4.604569,-1.69111 0.81694,0.1293 1.446989,0.13612 2.122856,0.023 2.206086,-0.36934 4.497989,-0.12558 7.013467,0.74593 l 1.246731,0.43194 0.817986,-0.34561 c 0.449896,-0.19006 0.898042,-0.29801 0.995893,-0.23986 0.09785,0.0581 0.813011,0.56975 1.589259,1.1369 l 1.411352,1.03119 1.632203,-0.11246 c 1.823663,-0.12566 2.353047,-0.34823 2.353047,-0.9893 0,-0.22757 -0.458295,-1.18102 -1.018427,-2.11879 -0.560139,-0.93777 -1.470704,-2.53908 -2.023481,-3.55845 -0.552784,-1.01938 -1.089948,-1.9695 -1.193706,-2.11141 -0.192806,-0.26367 -1.633976,-0.41114 -9.059923,-0.92713 -3.012265,-0.20928 -3.069752,-0.21968 -2.949518,-0.53299 0.07459,-0.19438 0.962029,-0.23455 5.600237,-0.25343 5.192879,-0.0212 6.479949,-0.11871 6.479949,-0.49124 0,-0.22245 -1.519731,-0.47229 -3.896106,-0.64052 -3.236879,-0.22917 -4.871491,-0.58737 -3.976532,-0.87142 0.16586,-0.0527 2.131206,-0.10103 4.367429,-0.10754 4.845411,-0.0141 5.233844,-0.089 6.821099,-1.31539 3.230027,-2.49565 4.909677,-3.37407 6.455532,-3.37611 1.381329,-10e-4 2.3806,0.49105 4.212496,2.0777 0.901997,0.78125 1.496724,1.187 1.652321,1.12729 0.133697,-0.0513 1.53394,-0.8146 3.111647,-1.69619 1.577707,-0.8816 2.931053,-1.60291 3.007446,-1.60291 0.199805,0 0.510688,0.74557 0.510688,1.22476 0,0.56547 -0.607405,1.08824 -3.081436,2.65206 -1.156623,0.7311 -2.172307,1.37598 -2.257056,1.43309 -0.08554,0.0577 0.301657,0.82308 0.870181,1.72027 l 1.024282,1.61642 0.935168,0.18555 c 0.514339,0.10206 0.972505,0.28286 1.018143,0.40179 0.04565,0.11894 -0.152611,0.48456 -0.440561,0.81251 -0.599662,0.68299 -1.278727,2.09946 -1.674109,3.49211 -0.981836,3.45825 -4.117047,5.83146 -7.717426,5.84172 -0.98519,0.003 -1.569801,0.19696 -1.712452,0.5687 -0.08936,0.23286 0.482802,1.14564 1.703425,2.71751 0.06841,0.0881 0.330868,0.45418 0.58323,0.81351 0.398495,0.5674 0.630279,0.70999 1.762189,1.08409 2.359511,0.77982 4.979529,1.14234 5.847864,0.80914 0.138353,-0.0531 0.639445,-0.65009 1.113528,-1.32666 0.474084,-0.67657 1.122507,-1.42884 1.440946,-1.67173 1.603783,-1.22326 3.490414,-1.12677 4.899176,0.25055 0.877373,0.85779 1.131274,1.54254 1.131274,3.05091 0,1.29005 -0.02264,1.37292 -0.600704,2.19734 -0.879626,1.25454 -1.698636,1.64807 -3.243792,1.55864 -0.831192,-0.0481 -1.519519,-0.20509 -2.233765,-0.50941 l -1.032382,-0.43988 -2.171369,0.19442 c -1.194257,0.10693 -2.293752,0.25844 -2.44333,0.33669 -0.149566,0.0782 -0.400378,0.35968 -0.55733,0.6254 -0.599977,1.01566 -2.806404,1.04062 -5.169634,0.0585 -2.13505,-0.88731 -1.982717,-0.91019 -2.640774,0.39653 -0.314086,0.6237 -0.571067,1.16589 -0.571067,1.20488 0,0.039 0.702821,0.30372 1.561826,0.5883 4.678621,1.54999 6.641319,3.24818 7.12455,6.16438 0.17319,1.04517 0.09499,2.0611 -0.37412,4.85976 -0.136434,0.81396 -0.12866,1.04933 0.03802,1.15235 0.405422,0.25056 2.315063,0.35094 5.137174,0.27002 1.568395,-0.045 2.851632,-0.0283 2.851632,0.0371 0,0.28133 -6.684663,2.99348 -9.61123,3.89954 -2.309079,0.71489 -6.087458,1.67766 -7.044198,1.79493 -0.716025,0.0878 -0.730743,0.08 -1.205227,-0.63825 z M 32.919528,201.76837 c 4.096775,-1.21459 6.732608,-5.30831 6.098479,-9.47158 -0.286302,-1.87966 -1.080774,-3.37181 -2.579987,-4.84567 -1.810061,-1.77943 -3.530576,-2.563 -5.627809,-2.563 -1.76492,0 -1.921745,0.0887 -2.446992,1.38414 -0.56855,1.40221 -1.311566,2.50593 -1.937474,2.87806 -0.358228,0.21298 -0.917472,0.30973 -2.0621,0.35672 -1.387045,0.057 -1.596676,0.10438 -1.793956,0.40592 -0.723279,1.1055 -0.985062,4.38323 -0.488487,6.11623 0.702186,2.45061 2.693494,4.64783 4.952579,5.46472 2.001557,0.72376 4.04831,0.8192 5.885747,0.27446 z m -8.554982,-2.72487 c -0.08481,-0.0848 1.877613,-2.23209 2.891215,-3.16355 0.52577,-0.48317 0.689116,-0.93596 0.320372,-0.88807 -0.799934,0.10387 -0.921075,0.006 -0.921075,-0.74381 v -0.73185 l 1.290382,0.11256 c 1.268464,0.11066 1.298488,0.10479 1.767884,-0.34491 0.527495,-0.50538 0.883889,-0.43508 1.186695,0.23411 0.18852,0.41662 0.249753,0.43237 2.643085,0.6802 3.507365,0.36319 3.082309,0.54913 -1.558525,0.68184 l -2.439558,0.0697 -1.645213,1.32678 c -0.904871,0.72973 -1.68126,1.36766 -1.725312,1.41763 -0.04407,0.0499 -0.344168,0.28757 -0.666931,0.52803 -0.322761,0.24045 -0.69262,0.54297 -0.82191,0.67226 -0.129296,0.12928 -0.273795,0.19636 -0.321109,0.14904 z m 9.129815,-5.78559 c 0.415745,-1.55803 -0.753436,-2.91638 -2.324852,-2.701 -0.394752,0.0542 -0.816847,0.18064 -0.937995,0.28117 -0.121146,0.10055 -0.257647,0.14544 -0.303327,0.0998 -0.04571,-0.0457 0.176428,-0.23616 0.493584,-0.42328 1.822719,-1.07544 3.993719,0.49839 3.452857,2.50309 -0.101028,0.37442 -0.254361,0.68079 -0.34075,0.68079 -0.09305,0 -0.109153,-0.17954 -0.03954,-0.44052 z m 1.261854,-0.92108 c 0.239005,-1.06122 0.150727,-1.65858 -0.317301,-2.1471 -0.444562,-0.46402 -1.963772,-1.36527 -2.898147,-1.71928 -0.873335,-0.33088 -0.03524,-0.4271 1.067939,-0.12261 1.733399,0.47845 2.382839,1.08499 2.611614,2.4391 0.08214,0.48616 0.02664,0.80508 -0.232207,1.33463 -0.269241,0.5508 -0.317572,0.59567 -0.231898,0.21526 z"
       style="fill:#ff6600;fill-opacity:1;stroke-width:0.1601872" />
    <path
       style="fill:#800080;fill-opacity:1;stroke-width:0.1601872"
       d="m 48.549991,216.37468 c -0.367854,-0.55681 -0.658582,-0.79118 -1.24145,-1.00077 -0.418607,-0.15053 -0.7611,-0.32875 -0.7611,-0.39603 0,-0.0673 0.144166,-0.74064 0.32037,-1.49633 0.176206,-0.75571 0.320377,-1.46484 0.320377,-1.57585 0,-0.14667 -0.733645,-0.25441 -2.683135,-0.39406 -9.891248,-0.70855 -10.425452,-0.75322 -10.554773,-0.88253 -0.375118,-0.37513 0.481877,-0.43141 6.568978,-0.43141 5.313084,0 6.502176,-0.0399 6.758202,-0.22717 0.170882,-0.12496 0.274762,-0.26147 0.23085,-0.30337 -0.04389,-0.0419 -1.536811,-0.22206 -3.317548,-0.40036 -1.780739,-0.17829 -3.313705,-0.37113 -3.406591,-0.42854 -0.493076,-0.30473 0.305936,-0.40261 3.286769,-0.40261 h 3.271329 l 0.09838,-0.39197 c 0.239086,-0.9526 -0.814185,-2.63052 -2.138355,-3.40654 -1.014547,-0.59456 -2.205765,-0.6073 -3.320189,-0.0355 -0.440513,0.22603 -1.449693,0.74412 -2.242622,1.15131 -2.781761,1.42853 -5.17244,1.98535 -7.849169,1.82817 -2.845852,-0.16712 -4.957282,-0.96077 -8.118879,-3.05175 l -1.871584,-1.23781 -1.412254,0.47556 c -0.776745,0.26156 -2.703472,1.05886 -4.281621,1.77179 -1.578148,0.71291 -2.889435,1.27612 -2.913961,1.2516 -0.02452,-0.0245 0.455733,-0.67992 1.067255,-1.45641 0.611523,-0.7765 1.111858,-1.4664 1.111858,-1.5331 0,-0.0667 -0.972179,-0.16791 -2.160387,-0.22489 -1.188214,-0.057 -2.66594,-0.1506 -3.283838,-0.20803 -1.104568,-0.10266 -1.123451,-0.1121 -1.123451,-0.56197 v -0.45756 l 2.522949,-0.005 c 2.957153,-0.007 5.611893,-0.21588 5.857565,-0.46154 0.09541,-0.0954 0.141042,-0.18064 0.101398,-0.1894 -0.03965,-0.009 -1.507889,-0.1713 -3.262763,-0.36126 -2.141782,-0.23182 -3.212524,-0.4109 -3.257139,-0.54474 -0.05176,-0.1553 0.767064,-0.19939 3.702797,-0.19939 h 3.769256 l 1.927501,-2.12249 1.927508,-2.12248 0.0031,-2.92037 c 0.0037,-3.40786 0.322496,-3.01406 -2.559766,-3.16268 -2.189084,-0.11289 -8.460111,-0.54069 -9.370947,-0.63927 -0.352409,-0.0382 -0.700097,-0.073 -0.772634,-0.0775 -0.07254,-0.004 -0.108578,-0.11415 -0.08009,-0.24372 0.05994,-0.27272 2.506336,-0.37452 9.462784,-0.39375 2.504605,-0.007 4.124821,-0.0715 4.124821,-0.16435 0,-0.18221 -0.594844,-0.28722 -2.32271,-0.41 -2.432353,-0.17283 -6.373309,-0.56784 -6.510342,-0.65252 -0.509495,-0.3149 0.248596,-0.38642 4.096007,-0.38642 h 4.233434 l 0.09925,-0.92106 c 0.152387,-1.41412 0.389094,-2.30031 0.805261,-3.01476 0.817418,-1.40331 2.505598,-2.02334 4.604569,-1.69111 0.81694,0.1293 1.446989,0.13612 2.122856,0.023 2.206086,-0.36934 4.497989,-0.12558 7.013467,0.74593 l 1.246731,0.43194 0.817986,-0.34561 c 0.449896,-0.19006 0.898042,-0.29801 0.995893,-0.23986 0.09785,0.0581 0.813011,0.56975 1.589259,1.1369 l 1.411352,1.03119 1.632203,-0.11246 c 1.823663,-0.12566 2.353047,-0.34823 2.353047,-0.9893 0,-0.22757 -0.458295,-1.18102 -1.018427,-2.11879 -0.560139,-0.93777 -1.470704,-2.53908 -2.023481,-3.55845 -0.552784,-1.01938 -1.089948,-1.9695 -1.193706,-2.11141 -0.192806,-0.26367 -1.633976,-0.41114 -9.059923,-0.92713 -3.012265,-0.20928 -3.069752,-0.21968 -2.949518,-0.53299 0.07459,-0.19438 0.962029,-0.23455 5.600237,-0.25343 5.192879,-0.0212 6.479949,-0.11871 6.479949,-0.49124 0,-0.22245 -1.519731,-0.47229 -3.896106,-0.64052 -3.236879,-0.22917 -4.871491,-0.58737 -3.976532,-0.87142 0.16586,-0.0527 2.131206,-0.10103 4.367429,-0.10754 4.845411,-0.0141 5.233844,-0.089 6.821099,-1.31539 3.230027,-2.49565 4.909677,-3.37407 6.455532,-3.37611 1.381329,-10e-4 2.3806,0.49105 4.212496,2.0777 0.901997,0.78125 1.496724,1.187 1.652321,1.12729 0.133697,-0.0513 1.53394,-0.8146 3.111647,-1.69619 1.577707,-0.8816 2.931053,-1.60291 3.007446,-1.60291 0.199805,0 0.510688,0.74557 0.510688,1.22476 0,0.56547 -0.607405,1.08824 -3.081436,2.65206 -1.156623,0.7311 -2.172307,1.37598 -2.257056,1.43309 -0.08554,0.0577 0.301657,0.82308 0.870181,1.72027 l 1.024282,1.61642 0.935168,0.18555 c 0.514339,0.10206 0.972505,0.28286 1.018143,0.40179 0.04565,0.11894 -0.152611,0.48456 -0.440561,0.81251 -0.599662,0.68299 -1.278727,2.09946 -1.674109,3.49211 -0.981836,3.45825 -4.117047,5.83146 -7.717426,5.84172 -0.98519,0.003 -1.569801,0.19696 -1.712452,0.5687 -0.08936,0.23286 0.482802,1.14564 1.703425,2.71751 0.06841,0.0881 0.330868,0.45418 0.58323,0.81351 0.398495,0.5674 0.630279,0.70999 1.762189,1.08409 2.359511,0.77982 4.979529,1.14234 5.847864,0.80914 0.138353,-0.0531 0.639445,-0.65009 1.113528,-1.32666 0.474084,-0.67657 1.122507,-1.42884 1.440946,-1.67173 1.603783,-1.22326 3.490414,-1.12677 4.899176,0.25055 0.877373,0.85779 1.131274,1.54254 1.131274,3.05091 0,1.29005 -0.02264,1.37292 -0.600704,2.19734 -0.879626,1.25454 -1.698636,1.64807 -3.243792,1.55864 -0.831192,-0.0481 -1.519519,-0.20509 -2.233765,-0.50941 l -1.032382,-0.43988 -2.171369,0.19442 c -1.194257,0.10693 -2.293752,0.25844 -2.44333,0.33669 -0.149566,0.0782 -0.400378,0.35968 -0.55733,0.6254 -0.599977,1.01566 -2.806404,1.04062 -5.169634,0.0585 -2.13505,-0.88731 -1.982717,-0.91019 -2.640774,0.39653 -0.314086,0.6237 -0.571067,1.16589 -0.571067,1.20488 0,0.039 0.702821,0.30372 1.561826,0.5883 4.678621,1.54999 6.641319,3.24818 7.12455,6.16438 0.17319,1.04517 0.09499,2.0611 -0.37412,4.85976 -0.136434,0.81396 -0.12866,1.04933 0.03802,1.15235 0.405422,0.25056 2.315063,0.35094 5.137174,0.27002 1.568395,-0.045 2.851632,-0.0283 2.851632,0.0371 0,0.28133 -6.684663,2.99348 -9.61123,3.89954 -2.309079,0.71489 -6.087458,1.67766 -7.044198,1.79493 -0.716025,0.0878 -0.730743,0.08 -1.205227,-0.63825 z M 35.191319,201.76837 c 4.096775,-1.21459 6.732608,-5.30831 6.098479,-9.47158 -0.286302,-1.87966 -1.080774,-3.37181 -2.579987,-4.84567 -1.810061,-1.77943 -3.530576,-2.563 -5.627809,-2.563 -1.76492,0 -1.921745,0.0887 -2.446992,1.38414 -0.56855,1.40221 -1.311566,2.50593 -1.937474,2.87806 -0.358228,0.21298 -0.917472,0.30973 -2.0621,0.35672 -1.387045,0.057 -1.596676,0.10438 -1.793956,0.40592 -0.723279,1.1055 -0.985062,4.38323 -0.488487,6.11623 0.702186,2.45061 2.693494,4.64783 4.952579,5.46472 2.001557,0.72376 4.04831,0.8192 5.885747,0.27446 z m -8.554982,-2.72487 c -0.08481,-0.0848 1.877613,-2.23209 2.891215,-3.16355 0.52577,-0.48317 0.689116,-0.93596 0.320372,-0.88807 -0.799934,0.10387 -0.921075,0.006 -0.921075,-0.74381 v -0.73185 l 1.290382,0.11256 c 1.268464,0.11066 1.298488,0.10479 1.767884,-0.34491 0.527495,-0.50538 0.883889,-0.43508 1.186695,0.23411 0.18852,0.41662 0.249753,0.43237 2.643085,0.6802 3.507365,0.36319 3.082309,0.54913 -1.558525,0.68184 l -2.439558,0.0697 -1.645213,1.32678 c -0.904871,0.72973 -1.68126,1.36766 -1.725312,1.41763 -0.04407,0.0499 -0.344168,0.28757 -0.666931,0.52803 -0.322761,0.24045 -0.69262,0.54297 -0.82191,0.67226 -0.129296,0.12928 -0.273795,0.19636 -0.321109,0.14904 z m 9.129815,-5.78559 c 0.415745,-1.55803 -0.753436,-2.91638 -2.324852,-2.701 -0.394752,0.0542 -0.816847,0.18064 -0.937995,0.28117 -0.121146,0.10055 -0.257647,0.14544 -0.303327,0.0998 -0.04571,-0.0457 0.176428,-0.23616 0.493584,-0.42328 1.822719,-1.07544 3.993719,0.49839 3.452857,2.50309 -0.101028,0.37442 -0.254361,0.68079 -0.34075,0.68079 -0.09305,0 -0.109153,-0.17954 -0.03954,-0.44052 z m 1.261854,-0.92108 c 0.239005,-1.06122 0.150727,-1.65858 -0.317301,-2.1471 -0.444562,-0.46402 -1.963772,-1.36527 -2.898147,-1.71928 -0.873335,-0.33088 -0.03524,-0.4271 1.067939,-0.12261 1.733399,0.47845 2.382839,1.08499 2.611614,2.4391 0.08214,0.48616 0.02664,0.80508 -0.232207,1.33463 -0.269241,0.5508 -0.317572,0.59567 -0.231898,0.21526 z"
       id="path963"
       inkscape:connector-curvature="0" />
    <text
       xml:space="preserve"
       style="font-style:normal;font-weight:normal;font-size:44.22097778px;line-height:1000%;font-family:sans-serif;letter-spacing:38.13616943px;word-spacing:0px;fill:#000000;fill-opacity:1;stroke:none;stroke-width:1.17922592px;stroke-linecap:butt;stroke-linejoin:miter;stroke-opacity:1"
       x="78.772644"
       y="199.53288"
       id="text1595"><tspan
         sodipodi:role="line"
         id="tspan1593"
         x="78.772644"
         y="199.53288"
         style="font-style:normal;font-variant:normal;font-weight:normal;font-stretch:normal;font-family:'Gotham Black';-inkscape-font-specification:'Gotham Black, ';letter-spacing:0px;stroke-width:1.17922592px">EXPRESS</tspan></text>
    <text
       xml:space="preserve"
       style="font-style:normal;font-weight:normal;font-size:9.921875px;line-height:1000%;font-family:sans-serif;letter-spacing:8.55662537px;word-spacing:0px;fill:#000000;fill-opacity:1;stroke:none;stroke-width:0.26458332px;stroke-linecap:butt;stroke-linejoin:miter;stroke-opacity:1"
       x="81.134537"
       y="214.11327"
       id="text1601"><tspan
         sodipodi:role="line"
         id="tspan1599"
         x="81.134537"
         y="214.11327"
         style="font-style:normal;font-variant:normal;font-weight:normal;font-stretch:normal;font-family:'Gotham Black';-inkscape-font-specification:'Gotham Black, ';letter-spacing:8.55662537px;word-spacing:2.64583325px;stroke-width:0.26458332px">MESSENGERS LTD</tspan></text>
    <path
       inkscape:connector-curvature="0"
       id="path1633"
       d="m 48.549991,282.65752 c -0.367854,-0.55681 -0.658582,-0.79118 -1.24145,-1.00077 -0.418607,-0.15053 -0.7611,-0.32875 -0.7611,-0.39603 0,-0.0673 0.144166,-0.74064 0.32037,-1.49633 0.176206,-0.75571 0.320377,-1.46484 0.320377,-1.57585 0,-0.14667 -0.733645,-0.25441 -2.683135,-0.39406 -9.891248,-0.70855 -10.425452,-0.75322 -10.554773,-0.88253 -0.375118,-0.37513 0.481877,-0.43141 6.568978,-0.43141 5.313084,0 6.502176,-0.0399 6.758202,-0.22717 0.170882,-0.12496 0.274762,-0.26147 0.23085,-0.30337 -0.04389,-0.0419 -1.536811,-0.22206 -3.317548,-0.40036 -1.780739,-0.17829 -3.313705,-0.37113 -3.406591,-0.42854 -0.493076,-0.30473 0.305936,-0.40261 3.286769,-0.40261 h 3.271329 l 0.09838,-0.39197 c 0.239086,-0.9526 -0.814185,-2.63052 -2.138355,-3.40654 -1.014547,-0.59456 -2.205765,-0.6073 -3.320189,-0.0355 -0.440513,0.22603 -1.449693,0.74412 -2.242622,1.15131 -2.781761,1.42853 -5.17244,1.98535 -7.849169,1.82817 -2.845852,-0.16712 -4.957282,-0.96077 -8.118879,-3.05175 l -1.871584,-1.23781 -1.412254,0.47556 c -0.776745,0.26156 -2.703472,1.05886 -4.281621,1.77179 -1.578148,0.71291 -2.889435,1.27612 -2.913961,1.2516 -0.02452,-0.0245 0.455733,-0.67992 1.067255,-1.45641 0.611523,-0.7765 1.111858,-1.4664 1.111858,-1.5331 0,-0.0667 -0.972179,-0.16791 -2.160387,-0.22489 -1.188214,-0.057 -2.66594,-0.1506 -3.283838,-0.20803 -1.104568,-0.10266 -1.123451,-0.1121 -1.123451,-0.56197 v -0.45756 l 2.522949,-0.005 c 2.957153,-0.007 5.611893,-0.21588 5.857565,-0.46154 0.09541,-0.0954 0.141042,-0.18064 0.101398,-0.1894 -0.03965,-0.009 -1.507889,-0.1713 -3.262763,-0.36126 -2.141782,-0.23182 -3.212524,-0.4109 -3.257139,-0.54474 -0.05176,-0.1553 0.767064,-0.19939 3.702797,-0.19939 h 3.769256 l 1.927501,-2.12249 1.927508,-2.12248 0.0031,-2.92037 c 0.0037,-3.40786 0.322496,-3.01406 -2.559766,-3.16268 -2.189084,-0.11289 -8.460111,-0.54069 -9.370947,-0.63927 -0.352409,-0.0382 -0.700097,-0.073 -0.772634,-0.0775 -0.07254,-0.004 -0.108578,-0.11415 -0.08009,-0.24372 0.05994,-0.27272 2.506336,-0.37452 9.462784,-0.39375 2.504605,-0.007 4.124821,-0.0715 4.124821,-0.16435 0,-0.18221 -0.594844,-0.28722 -2.32271,-0.41 -2.432353,-0.17283 -6.373309,-0.56784 -6.510342,-0.65252 -0.509495,-0.3149 0.248596,-0.38642 4.096007,-0.38642 h 4.233434 l 0.09925,-0.92106 c 0.152387,-1.41412 0.389094,-2.30031 0.805261,-3.01476 0.817418,-1.40331 2.505598,-2.02334 4.604569,-1.69111 0.81694,0.1293 1.446989,0.13612 2.122856,0.023 2.206086,-0.36934 4.497989,-0.12558 7.013467,0.74593 l 1.246731,0.43194 0.817986,-0.34561 c 0.449896,-0.19006 0.898042,-0.29801 0.995893,-0.23986 0.09785,0.0581 0.813011,0.56975 1.589259,1.1369 l 1.411352,1.03119 1.632203,-0.11246 c 1.823663,-0.12566 2.353047,-0.34823 2.353047,-0.9893 0,-0.22757 -0.458295,-1.18102 -1.018427,-2.11879 -0.560139,-0.93777 -1.470704,-2.53908 -2.023481,-3.55845 -0.552784,-1.01938 -1.089948,-1.9695 -1.193706,-2.11141 -0.192806,-0.26367 -1.633976,-0.41114 -9.059923,-0.92713 -3.012265,-0.20928 -3.069752,-0.21968 -2.949518,-0.53299 0.07459,-0.19438 0.962029,-0.23455 5.600237,-0.25343 5.192879,-0.0212 6.479949,-0.11871 6.479949,-0.49124 0,-0.22245 -1.519731,-0.47229 -3.896106,-0.64052 -3.236879,-0.22917 -4.871491,-0.58737 -3.976532,-0.87142 0.16586,-0.0527 2.131206,-0.10103 4.367429,-0.10754 4.845411,-0.0141 5.233844,-0.089 6.821099,-1.31539 3.230027,-2.49565 4.909677,-3.37407 6.455532,-3.37611 1.381329,-0.001 2.3806,0.49105 4.212496,2.0777 0.901997,0.78125 1.496724,1.187 1.652321,1.12729 0.133697,-0.0513 1.53394,-0.8146 3.111647,-1.69619 1.577707,-0.8816 2.931053,-1.60291 3.007446,-1.60291 0.199805,0 0.510688,0.74557 0.510688,1.22476 0,0.56547 -0.607405,1.08824 -3.081436,2.65206 -1.156623,0.7311 -2.172307,1.37598 -2.257056,1.43309 -0.08554,0.0577 0.301657,0.82308 0.870181,1.72027 l 1.024282,1.61642 0.935168,0.18555 c 0.514339,0.10206 0.972505,0.28286 1.018143,0.40179 0.04565,0.11894 -0.152611,0.48456 -0.440561,0.81251 -0.599662,0.68299 -1.278727,2.09946 -1.674109,3.49211 -0.981836,3.45825 -4.117047,5.83146 -7.717426,5.84172 -0.98519,0.003 -1.569801,0.19696 -1.712452,0.5687 -0.08936,0.23286 0.482802,1.14564 1.703425,2.71751 0.06841,0.0881 0.330868,0.45418 0.58323,0.81351 0.398495,0.5674 0.630279,0.70999 1.762189,1.08409 2.359511,0.77982 4.979529,1.14234 5.847864,0.80914 0.138353,-0.0531 0.639445,-0.65009 1.113528,-1.32666 0.474084,-0.67657 1.122507,-1.42884 1.440946,-1.67173 1.603783,-1.22326 3.490414,-1.12677 4.899176,0.25055 0.877373,0.85779 1.131274,1.54254 1.131274,3.05091 0,1.29005 -0.02264,1.37292 -0.600704,2.19734 -0.879626,1.25454 -1.698636,1.64807 -3.243792,1.55864 -0.831192,-0.0481 -1.519519,-0.20509 -2.233765,-0.50941 l -1.032382,-0.43988 -2.171369,0.19442 c -1.194257,0.10693 -2.293752,0.25844 -2.44333,0.33669 -0.149566,0.0782 -0.400378,0.35968 -0.55733,0.6254 -0.599977,1.01566 -2.806404,1.04062 -5.169634,0.0585 -2.13505,-0.88731 -1.982717,-0.91019 -2.640774,0.39653 -0.314086,0.6237 -0.571067,1.16589 -0.571067,1.20488 0,0.039 0.702821,0.30372 1.561826,0.5883 4.678621,1.54999 6.641319,3.24818 7.12455,6.16438 0.17319,1.04517 0.09499,2.0611 -0.37412,4.85976 -0.136434,0.81396 -0.12866,1.04933 0.03802,1.15235 0.405422,0.25056 2.315063,0.35094 5.137174,0.27002 1.568395,-0.045 2.851632,-0.0283 2.851632,0.0371 0,0.28133 -6.684663,2.99348 -9.61123,3.89954 -2.309079,0.71489 -6.087458,1.67766 -7.044198,1.79493 -0.716025,0.0878 -0.730743,0.08 -1.205227,-0.63825 z M 35.191319,268.05121 c 4.096775,-1.21459 6.732608,-5.30831 6.098479,-9.47158 -0.286302,-1.87966 -1.080774,-3.37181 -2.579987,-4.84567 -1.810061,-1.77943 -3.530576,-2.563 -5.627809,-2.563 -1.76492,0 -1.921745,0.0887 -2.446992,1.38414 -0.56855,1.40221 -1.311566,2.50593 -1.937474,2.87806 -0.358228,0.21298 -0.917472,0.30973 -2.0621,0.35672 -1.387045,0.057 -1.596676,0.10438 -1.793956,0.40592 -0.723279,1.1055 -0.985062,4.38323 -0.488487,6.11623 0.702186,2.45061 2.693494,4.64783 4.952579,5.46472 2.001557,0.72376 4.04831,0.8192 5.885747,0.27446 z m -8.554982,-2.72487 c -0.08481,-0.0848 1.877613,-2.23209 2.891215,-3.16355 0.52577,-0.48317 0.689116,-0.93596 0.320372,-0.88807 -0.799934,0.10387 -0.921075,0.006 -0.921075,-0.74381 v -0.73185 l 1.290382,0.11256 c 1.268464,0.11066 1.298488,0.10479 1.767884,-0.34491 0.527495,-0.50538 0.883889,-0.43508 1.186695,0.23411 0.18852,0.41662 0.249753,0.43237 2.643085,0.6802 3.507365,0.36319 3.082309,0.54913 -1.558525,0.68184 l -2.439558,0.0697 -1.645213,1.32678 c -0.904871,0.72973 -1.68126,1.36766 -1.725312,1.41763 -0.04407,0.0499 -0.344168,0.28757 -0.666931,0.52803 -0.322761,0.24045 -0.69262,0.54297 -0.82191,0.67226 -0.129296,0.12928 -0.273795,0.19636 -0.321109,0.14904 z m 9.129815,-5.78559 c 0.415745,-1.55803 -0.753436,-2.91638 -2.324852,-2.701 -0.394752,0.0542 -0.816847,0.18064 -0.937995,0.28117 -0.121146,0.10055 -0.257647,0.14544 -0.303327,0.0998 -0.04571,-0.0457 0.176428,-0.23616 0.493584,-0.42328 1.822719,-1.07544 3.993719,0.49839 3.452857,2.50309 -0.101028,0.37442 -0.254361,0.68079 -0.34075,0.68079 -0.09305,0 -0.109153,-0.17954 -0.03954,-0.44052 z m 1.261854,-0.92108 c 0.239005,-1.06122 0.150727,-1.65858 -0.317301,-2.1471 -0.444562,-0.46402 -1.963772,-1.36527 -2.898147,-1.71928 -0.873335,-0.33088 -0.03524,-0.4271 1.067939,-0.12261 1.733399,0.47845 2.382839,1.08499 2.611614,2.4391 0.08214,0.48616 0.02664,0.80508 -0.232207,1.33463 -0.269241,0.5508 -0.317572,0.59567 -0.231898,0.21526 z"
       style="fill:#0000ff;fill-opacity:1;stroke-width:0.1601872" />
    <rect
       style="opacity:1;fill:#800080;fill-opacity:1;stroke:none;stroke-width:1;stroke-linecap:butt;stroke-miterlimit:4;stroke-dasharray:none;stroke-dashoffset:0;stroke-opacity:1"
       id="rect1635"
       width="61.799107"
       height="19.087799"
       x="-64.407425"
       y="248.73894" />
    <path
       style="opacity:1;fill:#d45500;fill-opacity:1;stroke:none;stroke-width:1;stroke-linecap:butt;stroke-miterlimit:4;stroke-dasharray:none;stroke-dashoffset:0;stroke-opacity:1"
       d="m 24.208594,248.73897 c -0.304403,0.24969 -0.562313,0.55027 -0.765844,0.89969 -0.416161,0.71445 -0.65273,1.60068 -0.805119,3.0148 l -0.09922,0.92088 h -4.233333 c -3.847412,0 -4.60537,0.0716 -4.095875,0.38654 0.137033,0.0847 4.077849,0.47984 6.510198,0.65267 1.727869,0.12278 2.322853,0.22758 2.322853,0.40979 0,0.0929 -1.620207,0.15734 -4.124811,0.16433 -6.956449,0.0192 -9.4030484,0.12106 -9.4629871,0.39378 -0.02849,0.12957 0.00756,0.23991 0.080097,0.24391 0.072536,0.005 0.420153,0.0393 0.7725621,0.0775 0.910836,0.0986 7.181922,0.52634 9.371005,0.63923 2.882259,0.14863 2.563534,-0.24526 2.559534,3.1626 l -0.0026,2.92024 -1.927529,2.12286 -1.927532,2.12236 h -3.769278 c -2.935735,0 -3.754895,0.0442 -3.703135,0.19947 0.04462,0.13384 1.115385,0.31285 3.257166,0.54467 1.031968,0.1117 1.317247,0.14536 1.918745,0.21239 h 13.410552 c -0.04875,-0.0169 -0.09754,-0.0325 -0.146243,-0.0501 -2.259081,-0.81689 -4.250481,-3.01417 -4.952672,-5.46478 -0.496567,-1.733 -0.234421,-5.01041 0.48886,-6.11591 0.197281,-0.30154 0.406638,-0.34917 1.79369,-0.40618 1.144619,-0.047 1.704176,-0.14358 2.062406,-0.35656 0.625901,-0.37213 1.3688,-1.47565 1.93735,-2.87786 0.525248,-1.29544 0.681959,-1.38441 2.446878,-1.38441 2.09724,0 3.817503,0.78372 5.627563,2.56315 1.499211,1.47386 2.293905,2.96604 2.580206,4.84569 0.599665,3.93701 -1.725732,7.81031 -5.444631,9.24699 h 21.071065 c -1.138031,-1.0447 -2.836074,-1.89776 -5.28288,-2.70837 -0.859001,-0.28457 -1.562179,-0.54907 -1.562179,-0.58807 0,-0.039 0.256945,-0.5814 0.571024,-1.2051 0.658061,-1.30672 0.506132,-1.28367 2.641184,-0.39636 2.363229,0.98212 4.569211,0.95727 5.169191,-0.0584 0.156951,-0.26572 0.408019,-0.54708 0.557591,-0.62529 0.14958,-0.0783 1.249,-0.22999 2.44326,-0.33693 l 2.171444,-0.1943 1.032496,0.43977 c 0.714248,0.30432 1.402255,0.46143 2.233454,0.50953 1.545151,0.0894 2.3641,-0.30402 3.243731,-1.55856 0.421804,-0.60153 0.547121,-0.81238 0.584459,-1.38131 v -1.387 c -0.0657,-1.12489 -0.356865,-1.73907 -1.11466,-2.47995 -1.408761,-1.37732 -3.295653,-1.47389 -4.899443,-0.25063 -0.31844,0.24289 -0.966658,0.99516 -1.440739,1.67173 -0.474088,0.67657 -0.975277,1.27343 -1.113625,1.32653 -0.868342,0.3332 -3.488185,-0.0294 -5.847707,-0.80925 -1.131909,-0.3741 -1.363676,-0.51677 -1.762165,-1.08417 -0.25237,-0.35933 -0.515027,-0.72529 -0.583428,-0.81339 -1.220628,-1.57187 -1.792655,-2.4848 -1.703255,-2.71766 0.14265,-0.37174 0.72685,-0.56544 1.71204,-0.56844 2.864794,-0.008 5.431128,-1.51564 6.856431,-3.87212 H 46.88111 c 0.210156,0.42777 0.349335,0.76783 0.349335,0.89039 0,0.64107 -0.529685,0.86343 -2.353347,0.98908 l -1.63194,0.11266 -1.411284,-1.03146 c -0.595308,-0.43495 -1.065345,-0.77054 -1.337903,-0.96067 h -1.079003 c -0.05635,0.0213 -0.111347,0.04 -0.168465,0.0641 l -0.818039,0.3452 -1.182873,-0.40928 z m 9.661425,5.70921 c -0.438111,-0.0171 -0.560824,0.0981 -0.01499,0.30489 0.93437,0.35401 2.453444,1.25526 2.898015,1.71928 0.468019,0.48852 0.556292,1.08594 0.317294,2.14716 -0.08568,0.38041 -0.03721,0.33582 0.232026,-0.21498 0.25881,-0.52955 0.314127,-0.84864 0.232027,-1.3348 -0.22877,-1.35411 -0.878327,-1.96068 -2.611726,-2.43913 -0.413679,-0.11418 -0.789782,-0.17218 -1.05265,-0.18242 z m 0.250631,2.00453 c -0.4514,-0.0276 -0.929248,0.0758 -1.384929,0.34469 -0.317148,0.18712 -0.539211,0.37753 -0.493509,0.42323 0.04568,0.0456 0.182189,8.1e-4 0.303339,-0.0997 0.12114,-0.10053 0.543179,-0.22692 0.937927,-0.28112 1.571421,-0.21538 2.740673,1.1431 2.324923,2.70113 -0.06965,0.26098 -0.05321,0.44028 0.03979,0.44028 0.08639,0 0.239519,-0.30616 0.340548,-0.68058 0.405646,-1.50352 -0.713889,-2.76498 -2.06809,-2.84789 z m -1.489315,2.7833 c -0.17512,-0.001 -0.373319,0.10962 -0.604097,0.33072 -0.4694,0.44971 -0.499382,0.45535 -1.767851,0.34469 l -1.290362,-0.11214 v 0.73174 c 0,0.74981 0.121462,0.84749 0.921393,0.74362 0.36875,-0.0479 0.205375,0.40515 -0.320394,0.88832 -1.012794,0.93072 -2.972777,3.07511 -2.891298,3.16311 0.04731,0.0473 0.191611,-0.0195 0.320913,-0.14882 0.129288,-0.12929 0.499411,-0.43187 0.822171,-0.67231 0.32276,-0.24046 0.622525,-0.47824 0.666626,-0.52814 0.04405,-0.05 0.820605,-0.68775 1.725475,-1.41748 l 1.645377,-1.32654 2.439647,-0.0698 c 4.640828,-0.13271 5.065402,-0.31894 1.558044,-0.68213 -2.393342,-0.24783 -2.454215,-0.26344 -2.642733,-0.68006 -0.170331,-0.37642 -0.357759,-0.56326 -0.582911,-0.56482 z"
       id="rect1637"
       inkscape:connector-curvature="0" />
    <path
       style="fill:url(#linearGradient1650);fill-opacity:1;stroke-width:0.1601872"
       d="m 582.2499,253.03143 c -0.36785,-0.55681 -0.65858,-0.79118 -1.24145,-1.00077 -0.41861,-0.15053 -0.7611,-0.32875 -0.7611,-0.39603 0,-0.0673 0.14417,-0.74063 0.32037,-1.49633 0.17621,-0.75571 0.32038,-1.46483 0.32038,-1.57585 0,-0.14666 -0.73365,-0.25441 -2.68314,-0.39406 -9.89124,-0.70855 -10.42545,-0.75322 -10.55477,-0.88253 -0.37512,-0.37513 0.48188,-0.43141 6.56898,-0.43141 5.31308,0 6.50217,-0.0399 6.7582,-0.22717 0.17088,-0.12496 0.27476,-0.26147 0.23085,-0.30337 -0.0439,-0.0419 -1.53681,-0.22206 -3.31755,-0.40035 -1.78074,-0.17829 -3.3137,-0.37113 -3.40659,-0.42854 -0.49307,-0.30473 0.30594,-0.40261 3.28677,-0.40261 h 3.27133 l 0.0984,-0.39197 c 0.23909,-0.95261 -0.81419,-2.63052 -2.13836,-3.40654 -1.01454,-0.59456 -2.20576,-0.60731 -3.32018,-0.0355 -0.44052,0.22603 -1.4497,0.74413 -2.24263,1.15132 -2.78176,1.42853 -5.17244,1.98535 -7.84917,1.82817 -2.84585,-0.16712 -4.95728,-0.96078 -8.11887,-3.05176 l -1.87159,-1.23781 -1.41225,0.47556 c -0.77675,0.26156 -2.70347,1.05886 -4.28162,1.77179 -1.57815,0.71291 -2.88944,1.27612 -2.91396,1.2516 -0.0245,-0.0245 0.45573,-0.67992 1.06725,-1.45641 0.61152,-0.7765 1.11186,-1.4664 1.11186,-1.5331 0,-0.0667 -0.97218,-0.16791 -2.16039,-0.22489 -1.18821,-0.057 -2.66594,-0.1506 -3.28384,-0.20803 -1.10456,-0.10266 -1.12345,-0.1121 -1.12345,-0.56197 v -0.45756 l 2.52295,-0.005 c 2.95715,-0.007 5.61189,-0.21588 5.85757,-0.46154 0.0954,-0.0954 0.14104,-0.18064 0.10139,-0.1894 -0.0396,-0.009 -1.50788,-0.1713 -3.26276,-0.36126 -2.14178,-0.23182 -3.21252,-0.4109 -3.25714,-0.54474 -0.0518,-0.1553 0.76707,-0.19939 3.7028,-0.19939 h 3.76926 l 1.9275,-2.12249 1.9275,-2.12248 0.003,-2.92037 c 0.004,-3.40786 0.3225,-3.01406 -2.55976,-3.16268 -2.18909,-0.11289 -8.46011,-0.54069 -9.37095,-0.63927 -0.35241,-0.0382 -0.7001,-0.073 -0.77263,-0.0775 -0.0725,-0.004 -0.10858,-0.11415 -0.0801,-0.24372 0.0599,-0.27272 2.50633,-0.37452 9.46278,-0.39375 2.50461,-0.007 4.12482,-0.0715 4.12482,-0.16435 0,-0.18221 -0.59484,-0.28722 -2.32271,-0.41 -2.43235,-0.17283 -6.37331,-0.56784 -6.51034,-0.65252 -0.50949,-0.3149 0.2486,-0.38642 4.09601,-0.38642 h 4.23343 l 0.0992,-0.92106 c 0.15239,-1.41412 0.3891,-2.30031 0.80526,-3.01476 0.81742,-1.40331 2.5056,-2.02334 4.60457,-1.69111 0.81694,0.1293 1.44699,0.13612 2.12286,0.023 2.20608,-0.36934 4.49799,-0.12558 7.01346,0.74593 l 1.24674,0.43194 0.81798,-0.34561 c 0.4499,-0.19006 0.89804,-0.29801 0.99589,-0.23986 0.0978,0.0581 0.81302,0.56975 1.58926,1.1369 l 1.41136,1.03119 1.6322,-0.11246 c 1.82366,-0.12566 2.35305,-0.34823 2.35305,-0.9893 0,-0.22757 -0.4583,-1.18102 -1.01843,-2.11879 -0.56014,-0.93777 -1.47071,-2.53908 -2.02348,-3.55845 -0.55279,-1.01938 -1.08995,-1.9695 -1.19371,-2.11141 -0.1928,-0.26367 -1.63397,-0.41114 -9.05992,-0.92713 -3.01227,-0.20928 -3.06975,-0.21968 -2.94952,-0.53299 0.0746,-0.19438 0.96203,-0.23455 5.60024,-0.25343 5.19288,-0.0212 6.47995,-0.11871 6.47995,-0.49124 0,-0.22245 -1.51973,-0.47229 -3.89611,-0.64052 -3.23688,-0.22917 -4.87149,-0.58737 -3.97653,-0.87142 0.16586,-0.0527 2.1312,-0.10103 4.36743,-0.10754 4.84541,-0.0141 5.23384,-0.089 6.8211,-1.31539 3.23002,-2.49565 4.90967,-3.37407 6.45553,-3.37611 1.38133,-0.001 2.3806,0.49105 4.21249,2.0777 0.902,0.78125 1.49673,1.187 1.65233,1.12729 0.13369,-0.0513 1.53394,-0.8146 3.11164,-1.69619 1.57771,-0.8816 2.93106,-1.60291 3.00745,-1.60291 0.1998,0 0.51069,0.74557 0.51069,1.22476 0,0.56547 -0.60741,1.08824 -3.08144,2.65206 -1.15662,0.7311 -2.17231,1.37598 -2.25706,1.43309 -0.0855,0.0577 0.30166,0.82308 0.87019,1.72027 l 1.02428,1.61642 0.93517,0.18555 c 0.51433,0.10206 0.9725,0.28286 1.01814,0.40179 0.0456,0.11894 -0.15261,0.48456 -0.44056,0.81251 -0.59966,0.68299 -1.27873,2.09946 -1.67411,3.49211 -0.98184,3.45825 -4.11705,5.83146 -7.71743,5.84172 -0.98519,0.003 -1.5698,0.19696 -1.71245,0.5687 -0.0894,0.23286 0.4828,1.14564 1.70343,2.71751 0.0684,0.0881 0.33086,0.45418 0.58323,0.81351 0.39849,0.5674 0.63027,0.70999 1.76218,1.08409 2.35952,0.77982 4.97953,1.14234 5.84787,0.80914 0.13835,-0.0531 0.63944,-0.65009 1.11353,-1.32666 0.47408,-0.67657 1.1225,-1.42884 1.44094,-1.67173 1.60379,-1.22326 3.49042,-1.12677 4.89918,0.25055 0.87737,0.85779 1.13127,1.54254 1.13127,3.05091 0,1.29005 -0.0226,1.37292 -0.6007,2.19734 -0.87963,1.25454 -1.69864,1.64807 -3.24379,1.55864 -0.8312,-0.0481 -1.51952,-0.20509 -2.23377,-0.50941 l -1.03238,-0.43988 -2.17137,0.19442 c -1.19426,0.10693 -2.29375,0.25844 -2.44333,0.33669 -0.14957,0.0782 -0.40038,0.35968 -0.55733,0.6254 -0.59998,1.01566 -2.8064,1.04062 -5.16963,0.0585 -2.13505,-0.88731 -1.98272,-0.91019 -2.64078,0.39653 -0.31408,0.6237 -0.57106,1.16589 -0.57106,1.20488 0,0.039 0.70282,0.30372 1.56182,0.5883 4.67862,1.54999 6.64132,3.24818 7.12455,6.16438 0.17319,1.04517 0.095,2.0611 -0.37412,4.85976 -0.13643,0.81396 -0.12866,1.04933 0.038,1.15235 0.40542,0.25056 2.31506,0.35094 5.13718,0.27002 1.56839,-0.045 2.85163,-0.0283 2.85163,0.0371 0,0.28133 -6.68467,2.99348 -9.61123,3.89954 -2.30908,0.71489 -6.08746,1.67766 -7.0442,1.79493 -0.71603,0.0878 -0.73074,0.08 -1.20523,-0.63825 z m -13.35867,-14.60631 c 4.09677,-1.21459 6.73261,-5.30831 6.09848,-9.47158 -0.2863,-1.87966 -1.08078,-3.37181 -2.57999,-4.84567 -1.81006,-1.77943 -3.53057,-2.563 -5.62781,-2.563 -1.76492,0 -1.92174,0.0887 -2.44699,1.38414 -0.56855,1.40221 -1.31157,2.50593 -1.93747,2.87806 -0.35823,0.21298 -0.91748,0.30973 -2.0621,0.35672 -1.38705,0.057 -1.59668,0.10438 -1.79396,0.40592 -0.72328,1.1055 -0.98506,4.38323 -0.48849,6.11623 0.70219,2.45061 2.6935,4.64783 4.95258,5.46472 2.00156,0.72376 4.04831,0.8192 5.88575,0.27446 z m -8.55498,-2.72487 c -0.0848,-0.0848 1.87761,-2.23209 2.89121,-3.16355 0.52577,-0.48317 0.68912,-0.93596 0.32037,-0.88807 -0.79993,0.10387 -0.92107,0.006 -0.92107,-0.74381 v -0.73185 l 1.29038,0.11256 c 1.26847,0.11066 1.29849,0.10479 1.76789,-0.34491 0.52749,-0.50538 0.88388,-0.43508 1.18669,0.23411 0.18852,0.41662 0.24975,0.43237 2.64309,0.6802 3.50736,0.36319 3.0823,0.54913 -1.55853,0.68184 l -2.43956,0.0697 -1.64521,1.32678 c -0.90487,0.72973 -1.68126,1.36766 -1.72531,1.41763 -0.0441,0.0499 -0.34417,0.28757 -0.66693,0.52803 -0.32276,0.24045 -0.69262,0.54297 -0.82191,0.67226 -0.1293,0.12928 -0.2738,0.19636 -0.32111,0.14904 z m 9.12981,-5.78559 c 0.41575,-1.55803 -0.75343,-2.91638 -2.32485,-2.701 -0.39475,0.0542 -0.81685,0.18064 -0.93799,0.28117 -0.12115,0.10055 -0.25765,0.14544 -0.30333,0.0998 -0.0457,-0.0457 0.17643,-0.23616 0.49358,-0.42328 1.82272,-1.07544 3.99372,0.49839 3.45286,2.50309 -0.10103,0.37442 -0.25436,0.68079 -0.34075,0.68079 -0.0931,0 -0.10915,-0.17954 -0.0395,-0.44052 z m 1.26186,-0.92108 c 0.239,-1.06122 0.15072,-1.65858 -0.3173,-2.1471 -0.44457,-0.46402 -1.96378,-1.36527 -2.89815,-1.71928 -0.87334,-0.33088 -0.0352,-0.4271 1.06794,-0.12261 1.7334,0.47845 2.38284,1.08499 2.61161,2.4391 0.0821,0.48616 0.0266,0.80508 -0.23221,1.33463 -0.26924,0.5508 -0.31757,0.59567 -0.23189,0.21526 z"
       id="path1642"
       inkscape:connector-curvature="0" />
    <text
       id="text1658"
       y="244.13409"
       x="612.85303"
       style="font-style:normal;font-weight:normal;font-size:44.22097778px;line-height:1000%;font-family:sans-serif;letter-spacing:38.13616943px;word-spacing:0px;fill:url(#linearGradient1666);fill-opacity:1;stroke:none;stroke-width:1.17922592px;stroke-linecap:butt;stroke-linejoin:miter;stroke-opacity:1"
       xml:space="preserve"><tspan
         style="font-style:normal;font-variant:normal;font-weight:normal;font-stretch:normal;font-family:'Gotham Black';-inkscape-font-specification:'Gotham Black, ';letter-spacing:0px;fill:url(#linearGradient1666);fill-opacity:1;stroke-width:1.17922592px"
         y="244.13409"
         x="612.85303"
         id="tspan1656"
         sodipodi:role="line">EXPRESS</tspan></text>
    <path
       inkscape:connector-curvature="0"
       id="path1680"
       d="m 621.53852,318.24519 c -0.36785,-0.55681 -0.65858,-0.79118 -1.24145,-1.00077 -0.41861,-0.15053 -0.7611,-0.32875 -0.7611,-0.39603 0,-0.0673 0.14417,-0.74063 0.32037,-1.49633 0.17621,-0.75571 0.32038,-1.46483 0.32038,-1.57585 0,-0.14666 -0.73365,-0.25441 -2.68314,-0.39406 -9.89124,-0.70855 -10.42545,-0.75322 -10.55477,-0.88253 -0.37512,-0.37513 0.48188,-0.43141 6.56898,-0.43141 5.31308,0 6.50217,-0.0399 6.7582,-0.22717 0.17088,-0.12496 0.27476,-0.26147 0.23085,-0.30337 -0.0439,-0.0419 -1.53681,-0.22206 -3.31755,-0.40035 -1.78074,-0.17829 -3.3137,-0.37113 -3.40659,-0.42854 -0.49307,-0.30473 0.30594,-0.40261 3.28677,-0.40261 h 3.27133 l 0.0984,-0.39197 c 0.23909,-0.95261 -0.81419,-2.63052 -2.13836,-3.40654 -1.01454,-0.59456 -2.20576,-0.60731 -3.32018,-0.0355 -0.44052,0.22603 -1.4497,0.74413 -2.24263,1.15132 -2.78176,1.42853 -5.17244,1.98535 -7.84917,1.82817 -2.84585,-0.16712 -4.95728,-0.96078 -8.11887,-3.05176 l -1.87159,-1.23781 -1.41225,0.47556 c -0.77675,0.26156 -2.70347,1.05886 -4.28162,1.77179 -1.57815,0.71291 -2.88944,1.27612 -2.91396,1.2516 -0.0245,-0.0245 0.45573,-0.67992 1.06725,-1.45641 0.61152,-0.7765 1.11186,-1.4664 1.11186,-1.5331 0,-0.0667 -0.97218,-0.16791 -2.16039,-0.22489 -1.18821,-0.057 -2.66594,-0.1506 -3.28384,-0.20803 -1.10456,-0.10266 -1.12345,-0.1121 -1.12345,-0.56197 v -0.45756 l 2.52295,-0.005 c 2.95715,-0.007 5.61189,-0.21588 5.85757,-0.46154 0.0954,-0.0954 0.14104,-0.18064 0.10139,-0.1894 -0.0396,-0.009 -1.50788,-0.1713 -3.26276,-0.36126 -2.14178,-0.23182 -3.21252,-0.4109 -3.25714,-0.54474 -0.0518,-0.1553 0.76707,-0.19939 3.7028,-0.19939 h 3.76926 l 1.9275,-2.12249 1.9275,-2.12248 0.003,-2.92037 c 0.004,-3.40786 0.3225,-3.01406 -2.55976,-3.16268 -2.18909,-0.11289 -8.46011,-0.54069 -9.37095,-0.63927 -0.35241,-0.0382 -0.7001,-0.073 -0.77263,-0.0775 -0.0725,-0.004 -0.10858,-0.11415 -0.0801,-0.24372 0.0599,-0.27272 2.50633,-0.37452 9.46278,-0.39375 2.50461,-0.007 4.12482,-0.0715 4.12482,-0.16435 0,-0.18221 -0.59484,-0.28722 -2.32271,-0.41 -2.43235,-0.17283 -6.37331,-0.56784 -6.51034,-0.65252 -0.50949,-0.3149 0.2486,-0.38642 4.09601,-0.38642 h 4.23343 l 0.0992,-0.92106 c 0.15239,-1.41412 0.3891,-2.30031 0.80526,-3.01476 0.81742,-1.40331 2.5056,-2.02334 4.60457,-1.69111 0.81694,0.1293 1.44699,0.13612 2.12286,0.023 2.20608,-0.36934 4.49799,-0.12558 7.01346,0.74593 l 1.24674,0.43194 0.81798,-0.34561 c 0.4499,-0.19006 0.89804,-0.29801 0.99589,-0.23986 0.0978,0.0581 0.81302,0.56975 1.58926,1.1369 l 1.41136,1.03119 1.6322,-0.11246 c 1.82366,-0.12566 2.35305,-0.34823 2.35305,-0.9893 0,-0.22757 -0.4583,-1.18102 -1.01843,-2.11879 -0.56014,-0.93777 -1.47071,-2.53908 -2.02348,-3.55845 -0.55279,-1.01938 -1.08995,-1.9695 -1.19371,-2.11141 -0.1928,-0.26367 -1.63397,-0.41114 -9.05992,-0.92713 -3.01227,-0.20928 -3.06975,-0.21968 -2.94952,-0.53299 0.0746,-0.19438 0.96203,-0.23455 5.60024,-0.25343 5.19288,-0.0212 6.47995,-0.11871 6.47995,-0.49124 0,-0.22245 -1.51973,-0.47229 -3.89611,-0.64052 -3.23688,-0.22917 -4.87149,-0.58737 -3.97653,-0.87142 0.16586,-0.0527 2.1312,-0.10103 4.36743,-0.10754 4.84541,-0.0141 5.23384,-0.089 6.8211,-1.31539 3.23002,-2.49565 4.90967,-3.37407 6.45553,-3.37611 1.38133,-0.001 2.3806,0.49105 4.21249,2.0777 0.902,0.78125 1.49673,1.187 1.65233,1.12729 0.13369,-0.0513 1.53394,-0.8146 3.11164,-1.69619 1.57771,-0.8816 2.93106,-1.60291 3.00745,-1.60291 0.1998,0 0.51069,0.74557 0.51069,1.22476 0,0.56547 -0.60741,1.08824 -3.08144,2.65206 -1.15662,0.7311 -2.17231,1.37598 -2.25706,1.43309 -0.0855,0.0577 0.30166,0.82308 0.87019,1.72027 l 1.02428,1.61642 0.93517,0.18555 c 0.51433,0.10206 0.9725,0.28286 1.01814,0.40179 0.0456,0.11894 -0.15261,0.48456 -0.44056,0.81251 -0.59966,0.68299 -1.27873,2.09946 -1.67411,3.49211 -0.98184,3.45825 -4.11705,5.83146 -7.71743,5.84172 -0.98519,0.003 -1.5698,0.19696 -1.71245,0.5687 -0.0894,0.23286 0.4828,1.14564 1.70343,2.71751 0.0684,0.0881 0.33086,0.45418 0.58323,0.81351 0.39849,0.5674 0.63027,0.70999 1.76218,1.08409 2.35952,0.77982 4.97953,1.14234 5.84787,0.80914 0.13835,-0.0531 0.63944,-0.65009 1.11353,-1.32666 0.47408,-0.67657 1.1225,-1.42884 1.44094,-1.67173 1.60379,-1.22326 3.49042,-1.12677 4.89918,0.25055 0.87737,0.85779 1.13127,1.54254 1.13127,3.05091 0,1.29005 -0.0226,1.37292 -0.6007,2.19734 -0.87963,1.25454 -1.69864,1.64807 -3.24379,1.55864 -0.8312,-0.0481 -1.51952,-0.20509 -2.23377,-0.50941 l -1.03238,-0.43988 -2.17137,0.19442 c -1.19426,0.10693 -2.29375,0.25844 -2.44333,0.33669 -0.14957,0.0782 -0.40038,0.35968 -0.55733,0.6254 -0.59998,1.01566 -2.8064,1.04062 -5.16963,0.0585 -2.13505,-0.88731 -1.98272,-0.91019 -2.64078,0.39653 -0.31408,0.6237 -0.57106,1.16589 -0.57106,1.20488 0,0.039 0.70282,0.30372 1.56182,0.5883 4.67862,1.54999 6.64132,3.24818 7.12455,6.16438 0.17319,1.04517 0.095,2.0611 -0.37412,4.85976 -0.13643,0.81396 -0.12866,1.04933 0.038,1.15235 0.40542,0.25056 2.31506,0.35094 5.13718,0.27002 1.56839,-0.045 2.85163,-0.0283 2.85163,0.0371 0,0.28133 -6.68467,2.99348 -9.61123,3.89954 -2.30908,0.71489 -6.08746,1.67766 -7.0442,1.79493 -0.71603,0.0878 -0.73074,0.08 -1.20523,-0.63825 z m -13.35867,-14.60631 c 4.09677,-1.21459 6.73261,-5.30831 6.09848,-9.47158 -0.2863,-1.87966 -1.08078,-3.37181 -2.57999,-4.84567 -1.81006,-1.77943 -3.53057,-2.563 -5.62781,-2.563 -1.76492,0 -1.92174,0.0887 -2.44699,1.38414 -0.56855,1.40221 -1.31157,2.50593 -1.93747,2.87806 -0.35823,0.21298 -0.91748,0.30973 -2.0621,0.35672 -1.38705,0.057 -1.59668,0.10438 -1.79396,0.40592 -0.72328,1.1055 -0.98506,4.38323 -0.48849,6.11623 0.70219,2.45061 2.6935,4.64783 4.95258,5.46472 2.00156,0.72376 4.04831,0.8192 5.88575,0.27446 z m -8.55498,-2.72487 c -0.0848,-0.0848 1.87761,-2.23209 2.89121,-3.16355 0.52577,-0.48317 0.68912,-0.93596 0.32037,-0.88807 -0.79993,0.10387 -0.92107,0.006 -0.92107,-0.74381 v -0.73185 l 1.29038,0.11256 c 1.26847,0.11066 1.29849,0.10479 1.76789,-0.34491 0.52749,-0.50538 0.88388,-0.43508 1.18669,0.23411 0.18852,0.41662 0.24975,0.43237 2.64309,0.6802 3.50736,0.36319 3.0823,0.54913 -1.55853,0.68184 l -2.43956,0.0697 -1.64521,1.32678 c -0.90487,0.72973 -1.68126,1.36766 -1.72531,1.41763 -0.0441,0.0499 -0.34417,0.28757 -0.66693,0.52803 -0.32276,0.24045 -0.69262,0.54297 -0.82191,0.67226 -0.1293,0.12928 -0.2738,0.19636 -0.32111,0.14904 z m 9.12981,-5.78559 c 0.41575,-1.55803 -0.75343,-2.91638 -2.32485,-2.701 -0.39475,0.0542 -0.81685,0.18064 -0.93799,0.28117 -0.12115,0.10055 -0.25765,0.14544 -0.30333,0.0998 -0.0457,-0.0457 0.17643,-0.23616 0.49358,-0.42328 1.82272,-1.07544 3.99372,0.49839 3.45286,2.50309 -0.10103,0.37442 -0.25436,0.68079 -0.34075,0.68079 -0.0931,0 -0.10915,-0.17954 -0.0395,-0.44052 z m 1.26186,-0.92108 c 0.239,-1.06122 0.15072,-1.65858 -0.3173,-2.1471 -0.44457,-0.46402 -1.96378,-1.36527 -2.89815,-1.71928 -0.87334,-0.33088 -0.0352,-0.4271 1.06794,-0.12261 1.7334,0.47845 2.38284,1.08499 2.61161,2.4391 0.0821,0.48616 0.0266,0.80508 -0.23221,1.33463 -0.26924,0.5508 -0.31757,0.59567 -0.23189,0.21526 z"
       style="fill:#0000ff;fill-opacity:1;stroke-width:0.1601872"
       clip-path="url(#clipPath1698)" />
    <path
       style="fill:url(#linearGradient1712);fill-opacity:1;stroke-width:0.1601872"
       d="m 700.11576,318.24519 c -0.36785,-0.55681 -0.65858,-0.79118 -1.24145,-1.00077 -0.41861,-0.15053 -0.7611,-0.32875 -0.7611,-0.39603 0,-0.0673 0.14417,-0.74063 0.32037,-1.49633 0.17621,-0.75571 0.32038,-1.46483 0.32038,-1.57585 0,-0.14666 -0.73365,-0.25441 -2.68314,-0.39406 -9.89124,-0.70855 -10.42545,-0.75322 -10.55477,-0.88253 -0.37512,-0.37513 0.48188,-0.43141 6.56898,-0.43141 5.31308,0 6.50217,-0.0399 6.7582,-0.22717 0.17088,-0.12496 0.27476,-0.26147 0.23085,-0.30337 -0.0439,-0.0419 -1.53681,-0.22206 -3.31755,-0.40035 -1.78074,-0.17829 -3.3137,-0.37113 -3.40659,-0.42854 -0.49307,-0.30473 0.30594,-0.40261 3.28677,-0.40261 h 3.27133 l 0.0984,-0.39197 c 0.23909,-0.95261 -0.81419,-2.63052 -2.13836,-3.40654 -1.01454,-0.59456 -2.20576,-0.60731 -3.32018,-0.0355 -0.44052,0.22603 -1.4497,0.74413 -2.24263,1.15132 -2.78176,1.42853 -5.17244,1.98535 -7.84917,1.82817 -2.84585,-0.16712 -4.95728,-0.96078 -8.11887,-3.05176 l -1.87159,-1.23781 -1.41225,0.47556 c -0.77675,0.26156 -2.70347,1.05886 -4.28162,1.77179 -1.57815,0.71291 -2.88944,1.27612 -2.91396,1.2516 -0.0245,-0.0245 0.45573,-0.67992 1.06725,-1.45641 0.61152,-0.7765 1.11186,-1.4664 1.11186,-1.5331 0,-0.0667 -0.97218,-0.16791 -2.16039,-0.22489 -1.18821,-0.057 -2.66594,-0.1506 -3.28384,-0.20803 -1.10456,-0.10266 -1.12345,-0.1121 -1.12345,-0.56197 v -0.45756 l 2.52295,-0.005 c 2.95715,-0.007 5.61189,-0.21588 5.85757,-0.46154 0.0954,-0.0954 0.14104,-0.18064 0.10139,-0.1894 -0.0396,-0.009 -1.50788,-0.1713 -3.26276,-0.36126 -2.14178,-0.23182 -3.21252,-0.4109 -3.25714,-0.54474 -0.0518,-0.1553 0.76707,-0.19939 3.7028,-0.19939 h 3.76926 l 1.9275,-2.12249 1.9275,-2.12248 0.003,-2.92037 c 0.004,-3.40786 0.3225,-3.01406 -2.55976,-3.16268 -2.18909,-0.11289 -8.46011,-0.54069 -9.37095,-0.63927 -0.35241,-0.0382 -0.7001,-0.073 -0.77263,-0.0775 -0.0725,-0.004 -0.10858,-0.11415 -0.0801,-0.24372 0.0599,-0.27272 2.50633,-0.37452 9.46278,-0.39375 2.50461,-0.007 4.12482,-0.0715 4.12482,-0.16435 0,-0.18221 -0.59484,-0.28722 -2.32271,-0.41 -2.43235,-0.17283 -6.37331,-0.56784 -6.51034,-0.65252 -0.50949,-0.3149 0.2486,-0.38642 4.09601,-0.38642 h 4.23343 l 0.0992,-0.92106 c 0.15239,-1.41412 0.3891,-2.30031 0.80526,-3.01476 0.81742,-1.40331 2.5056,-2.02334 4.60457,-1.69111 0.81694,0.1293 1.44699,0.13612 2.12286,0.023 2.20608,-0.36934 4.49799,-0.12558 7.01346,0.74593 l 1.24674,0.43194 0.81798,-0.34561 c 0.4499,-0.19006 0.89804,-0.29801 0.99589,-0.23986 0.0978,0.0581 0.81302,0.56975 1.58926,1.1369 l 1.41136,1.03119 1.6322,-0.11246 c 1.82366,-0.12566 2.35305,-0.34823 2.35305,-0.9893 0,-0.22757 -0.4583,-1.18102 -1.01843,-2.11879 -0.56014,-0.93777 -1.47071,-2.53908 -2.02348,-3.55845 -0.55279,-1.01938 -1.08995,-1.9695 -1.19371,-2.11141 -0.1928,-0.26367 -1.63397,-0.41114 -9.05992,-0.92713 -3.01227,-0.20928 -3.06975,-0.21968 -2.94952,-0.53299 0.0746,-0.19438 0.96203,-0.23455 5.60024,-0.25343 5.19288,-0.0212 6.47995,-0.11871 6.47995,-0.49124 0,-0.22245 -1.51973,-0.47229 -3.89611,-0.64052 -3.23688,-0.22917 -4.87149,-0.58737 -3.97653,-0.87142 0.16586,-0.0527 2.1312,-0.10103 4.36743,-0.10754 4.84541,-0.0141 5.23384,-0.089 6.8211,-1.31539 3.23002,-2.49565 4.90967,-3.37407 6.45553,-3.37611 1.38133,-0.001 2.3806,0.49105 4.21249,2.0777 0.902,0.78125 1.49673,1.187 1.65233,1.12729 0.13369,-0.0513 1.53394,-0.8146 3.11164,-1.69619 1.57771,-0.8816 2.93106,-1.60291 3.00745,-1.60291 0.1998,0 0.51069,0.74557 0.51069,1.22476 0,0.56547 -0.60741,1.08824 -3.08144,2.65206 -1.15662,0.7311 -2.17231,1.37598 -2.25706,1.43309 -0.0855,0.0577 0.30166,0.82308 0.87019,1.72027 l 1.02428,1.61642 0.93517,0.18555 c 0.51433,0.10206 0.9725,0.28286 1.01814,0.40179 0.0456,0.11894 -0.15261,0.48456 -0.44056,0.81251 -0.59966,0.68299 -1.27873,2.09946 -1.67411,3.49211 -0.98184,3.45825 -4.11705,5.83146 -7.71743,5.84172 -0.98519,0.003 -1.5698,0.19696 -1.71245,0.5687 -0.0894,0.23286 0.4828,1.14564 1.70343,2.71751 0.0684,0.0881 0.33086,0.45418 0.58323,0.81351 0.39849,0.5674 0.63027,0.70999 1.76218,1.08409 2.35952,0.77982 4.97953,1.14234 5.84787,0.80914 0.13835,-0.0531 0.63944,-0.65009 1.11353,-1.32666 0.47408,-0.67657 1.1225,-1.42884 1.44094,-1.67173 1.60379,-1.22326 3.49042,-1.12677 4.89918,0.25055 0.87737,0.85779 1.13127,1.54254 1.13127,3.05091 0,1.29005 -0.0226,1.37292 -0.6007,2.19734 -0.87963,1.25454 -1.69864,1.64807 -3.24379,1.55864 -0.8312,-0.0481 -1.51952,-0.20509 -2.23377,-0.50941 l -1.03238,-0.43988 -2.17137,0.19442 c -1.19426,0.10693 -2.29375,0.25844 -2.44333,0.33669 -0.14957,0.0782 -0.40038,0.35968 -0.55733,0.6254 -0.59998,1.01566 -2.8064,1.04062 -5.16963,0.0585 -2.13505,-0.88731 -1.98272,-0.91019 -2.64078,0.39653 -0.31408,0.6237 -0.57106,1.16589 -0.57106,1.20488 0,0.039 0.70282,0.30372 1.56182,0.5883 4.67862,1.54999 6.64132,3.24818 7.12455,6.16438 0.17319,1.04517 0.095,2.0611 -0.37412,4.85976 -0.13643,0.81396 -0.12866,1.04933 0.038,1.15235 0.40542,0.25056 2.31506,0.35094 5.13718,0.27002 1.56839,-0.045 2.85163,-0.0283 2.85163,0.0371 0,0.28133 -6.68467,2.99348 -9.61123,3.89954 -2.30908,0.71489 -6.08746,1.67766 -7.0442,1.79493 -0.71603,0.0878 -0.73074,0.08 -1.20523,-0.63825 z m -13.35867,-14.60631 c 4.09677,-1.21459 6.73261,-5.30831 6.09848,-9.47158 -0.2863,-1.87966 -1.08078,-3.37181 -2.57999,-4.84567 -1.81006,-1.77943 -3.53057,-2.563 -5.62781,-2.563 -1.76492,0 -1.92174,0.0887 -2.44699,1.38414 -0.56855,1.40221 -1.31157,2.50593 -1.93747,2.87806 -0.35823,0.21298 -0.91748,0.30973 -2.0621,0.35672 -1.38705,0.057 -1.59668,0.10438 -1.79396,0.40592 -0.72328,1.1055 -0.98506,4.38323 -0.48849,6.11623 0.70219,2.45061 2.6935,4.64783 4.95258,5.46472 2.00156,0.72376 4.04831,0.8192 5.88575,0.27446 z m -8.55498,-2.72487 c -0.0848,-0.0848 1.87761,-2.23209 2.89121,-3.16355 0.52577,-0.48317 0.68912,-0.93596 0.32037,-0.88807 -0.79993,0.10387 -0.92107,0.006 -0.92107,-0.74381 v -0.73185 l 1.29038,0.11256 c 1.26847,0.11066 1.29849,0.10479 1.76789,-0.34491 0.52749,-0.50538 0.88388,-0.43508 1.18669,0.23411 0.18852,0.41662 0.24975,0.43237 2.64309,0.6802 3.50736,0.36319 3.0823,0.54913 -1.55853,0.68184 l -2.43956,0.0697 -1.64521,1.32678 c -0.90487,0.72973 -1.68126,1.36766 -1.72531,1.41763 -0.0441,0.0499 -0.34417,0.28757 -0.66693,0.52803 -0.32276,0.24045 -0.69262,0.54297 -0.82191,0.67226 -0.1293,0.12928 -0.2738,0.19636 -0.32111,0.14904 z m 9.12981,-5.78559 c 0.41575,-1.55803 -0.75343,-2.91638 -2.32485,-2.701 -0.39475,0.0542 -0.81685,0.18064 -0.93799,0.28117 -0.12115,0.10055 -0.25765,0.14544 -0.30333,0.0998 -0.0457,-0.0457 0.17643,-0.23616 0.49358,-0.42328 1.82272,-1.07544 3.99372,0.49839 3.45286,2.50309 -0.10103,0.37442 -0.25436,0.68079 -0.34075,0.68079 -0.0931,0 -0.10915,-0.17954 -0.0395,-0.44052 z m 1.26186,-0.92108 c 0.239,-1.06122 0.15072,-1.65858 -0.3173,-2.1471 -0.44457,-0.46402 -1.96378,-1.36527 -2.89815,-1.71928 -0.87334,-0.33088 -0.0352,-0.4271 1.06794,-0.12261 1.7334,0.47845 2.38284,1.08499 2.61161,2.4391 0.0821,0.48616 0.0266,0.80508 -0.23221,1.33463 -0.26924,0.5508 -0.31757,0.59567 -0.23189,0.21526 z"
       id="path1686"
       inkscape:connector-curvature="0"
       clip-path="url(#clipPath1702)"
       transform="translate(-78.57724,0.92113)" />
    <text
       xml:space="preserve"
       style="font-style:normal;font-weight:normal;font-size:44.22097778px;line-height:1000%;font-family:sans-serif;letter-spacing:38.13616943px;word-spacing:0px;fill:url(#linearGradient1726);fill-opacity:1;stroke:none;stroke-width:1.17922592px;stroke-linecap:butt;stroke-linejoin:miter;stroke-opacity:1"
       x="652.94348"
       y="306.67517"
       id="text1724"><tspan
         sodipodi:role="line"
         id="tspan1722"
         x="652.94348"
         y="306.67517"
         style="font-style:normal;font-variant:normal;font-weight:normal;font-stretch:normal;font-family:'Gotham Black';-inkscape-font-specification:'Gotham Black, ';letter-spacing:0px;fill:url(#linearGradient1726);fill-opacity:1;stroke-width:1.17922592px">EXPRESS</tspan></text>
    <text
       xml:space="preserve"
       style="font-style:normal;font-weight:normal;font-size:13.24640274px;line-height:1000%;font-family:sans-serif;letter-spacing:11.42369843px;word-spacing:0px;fill:#000000;fill-opacity:1;stroke:none;stroke-width:0.35323742px;stroke-linecap:butt;stroke-linejoin:miter;stroke-opacity:1"
       x="159.10547"
       y="44.330448"
       id="text881"><tspan
         sodipodi:role="line"
         id="tspan879"
         x="159.10547"
         y="44.330448"
         style="font-style:normal;font-variant:normal;font-weight:normal;font-stretch:normal;font-size:10.68162727px;font-family:'Gotham Medium';-inkscape-font-specification:'Gotham Medium, ';letter-spacing:12.61099625px;fill:#000000;stroke-width:0.35323742px">MESSENGERS LTD</tspan></text>
    <path
       style="fill:url(#radialGradient854);fill-opacity:1;stroke-width:0.083998"
       d="m 467.33626,2.0616858 c -0.3235,-0.2111867 -0.2808,-0.6016329 0.14619,-1.33679709 l 13.46282,-8.59133991 c 0.86077,-0.08658 1.28357,0.05166 1.36744,0.447084 0.0601,0.283663 -0.14675,0.37176 -0.83458,0.355341 l -13.41788,8.4549106 c -0.35238,0.7322273 -0.4671,0.8385061 -0.72396,0.670808 z m -0.7076,-1.08189119 c -0.0365,-0.017959 -0.5148,-0.35246 -1.06312,-0.7433295 -0.54834,-0.3908722 -1.20224,-0.8476262 -1.45312,-1.015006 -0.25088,-0.167379 -0.48798,-0.37511401 -0.52691,-0.46163101 -0.0993,-0.220721 0.27179,-0.4986953 0.64379,-0.4822493 0.69615,0.03081 1.62198,-0.372893 1.88397,-0.821414 0.21149,-0.3621 0.29966,-1.158386 0.21611,-1.951759 -0.10303,-0.978291 -0.0634,-1.18154 0.27163,-1.393894 0.22799,-0.144497 0.34224,-0.151294 0.72601,-0.04321 0.86522,0.243678 1.2625,0.305888 1.62806,0.254923 0.75243,-0.104884 1.05388,-0.516293 1.03544,-1.413161 -0.0127,-0.603296 -0.24784,-1.974523 -0.37347,-2.175173 -0.0434,-0.06917 -0.10671,-0.340525 -0.14076,-0.602852 -0.0542,-0.4168548 -0.0331,-0.5038738 0.16704,-0.6904538 0.37561,-0.35015 0.66238,-0.274491 1.45684,0.384364 1.59178,1.3201068 2.53393,1.7219238 3.13248,1.3359528 0.32134,-0.207303 0.59728,-0.711618 0.70597,-1.2905618 0.21209,-1.129726 0.23625,-1.19396 0.5159,-1.371201 0.32251,-0.204409 0.45378,-0.172213 1.24435,0.305251 0.80965,0.488982 1.32819,0.688904 1.81151,0.698425 0.55858,0.01101 1.11591,-0.390198 1.56644,-1.127643 0.36894,-0.603888 0.62088,-0.802661 0.81293,-0.64137 0.0821,0.0689 0.20337,0.541307 0.32395,1.261547 0.10603,0.633251 0.24406,1.4321068 0.30677,1.7752408 0.0627,0.343138 0.10871,0.663181 0.10233,0.711206 -0.0155,0.114383 -0.67028,0.192482 -0.73663,0.0878 -0.0281,-0.04437 -0.14286,-0.568353 -0.25496,-1.164365 l -0.20382,-1.0836668 -0.22419,0.212222 c -0.44767,0.42376 -0.91741,0.6621678 -1.43769,0.7296758 -0.70938,0.09205 -1.26267,-0.05417 -2.09493,-0.5535708 -0.39565,-0.237405 -0.74407,-0.415988 -0.77428,-0.396845 -0.0302,0.01914 -0.11657,0.32346 -0.19195,0.676242 -0.35282,1.6515328 -1.17382,2.3113098 -2.50486,2.0129688 -0.593,-0.132908 -1.67251,-0.736069 -2.38857,-1.334596 -0.19685,-0.164524 -0.3607,-0.284424 -0.36415,-0.266445 -0.003,0.01801 0.0653,0.390322 0.15265,0.827434 0.34827,1.741917 0.23583,2.689019 -0.40164,3.383172 -0.45086,0.490927 -1.09043,0.600951 -2.26641,0.389863 -0.43393,-0.07789 -0.80329,-0.112134 -0.8208,-0.07611 -0.0175,0.03605 0.002,0.387404 0.0442,0.780831 0.16343,1.537549 -0.31836,2.564442 -1.42609,3.0396263 -0.26794,0.114903 -0.48812,0.219668 -0.4893,0.232741 -0.002,0.01311 0.35985,0.28659901 0.80229,0.60782981 1.12641,0.8178327 1.05947,0.7377162 0.89497,1.0711063 -0.15725,0.3186728 -0.2078,0.37152759 -0.30799,0.3220803 z m 0.75009,-1.1712887 c -0.0362,-0.01819 -0.28101,-0.182945 -0.54381,-0.366189 -0.52218,-0.3640798 -0.54516,-0.45598781 -0.17371,-0.69437581 0.64811,-0.4158673 1.15386,-1.6764583 1.05643,-2.6329613 -0.0302,-0.296582 -0.0563,-0.55343 -0.0581,-0.570766 -10e-4,-0.01731 0.24012,-0.0061 0.53736,0.02487 0.64506,0.06732 1.39037,-0.01556 1.8195,-0.202319 0.3892,-0.169392 0.88756,-0.702522 1.10013,-1.176913 0.19716,-0.439929 0.27276,-1.295976 0.17666,-2.000336 l -0.073,-0.535269 0.57768,0.343866 c 0.66592,0.396382 1.50972,0.676412 1.92757,0.63969 0.54466,-0.04786 1.11663,-0.25293 1.39113,-0.498749 0.33151,-0.296872 0.79984,-1.07306 0.98501,-1.632512 l 0.14208,-0.429269 0.50508,0.28665 c 0.94111,0.5341 1.88025,0.602067 2.80338,0.202903 0.21741,-0.09401 0.41879,-0.165649 0.44751,-0.159215 0.0287,0.0065 0.20553,0.591746 0.23285,0.926726 l 0.0442,0.541833 -12.71447,8.05847311 z M 462.4002,-1.4233079 c -0.83481,0.01444 -1.41254,-0.7322533 -1.15461,-1.4923323 0.16876,-0.497343 0.94016,-0.695086 1.45195,-0.372205 0.91745,0.578822 0.71522,1.8470263 -0.29734,1.8645373 z m 17.94116,-11.4626051 c -0.26173,-0.0434 -0.4041,-0.129573 -0.58426,-0.353691 -0.46841,-0.582617 -0.38166,-1.341848 0.19517,-1.708281 0.20736,-0.131725 0.33362,-0.14219 0.63769,-0.05301 1.20017,0.352092 0.96922,2.316901 -0.24861,2.114984 z m -14.86584,7.0696248 c -0.76054,0.118373 -1.4824,-0.677291 -1.2907,-1.422698 0.0837,-0.32558 0.54083,-0.709045 0.87672,-0.735481 0.61678,-0.04853 1.28061,0.581711 1.26944,1.205223 -0.01,0.539059 -0.30419,0.867154 -0.85546,0.952956 z m 9.6452,-6.1945138 c -0.3903,-0.05375 -0.60555,-0.195334 -0.82613,-0.543366 -0.47456,-0.748742 -0.11048,-1.624927 0.70494,-1.696584 0.38421,-0.03376 0.69359,0.137381 0.93398,0.516678 0.26631,0.42017 0.27945,0.913091 0.0337,1.264618 -0.25743,0.368245 -0.50984,0.50502 -0.84648,0.458655 z m -6.284,1.010934 c -0.75482,-0.0035 -1.21372,-0.626782 -1.05333,-1.430644 0.16824,-0.843125 1.28783,-1.066634 1.92184,-0.38366 0.62145,0.669461 0.0714,1.818672 -0.86851,1.814304 z"
       id="path1217"
       inkscape:connector-curvature="0"
       sodipodi:nodetypes="ccccccccccccscsccscsccccssscccccscccscscsccccccccccsccccccccccccccccccssccccsscccccccsscccscsscssss" />
    <text
       xml:space="preserve"
       style="font-style:normal;font-weight:normal;font-size:56.40053558px;line-height:1000%;font-family:sans-serif;letter-spacing:48.63982391px;word-spacing:0px;fill:url(#linearGradient1819);fill-opacity:1;stroke:none;stroke-width:1.50401425px;stroke-linecap:butt;stroke-linejoin:miter;stroke-opacity:1"
       x="156.5694"
       y="28.677996"
       id="text1253"><tspan
         sodipodi:role="line"
         id="tspan1251"
         x="156.5694"
         y="28.677996"
         style="font-style:normal;font-variant:normal;font-weight:normal;font-stretch:normal;font-family:'Gotham Black';-inkscape-font-specification:'Gotham Black, ';letter-spacing:0px;fill:url(#linearGradient1819);fill-opacity:1;stroke-width:1.50401425px">E<tspan
   style="fill:url(#linearGradient1819);fill-opacity:1"
   id="tspan1285">X</tspan>PRESS</tspan></text>
    <path
       style="fill:url(#linearGradient1309);fill-opacity:1;fill-rule:evenodd;stroke:none;stroke-width:0.36781073px;stroke-linecap:butt;stroke-linejoin:miter;stroke-opacity:1"
       d="m 195.40811,-10.79845 12.55321,-0.0391 13.42295,19.34645 -13.43186,20.10869 -13.11765,0.10023 13.53101,-20.11955 z"
       id="path910"
       inkscape:connector-curvature="0"
       sodipodi:nodetypes="ccccccc" />
    <path
       style="fill:url(#linearGradient846);fill-opacity:1;fill-rule:evenodd;stroke:none;stroke-width:0.26458332px;stroke-linecap:butt;stroke-linejoin:miter;stroke-opacity:1"
       d="m 222.03821,-10.80677 12.30195,0.006 -19.08477,28.43964 7.07812,11.04116 h 12.60314 l -19.61444,-28.8982 z"
       id="path838"
       inkscape:connector-curvature="0" />
    <path
       sodipodi:nodetypes="ccccccc"
       inkscape:connector-curvature="0"
       id="path868"
       d="m 204.24643,-11.96935 4.33121,-0.04153 14.27129,20.550632 -14.27859,21.360317 -4.79403,0.106469 14.23431,-21.3718532 z"
       style="fill:#ff6600;fill-opacity:1;fill-rule:evenodd;stroke:none;stroke-width:0.34326896px;stroke-linecap:butt;stroke-linejoin:miter;stroke-opacity:1" />
    <path
       style="fill:#ff6600;fill-opacity:1;stroke-width:0.18663354"
       d="m 476.72766,52.055132 c -0.42859,-0.648737 -0.76731,-0.921801 -1.44641,-1.165993 -0.48771,-0.175382 -0.88676,-0.383026 -0.88676,-0.461413 0,-0.07841 0.16797,-0.862918 0.37326,-1.743369 0.2053,-0.880475 0.37328,-1.70668 0.37328,-1.836018 0,-0.170884 -0.85478,-0.296412 -3.12612,-0.459118 -11.52425,-0.825529 -12.14666,-0.877574 -12.29733,-1.028232 -0.43705,-0.437063 0.56144,-0.502635 7.6535,-0.502635 6.19025,0 7.57567,-0.04649 7.87395,-0.264675 0.1991,-0.14559 0.32013,-0.304637 0.26897,-0.353455 -0.0512,-0.04882 -1.79053,-0.258721 -3.86527,-0.466458 -2.07473,-0.207725 -3.86078,-0.432402 -3.969,-0.49929 -0.57448,-0.35504 0.35644,-0.46908 3.8294,-0.46908 h 3.81141 l 0.11465,-0.456683 c 0.27856,-1.109871 -0.9486,-3.064809 -2.49138,-3.968948 -1.18205,-0.692719 -2.56994,-0.707563 -3.86835,-0.04136 -0.51324,0.263347 -1.68904,0.866972 -2.61288,1.341388 -3.24101,1.664375 -6.02639,2.313124 -9.14503,2.129994 -3.3157,-0.194711 -5.77572,-1.11939 -9.45928,-3.555583 l -2.18058,-1.442168 -1.64541,0.554073 c -0.90498,0.304743 -3.14981,1.233674 -4.9885,2.064306 -1.8387,0.830609 -3.36647,1.486803 -3.39505,1.458235 -0.0286,-0.02855 0.53098,-0.792172 1.24346,-1.696858 0.71248,-0.904697 1.29542,-1.708497 1.29542,-1.786209 0,-0.07771 -1.13268,-0.195632 -2.51706,-0.262019 -1.38438,-0.06641 -3.10608,-0.175464 -3.82599,-0.242375 -1.28693,-0.119609 -1.30893,-0.130607 -1.30893,-0.654749 v -0.533102 l 2.93948,-0.0058 c 3.44537,-0.0082 6.5384,-0.251521 6.82463,-0.537739 0.11116,-0.11115 0.16433,-0.210463 0.11814,-0.220669 -0.0462,-0.01049 -1.75684,-0.199581 -3.80143,-0.420903 -2.49539,-0.270093 -3.74291,-0.478738 -3.79489,-0.634675 -0.0603,-0.180939 0.89371,-0.232308 4.31412,-0.232308 h 4.39155 l 2.24572,-2.472906 2.24573,-2.472894 0.004,-3.402513 c 0.004,-3.970486 0.37574,-3.511671 -2.98237,-3.684827 -2.55049,-0.131528 -9.85685,-0.629956 -10.91806,-0.744812 -0.41059,-0.04451 -0.81568,-0.08505 -0.90019,-0.0903 -0.0845,-0.0047 -0.12651,-0.132995 -0.0933,-0.283957 0.0698,-0.317745 2.92012,-0.436351 11.02505,-0.458756 2.91811,-0.0082 4.80582,-0.0833 4.80582,-0.191484 0,-0.212292 -0.69305,-0.334639 -2.70618,-0.47769 -2.83392,-0.201384 -7.42551,-0.661609 -7.58517,-0.76027 -0.59361,-0.366888 0.28964,-0.450216 4.77224,-0.450216 h 4.93236 l 0.11564,-1.073124 c 0.17755,-1.647586 0.45333,-2.680083 0.93821,-3.512487 0.95237,-1.634991 2.91926,-2.357386 5.36476,-1.970306 0.95182,0.150647 1.68588,0.158593 2.47334,0.0268 2.5703,-0.430317 5.24059,-0.146313 8.17137,0.86908 l 1.45256,0.503252 0.95303,-0.402669 c 0.52417,-0.221438 1.0463,-0.34721 1.16032,-0.27946 0.11394,0.06769 0.94723,0.663814 1.85163,1.324598 l 1.64437,1.201436 1.90167,-0.131026 c 2.12474,-0.146407 2.74153,-0.405722 2.74153,-1.15263 0,-0.265141 -0.53397,-1.376003 -1.18657,-2.468595 -0.65262,-1.092593 -1.71351,-2.9582736 -2.35755,-4.1459381 -0.64405,-1.187676 -1.2699,-2.2946575 -1.39079,-2.4599964 -0.22463,-0.307201 -1.90373,-0.4790178 -10.55568,-1.0801959 -3.50958,-0.2438314 -3.57655,-0.2559484 -3.43647,-0.6209848 0.0869,-0.2264715 1.12085,-0.2732734 6.52482,-0.2952704 6.0502,-0.0247 7.54976,-0.1383086 7.54976,-0.572342 0,-0.2591758 -1.77063,-0.5502635 -4.53934,-0.7462677 -3.77128,-0.26700509 -5.67576,-0.68434269 -4.63304,-1.01528859 0.19324,-0.0614 2.48306,-0.117709 5.08848,-0.125294 5.64537,-0.01643 6.09792,-0.103694 7.94723,-1.53255601 3.76329,-2.9076733 5.72024,-3.9311173 7.52132,-3.9334943 1.60938,-0.0012 2.77363,0.572121 4.90797,2.420721 1.0509,0.9102313 1.74382,1.3829693 1.92511,1.3134013 0.15576,-0.05977 1.78719,-0.9490873 3.62536,-1.9762243 1.83819,-1.027149 3.41497,-1.867545 3.50397,-1.867545 0.2328,0 0.59501,0.868661 0.59501,1.426963 0,0.658827 -0.7077,1.267905 -3.59018,3.0899063 -1.34757,0.85180201 -2.53095,1.60314921 -2.62968,1.66968791 -0.0996,0.067226 0.35145,0.95896759 1.01384,2.00428049 l 1.19339,1.8832853 1.08956,0.2161837 c 0.59926,0.1189098 1.13306,0.3295592 1.18623,0.4681241 0.0531,0.1385766 -0.1778,0.5645592 -0.51329,0.9466526 -0.69866,0.7957493 -1.48985,2.4460736 -1.9505,4.0686448 -1.14394,4.029195 -4.79676,6.794214 -8.99155,6.806168 -1.14784,0.0035 -1.82897,0.229478 -1.99517,0.662591 -0.10416,0.271304 0.56251,1.334781 1.98466,3.166161 0.0797,0.102645 0.38548,0.529164 0.67952,0.947818 0.46428,0.661076 0.73433,0.827207 2.05312,1.263069 2.74906,0.908566 5.80162,1.330937 6.81332,0.942727 0.16119,-0.06187 0.74501,-0.757418 1.29737,-1.545687 0.55235,-0.78827 1.30782,-1.664737 1.67883,-1.947727 1.86857,-1.425216 4.06668,-1.312796 5.70802,0.291915 1.02223,0.999408 1.31805,1.797208 1.31805,3.554604 0,1.503033 -0.0263,1.599585 -0.69988,2.560114 -1.02485,1.46166 -1.97907,1.92016 -3.77933,1.815966 -0.96842,-0.05604 -1.77039,-0.23895 -2.60256,-0.593512 l -1.20282,-0.512503 -2.52986,0.226518 c -1.39143,0.124584 -2.67244,0.301108 -2.84671,0.392277 -0.17425,0.09111 -0.46648,0.419061 -0.64935,0.728651 -0.69903,1.183342 -3.26972,1.212423 -6.02311,0.06816 -2.48754,-1.033802 -2.31006,-1.060459 -3.07677,0.461996 -0.36593,0.726671 -0.66534,1.358374 -0.66534,1.403801 0,0.04544 0.81886,0.353863 1.81967,0.685427 5.45105,1.805888 7.73778,3.784443 8.30079,7.182097 0.20179,1.217724 0.11069,2.401381 -0.43588,5.66209 -0.15896,0.948342 -0.1499,1.22257 0.0443,1.342599 0.47235,0.291926 2.69728,0.408879 5.98531,0.314599 1.82733,-0.05243 3.32242,-0.03297 3.32242,0.04322 0,0.327777 -7.78827,3.487693 -11.19801,4.543341 -2.6903,0.832915 -7.09247,1.954635 -8.20717,2.091266 -0.83423,0.102296 -0.85138,0.09321 -1.40421,-0.743623 z M 461.16352,35.037371 c 4.77314,-1.415114 7.84414,-6.184693 7.10531,-11.035304 -0.33356,-2.189986 -1.2592,-3.928484 -3.00593,-5.645674 -2.1089,-2.073207 -4.11346,-2.986142 -6.55695,-2.986142 -2.0563,0 -2.23901,0.103344 -2.85098,1.612657 -0.66241,1.63371 -1.52809,2.91965 -2.25734,3.353217 -0.41737,0.248143 -1.06895,0.360866 -2.40255,0.415614 -1.61604,0.06641 -1.86028,0.121612 -2.09013,0.472936 -0.84269,1.288014 -1.14769,5.106886 -0.56913,7.125998 0.81811,2.855197 3.13818,5.41517 5.77022,6.366926 2.33202,0.84325 4.71668,0.954447 6.85748,0.319772 z m -9.96739,-3.174736 c -0.0988,-0.0988 2.1876,-2.6006 3.36854,-3.685841 0.61258,-0.56294 0.80289,-1.090484 0.37328,-1.034687 -0.93201,0.121018 -1.07315,0.007 -1.07315,-0.866611 V 25.42282 l 1.50342,0.131143 c 1.47789,0.12893 1.51287,0.122091 2.05976,-0.401853 0.61458,-0.588816 1.02982,-0.50691 1.38261,0.272761 0.21965,0.485402 0.29098,0.503753 3.07946,0.792498 4.08641,0.423152 3.59118,0.63979 -1.81584,0.79441 l -2.84232,0.08121 -1.91684,1.545827 c -1.05426,0.850206 -1.95883,1.593456 -2.01015,1.651676 -0.0513,0.05814 -0.40099,0.335046 -0.77704,0.615206 -0.37605,0.280147 -0.80697,0.632612 -0.9576,0.783247 -0.15065,0.150624 -0.319,0.228779 -0.37413,0.173646 z m 10.63712,-6.740771 c 0.48439,-1.815255 -0.87782,-3.397864 -2.70868,-3.146926 -0.45992,0.06315 -0.95171,0.210463 -1.09285,0.327591 -0.14115,0.11715 -0.30018,0.169451 -0.3534,0.116276 -0.0533,-0.05325 0.20555,-0.275149 0.57506,-0.493162 2.12365,-1.252991 4.65307,0.580673 4.02292,2.916342 -0.11771,0.436235 -0.29635,0.793186 -0.39701,0.793186 -0.10847,0 -0.12717,-0.209182 -0.046,-0.513249 z m 1.47019,-1.073147 c 0.27845,-1.236424 0.1756,-1.932406 -0.36969,-2.501579 -0.51797,-0.540628 -2.28799,-1.590671 -3.37662,-2.003127 -1.01753,-0.385507 -0.041,-0.497612 1.24425,-0.142852 2.01958,0.557441 2.77624,1.264118 3.04278,2.841787 0.0956,0.566423 0.031,0.937996 -0.27054,1.554972 -0.3137,0.641736 -0.37001,0.694013 -0.27018,0.250799 z"
       id="path1794"
       inkscape:connector-curvature="0" />
    <path
       inkscape:connector-curvature="0"
       id="path1796"
       d="m 479.37451,52.055132 c -0.42858,-0.648737 -0.76731,-0.921801 -1.44641,-1.165993 -0.48771,-0.175382 -0.88675,-0.383026 -0.88675,-0.461413 0,-0.07841 0.16797,-0.862918 0.37326,-1.743369 0.2053,-0.880475 0.37327,-1.70668 0.37327,-1.836018 0,-0.170884 -0.85476,-0.296412 -3.1261,-0.459118 -11.52427,-0.825529 -12.14667,-0.877574 -12.29734,-1.028232 -0.43705,-0.437063 0.56144,-0.502635 7.65349,-0.502635 6.19026,0 7.57567,-0.04649 7.87396,-0.264675 0.19909,-0.14559 0.32012,-0.304637 0.26896,-0.353455 -0.0512,-0.04882 -1.79053,-0.258721 -3.86526,-0.466458 -2.07473,-0.207725 -3.86078,-0.432402 -3.96901,-0.49929 -0.57447,-0.35504 0.35645,-0.46908 3.8294,-0.46908 h 3.81142 l 0.11464,-0.456683 c 0.27857,-1.109871 -0.94859,-3.064809 -2.49138,-3.968948 -1.18205,-0.692719 -2.56993,-0.707563 -3.86834,-0.04136 -0.51325,0.263347 -1.68904,0.866972 -2.61287,1.341388 -3.24103,1.664375 -6.02639,2.313124 -9.14504,2.129994 -3.3157,-0.194711 -5.77573,-1.11939 -9.45929,-3.555583 l -2.18057,-1.442168 -1.64541,0.554073 c -0.90499,0.304743 -3.14981,1.233674 -4.98851,2.064306 -1.83869,0.830609 -3.36647,1.486803 -3.39504,1.458235 -0.0286,-0.02855 0.53097,-0.792172 1.24345,-1.696858 0.71249,-0.904697 1.29543,-1.708497 1.29543,-1.786209 0,-0.07771 -1.13269,-0.195632 -2.51706,-0.262019 -1.38439,-0.06641 -3.10608,-0.175464 -3.82599,-0.242375 -1.28693,-0.119609 -1.30893,-0.130607 -1.30893,-0.654749 v -0.533102 l 2.93948,-0.0058 c 3.44537,-0.0082 6.53839,-0.251521 6.82463,-0.537739 0.11116,-0.11115 0.16432,-0.210463 0.11813,-0.220669 -0.0462,-0.01049 -1.75683,-0.199581 -3.80143,-0.420903 -2.49538,-0.270093 -3.7429,-0.478738 -3.79488,-0.634675 -0.0603,-0.180939 0.8937,-0.232308 4.31412,-0.232308 h 4.39154 l 2.24573,-2.472906 2.24573,-2.472894 0.004,-3.402513 c 0.004,-3.970486 0.37574,-3.511671 -2.98237,-3.684827 -2.5505,-0.131528 -9.85685,-0.629956 -10.91806,-0.744812 -0.41059,-0.04451 -0.81568,-0.08505 -0.90019,-0.0903 -0.0845,-0.0047 -0.12651,-0.132995 -0.0933,-0.283957 0.0698,-0.317745 2.92012,-0.436351 11.02505,-0.458756 2.91811,-0.0082 4.80582,-0.0833 4.80582,-0.191484 0,-0.212292 -0.69305,-0.334639 -2.70618,-0.47769 -2.83392,-0.201384 -7.42552,-0.661609 -7.58517,-0.76027 -0.59361,-0.366888 0.28964,-0.450216 4.77224,-0.450216 h 4.93236 l 0.11564,-1.073124 c 0.17754,-1.647586 0.45333,-2.680083 0.9382,-3.512487 0.95237,-1.634991 2.91927,-2.357386 5.36477,-1.970306 0.95181,0.150647 1.68588,0.158593 2.47334,0.0268 2.5703,-0.430317 5.24059,-0.146313 8.17137,0.86908 l 1.45256,0.503252 0.95302,-0.402669 c 0.52418,-0.221438 1.04632,-0.34721 1.16032,-0.27946 0.11395,0.06769 0.94724,0.663814 1.85164,1.324598 l 1.64436,1.201436 1.90167,-0.131026 c 2.12474,-0.146407 2.74153,-0.405722 2.74153,-1.15263 0,-0.265141 -0.53396,-1.376003 -1.18657,-2.468595 -0.65261,-1.092593 -1.7135,-2.9582736 -2.35755,-4.1459381 -0.64404,-1.187676 -1.26989,-2.2946575 -1.39078,-2.4599964 -0.22463,-0.307201 -1.90374,-0.4790178 -10.55568,-1.0801959 -3.50958,-0.2438314 -3.57656,-0.2559484 -3.43648,-0.6209848 0.0869,-0.2264715 1.12086,-0.2732734 6.52482,-0.2952704 6.05021,-0.0247 7.54977,-0.1383086 7.54977,-0.572342 0,-0.2591758 -1.77063,-0.5502635 -4.53935,-0.7462677 -3.77127,-0.26700509 -5.67575,-0.68434269 -4.63304,-1.01528859 0.19325,-0.0614 2.48307,-0.117709 5.08848,-0.125294 5.64537,-0.01643 6.09793,-0.103694 7.94724,-1.53255601 3.7633,-2.9076733 5.72025,-3.9311173 7.52132,-3.9334943 1.60938,-0.0012 2.77362,0.572121 4.90796,2.420721 1.05091,0.9102313 1.74383,1.3829693 1.92512,1.3134013 0.15576,-0.05977 1.78718,-0.9490873 3.62536,-1.9762243 1.83818,-1.027149 3.41497,-1.867545 3.50398,-1.867545 0.23278,0 0.59499,0.868661 0.59499,1.426963 0,0.658827 -0.70768,1.267905 -3.59018,3.0899063 -1.34757,0.85180201 -2.53093,1.60314921 -2.62968,1.66968791 -0.0996,0.067226 0.35146,0.95896759 1.01385,2.00428049 l 1.19338,1.8832853 1.08957,0.2161837 c 0.59925,0.1189098 1.13305,0.3295592 1.18623,0.4681241 0.0531,0.1385766 -0.17781,0.5645592 -0.5133,0.9466526 -0.69866,0.7957493 -1.48984,2.4460736 -1.9505,4.0686448 -1.14394,4.029195 -4.79676,6.794214 -8.99155,6.806168 -1.14784,0.0035 -1.82897,0.229478 -1.99517,0.662591 -0.10416,0.271304 0.56251,1.334781 1.98466,3.166161 0.0797,0.102645 0.3855,0.529164 0.67952,0.947818 0.46428,0.661076 0.73434,0.827207 2.05312,1.263069 2.74906,0.908566 5.80164,1.330937 6.81332,0.942727 0.1612,-0.06187 0.74503,-0.757418 1.29737,-1.545687 0.55235,-0.78827 1.30784,-1.664737 1.67885,-1.947727 1.86856,-1.425216 4.06666,-1.312796 5.70802,0.291915 1.02222,0.999408 1.31804,1.797208 1.31804,3.554604 0,1.503033 -0.0263,1.599585 -0.69988,2.560114 -1.02485,1.46166 -1.97908,1.92016 -3.77934,1.815966 -0.96841,-0.05604 -1.77038,-0.23895 -2.60254,-0.593512 l -1.20284,-0.512503 -2.52985,0.226518 c -1.39142,0.124584 -2.67244,0.301108 -2.84672,0.392277 -0.17425,0.09111 -0.46648,0.419061 -0.64934,0.728651 -0.69902,1.183342 -3.26973,1.212423 -6.02312,0.06816 -2.48754,-1.033802 -2.31006,-1.060459 -3.07676,0.461996 -0.36594,0.726671 -0.66534,1.358374 -0.66534,1.403801 0,0.04544 0.81885,0.353863 1.81967,0.685427 5.45104,1.805888 7.73778,3.784443 8.30079,7.182097 0.20178,1.217724 0.11068,2.401381 -0.43589,5.66209 -0.15895,0.948342 -0.1499,1.22257 0.0443,1.342599 0.47237,0.291926 2.69728,0.408879 5.98532,0.314599 1.82733,-0.05243 3.32242,-0.03297 3.32242,0.04322 0,0.327777 -7.78827,3.487693 -11.19801,4.543341 -2.6903,0.832915 -7.09248,1.954635 -8.20717,2.091266 -0.83424,0.102296 -0.85139,0.09321 -1.40421,-0.743623 z M 463.81037,35.037371 c 4.77314,-1.415114 7.84414,-6.184693 7.10532,-11.035304 -0.33357,-2.189986 -1.2592,-3.928484 -3.00594,-5.645674 -2.10889,-2.073207 -4.11345,-2.986142 -6.55694,-2.986142 -2.0563,0 -2.23901,0.103344 -2.85098,1.612657 -0.66242,1.63371 -1.5281,2.91965 -2.25734,3.353217 -0.41738,0.248143 -1.06895,0.360866 -2.40255,0.415614 -1.61604,0.06641 -1.86028,0.121612 -2.09013,0.472936 -0.84269,1.288014 -1.1477,5.106886 -0.56914,7.125998 0.81812,2.855197 3.13818,5.41517 5.77023,6.366926 2.33201,0.84325 4.71667,0.954447 6.85747,0.319772 z m -9.96738,-3.174736 c -0.0988,-0.0988 2.1876,-2.6006 3.36854,-3.685841 0.61257,-0.56294 0.80289,-1.090484 0.37327,-1.034687 -0.932,0.121018 -1.07314,0.007 -1.07314,-0.866611 V 25.42282 l 1.50341,0.131143 c 1.47789,0.12893 1.51287,0.122091 2.05977,-0.401853 0.61457,-0.588816 1.02981,-0.50691 1.38261,0.272761 0.21964,0.485402 0.29099,0.503753 3.07945,0.792498 4.08641,0.423152 3.59119,0.63979 -1.81584,0.79441 l -2.84232,0.08121 -1.91683,1.545827 c -1.05426,0.850206 -1.95883,1.593456 -2.01015,1.651676 -0.0514,0.05814 -0.401,0.335046 -0.77704,0.615206 -0.37605,0.280147 -0.80697,0.632612 -0.95761,0.783247 -0.15064,0.150624 -0.319,0.228779 -0.37412,0.173646 z m 10.63711,-6.740771 c 0.48439,-1.815255 -0.87782,-3.397864 -2.70867,-3.146926 -0.45992,0.06315 -0.9517,0.210463 -1.09285,0.327591 -0.14115,0.11715 -0.30019,0.169451 -0.35341,0.116276 -0.0532,-0.05325 0.20556,-0.275149 0.57507,-0.493162 2.12364,-1.252991 4.65307,0.580673 4.02291,2.916342 -0.11771,0.436235 -0.29635,0.793186 -0.397,0.793186 -0.10847,0 -0.12717,-0.209182 -0.046,-0.513249 z m 1.47019,-1.073147 c 0.27846,-1.236424 0.17562,-1.932406 -0.36968,-2.501579 -0.51796,-0.540628 -2.28799,-1.590671 -3.37663,-2.003127 -1.01751,-0.385507 -0.041,-0.497612 1.24425,-0.142852 2.01958,0.557441 2.77624,1.264118 3.04278,2.841787 0.0957,0.566423 0.031,0.937996 -0.27053,1.554972 -0.31369,0.641736 -0.37001,0.694013 -0.27019,0.250799 z"
       style="fill:#0000ff;fill-opacity:1;stroke-width:0.18663354" />
    <path
       style="fill:#ff6600;fill-opacity:1;fill-rule:evenodd;stroke:none;stroke-width:0.34326896px;stroke-linecap:butt;stroke-linejoin:miter;stroke-opacity:1"
       d="m 195.25594,-11.96935 4.33121,-0.04153 14.27128,20.550632 -14.27859,21.360317 -4.79403,0.106469 14.23432,-21.3718532 z"
       id="path1821"
       inkscape:connector-curvature="0"
       sodipodi:nodetypes="ccccccc" />
    <path
       style="fill:#0000ff;fill-opacity:1;stroke-width:0.32176444"
       d="m 94.777897,-5.968674 c -0.738891,-1.1184511 -1.322877,-1.5892255 -2.493675,-2.0102232 -0.840833,-0.3023663 -1.528796,-0.6603537 -1.528796,-0.7954963 0,-0.1351823 0.289588,-1.4877085 0.643517,-3.0056445 0.353946,-1.517978 0.643534,-2.942392 0.643534,-3.165376 0,-0.294612 -1.473644,-0.511027 -5.389534,-0.79154 -19.868348,-1.423248 -20.941393,-1.512976 -21.201155,-1.772717 -0.753493,-0.753516 0.967947,-0.866565 13.194953,-0.866565 10.672281,0 13.060789,-0.08015 13.575054,-0.456311 0.34324,-0.251004 0.551901,-0.525208 0.463698,-0.609372 -0.08827,-0.08417 -3.086952,-0.446046 -6.663878,-0.804194 -3.576925,-0.358127 -6.656154,-0.74548 -6.842748,-0.860798 -0.990411,-0.612105 0.614536,-0.808715 6.602054,-0.808715 h 6.571056 l 0.197645,-0.787341 c 0.480266,-1.913467 -1.635411,-5.283866 -4.295249,-6.842641 -2.037906,-1.194278 -4.430672,-1.21987 -6.669188,-0.07131 -0.884866,0.454022 -2.91198,1.494698 -4.504703,2.312612 -5.587678,2.869456 -10.389762,3.987928 -15.766451,3.672204 -5.716413,-0.335691 -9.957613,-1.929878 -16.308232,-6.129982 l -3.759399,-2.486361 -2.836759,0.955246 c -1.560242,0.525391 -5.430411,2.126909 -8.600411,3.558955 -3.169982,1.432006 -5.803942,2.563313 -5.853198,2.514061 -0.04931,-0.04922 0.915416,-1.365739 2.143763,-2.925458 1.228364,-1.559737 2.233378,-2.945524 2.233378,-3.079503 0,-0.133975 -1.952807,-0.337278 -4.339522,-0.451732 -2.386749,-0.114494 -5.355019,-0.302508 -6.596175,-0.417865 -2.218724,-0.206211 -2.256653,-0.225172 -2.256653,-1.128816 v -0.919091 l 5.067793,-0.01 c 5.939969,-0.01414 11.272472,-0.433633 11.765962,-0.927086 0.191645,-0.191627 0.283295,-0.362847 0.203661,-0.380443 -0.07965,-0.01808 -3.028852,-0.344086 -6.553832,-0.725655 -4.302145,-0.465652 -6.452924,-0.825365 -6.54254,-1.094208 -0.10396,-0.311946 1.540778,-0.400509 7.437732,-0.400509 h 7.571208 l 3.871738,-4.263398 3.871737,-4.263378 0.0069,-5.866082 c 0.0069,-6.845293 0.647792,-6.054276 -5.141737,-6.352804 -4.397174,-0.22676 -16.993643,-1.086072 -18.823215,-1.284089 -0.707876,-0.07674 -1.406269,-0.14663 -1.551967,-0.155681 -0.145682,-0.0081 -0.218109,-0.229289 -0.160854,-0.489554 0.120338,-0.547807 5.034415,-0.752289 19.007671,-0.790916 5.03095,-0.01414 8.285445,-0.143613 8.285445,-0.330127 0,-0.366001 -1.194848,-0.576932 -4.665573,-0.823558 -4.885803,-0.347195 -12.801923,-1.140643 -13.077167,-1.310739 -1.023409,-0.632531 0.499352,-0.776192 8.227552,-0.776192 h 8.503605 l 0.199369,-1.850113 c 0.306087,-2.840511 0.781561,-4.620581 1.617498,-6.055682 1.641928,-2.818797 5.03295,-4.064238 9.249099,-3.396895 1.640963,0.259722 2.906532,0.273422 4.264147,0.04621 4.43131,-0.741886 9.035008,-0.25225 14.087801,1.498332 l 2.504278,0.867628 1.643048,-0.694219 c 0.903709,-0.381768 1.803902,-0.598605 2.000443,-0.481801 0.196455,0.116701 1.633083,1.144445 3.192309,2.283665 l 2.834949,2.071329 3.278562,-0.225895 c 3.663145,-0.252412 4.726519,-0.699482 4.726519,-1.987185 0,-0.457114 -0.920571,-2.372289 -2.045699,-4.255966 -1.125129,-1.883678 -2.95415,-5.100194 -4.06452,-7.147779 -1.110353,-2.047606 -2.189346,-3.956092 -2.397766,-4.241142 -0.387272,-0.529628 -3.282132,-0.825848 -18.198457,-1.862305 -6.05067,-0.420377 -6.166146,-0.441267 -5.924642,-1.070606 0.149819,-0.390447 1.932412,-0.471136 11.249076,-0.50906 10.430828,-0.04258 13.016136,-0.238449 13.016136,-0.986742 0,-0.44683 -3.052644,-0.948678 -7.826039,-1.286598 -6.501835,-0.460328 -9.785243,-1.179837 -7.987565,-1.750402 0.333172,-0.105857 4.280922,-0.202936 8.772763,-0.216013 9.732867,-0.02833 10.5131,-0.178773 13.701392,-2.642194 6.488094,-5.01296 9.861957,-6.77742 12.967087,-6.78152 2.77464,-0.002 4.78184,0.98636 8.46153,4.17343 1.81182,1.569281 3.00644,2.384302 3.319,2.264364 0.26853,-0.103046 3.08117,-1.636274 6.25028,-3.407094 3.1691,-1.77085 5.88755,-3.21973 6.04101,-3.21973 0.40132,0 1.02579,1.49761 1.02579,2.46014 0,1.13585 -1.22007,2.18593 -6.18963,5.327138 -2.32327,1.468544 -4.36343,2.7639 -4.53368,2.878616 -0.17172,0.115907 0.60593,1.653303 1.74792,3.455468 l 2.05744,3.246866 1.87847,0.372711 c 1.03313,0.205004 1.95342,0.568174 2.04511,0.807066 0.0915,0.238912 -0.30655,0.973325 -0.88495,1.63207 -1.20452,1.371908 -2.56855,4.217139 -3.36275,7.014523 -1.9722,6.946509 -8.26983,11.713524 -15.50183,11.734133 -1.97892,0.006 -3.15322,0.39563 -3.43976,1.142336 -0.17958,0.46774 0.96979,2.301221 3.42164,5.458601 0.13741,0.176964 0.66462,0.912302 1.17152,1.63408 0.80044,1.139724 1.26604,1.426141 3.53967,2.177586 4.7395,1.566408 10.00229,2.294594 11.74647,1.625303 0.27791,-0.106667 1.28446,-1.305822 2.23672,-2.664832 0.95228,-1.359013 2.25477,-2.87008 2.89441,-3.357967 3.22148,-2.457135 7.0111,-2.263318 9.84088,0.503274 1.76235,1.723023 2.27236,3.098466 2.27236,6.128294 0,2.591295 -0.0454,2.757754 -1.20663,4.413749 -1.76688,2.519966 -3.41202,3.31044 -6.51574,3.130805 -1.66959,-0.09662 -3.05222,-0.41196 -4.4869,-1.023241 l -2.07375,-0.883578 -4.36157,0.390527 c -2.39887,0.214789 -4.6074,0.519124 -4.90787,0.676303 -0.30042,0.157078 -0.80423,0.72248 -1.11949,1.256227 -1.20514,2.040133 -5.63716,2.09027 -10.38412,0.11751 -4.288629,-1.78232 -3.98265,-1.828278 -5.30447,0.796502 -0.630897,1.252813 -1.147076,2.341896 -1.147076,2.420214 0,0.07834 1.411733,0.610076 3.137186,1.181707 9.39783,3.11343 13.34027,6.524546 14.31093,12.382251 0.34788,2.09941 0.19082,4.140086 -0.7515,9.761692 -0.27403,1.634983 -0.25843,2.107764 0.0764,2.3147 0.81439,0.503293 4.65023,0.704925 10.31895,0.542382 3.1504,-0.09039 5.728,-0.05684 5.728,0.07451 0,0.565102 -13.42732,6.012936 -19.30586,7.83292 -4.63819,1.4359821 -12.227742,3.3698767 -14.149517,3.6054345 -1.438266,0.1763628 -1.467834,0.1606982 -2.42092,-1.2820387 z M 67.944635,-35.308042 c 8.229103,-2.439719 13.523642,-10.662683 12.249884,-19.02535 -0.575089,-3.775632 -2.170916,-6.772879 -5.182373,-9.73339 -3.635819,-3.5743 -7.091768,-5.14824 -11.304453,-5.14824 -3.545151,0 -3.860151,0.17817 -4.915214,2.780292 -1.142042,2.816587 -2.634512,5.033605 -3.891754,5.781093 -0.719581,0.42781 -1.842917,0.622149 -4.142102,0.716537 -2.786124,0.114494 -3.207204,0.209664 -3.603476,0.815362 -1.452834,2.220593 -1.978685,8.804496 -0.981222,12.285534 1.410475,4.922485 5.41036,9.335992 9.94813,10.976861 4.020488,1.4538 8.131747,1.645508 11.82258,0.551301 z m -17.184201,-5.473385 c -0.170336,-0.170335 3.771518,-4.483549 5.807511,-6.354552 1.056097,-0.970533 1.384217,-1.880042 0.643533,-1.783846 -1.606809,0.208641 -1.85014,0.01207 -1.85014,-1.494075 v -1.470051 l 2.591945,0.226096 c 2.547947,0.222281 2.608254,0.210491 3.551134,-0.692812 1.059546,-1.015145 1.775438,-0.873935 2.38368,0.470252 0.378669,0.836854 0.50168,0.868492 5.309108,1.366301 7.04515,0.729533 6.191369,1.103026 -3.130588,1.369598 l -4.900285,0.14001 -3.304699,2.665074 c -1.817591,1.465792 -3.377109,2.747188 -3.465587,2.847562 -0.08862,0.100235 -0.691342,0.577634 -1.339651,1.060642 -0.648327,0.482986 -1.391252,1.090651 -1.650962,1.350352 -0.25971,0.259682 -0.54997,0.394425 -0.644999,0.299373 z m 18.338845,-11.621385 c 0.83511,-3.12958 -1.5134,-5.858067 -4.669866,-5.425439 -0.792923,0.108873 -1.640773,0.362847 -1.884122,0.564781 -0.243349,0.201972 -0.517541,0.292141 -0.609294,0.200465 -0.09172,-0.09181 0.354394,-0.474369 0.991446,-0.850233 3.661249,-2.160212 8.022097,1.001106 6.935674,5.027902 -0.202938,0.752088 -0.510921,1.367487 -0.684446,1.367487 -0.187007,0 -0.219247,-0.360639 -0.07931,-0.884863 z m 2.534672,-1.850153 c 0.480077,-2.131649 0.302777,-3.331553 -0.637344,-4.312832 -0.892986,-0.932067 -3.944596,-2.742387 -5.821459,-3.453479 -1.754232,-0.664631 -0.07069,-0.857905 2.145142,-0.246283 3.481844,0.961052 4.786359,2.179395 5.245886,4.899365 0.164991,0.976539 0.05345,1.617147 -0.466405,2.68084 -0.540816,1.106382 -0.637914,1.196509 -0.46582,0.432389 z"
       id="path1825"
       inkscape:connector-curvature="0" />
  </g>
</svg>
